<?xml version="1.0" standalone="no"?>
<!DOCTYPE svg PUBLIC "-//W3C//DTD SVG 1.1//EN" "http://www.w3.org/Graphics/SVG/1.1/DTD/svg11.dtd" >
<svg>
<metadata>
Created by FontForge 20090914 at Tue Sep 29 15:50:08 2015
 By www-data
Revised by Wolf
</metadata>
<defs>
<font id="VivaldiDCL" horiz-adv-x="874" >
  <font-face 
    font-family="VivaldiD CL"
    font-weight="400"
    font-stretch="normal"
    units-per-em="2048"
    panose-1="3 1 1 1 1 1 1 1 1 1"
    ascent="1638"
    descent="-410"
    x-height="810"
    cap-height="1494"
    bbox="-802 -592.999 3439 1768"
    underline-thickness="77"
    underline-position="-179"
    unicode-range="U+0020-U+2122"
  />
<missing-glyph horiz-adv-x="1024" 
d="M128 0v1468h768v-1468h-768zM256 128h512v1212h-512v-1212z" />
    <glyph glyph-name=".notdef" horiz-adv-x="1024" 
d="M128 0v1468h768v-1468h-768zM256 128h512v1212h-512v-1212z" />
    <glyph glyph-name="space" unicode=" " horiz-adv-x="512" 
 />
    <glyph glyph-name="exclam" unicode="!" horiz-adv-x="407" 
d="M650 1336c-110 -350 -253.333 -717.668 -430 -1103c-13.333 33.333 -20 69.666 -20 108.999c0 76.667 21.333 174.334 64 293.001l113 284c68 174.667 102 278.334 102 311.001c0 44.667 -38.667 67 -116 67l10 32c146.667 0 239 2.33301 277 7zM226 66.999
c0 -17.333 -6.83203 -32.833 -20.499 -46.5s-28.834 -20.5 -45.501 -20.5c-32 0 -48 15.667 -48 47c0 18 7 33.667 21 47s30 20 48 20c30 0 45 -15.667 45 -47z" />
    <glyph glyph-name="quotedbl" unicode="&#x22;" horiz-adv-x="352" 
d="M689 1343c-39.333 -78 -86.333 -176.667 -141 -296c-25.333 0 -47.666 -0.666992 -66.999 -2c17.333 39.333 55.333 137.333 114 294c33.333 0 64.666 1.33301 93.999 4zM525 1343c-41.333 -92.667 -88.333 -191.333 -141 -296c-25.333 0 -47.666 -0.666992 -66.999 -2
c12.667 26 50.667 124 114 294c33.333 0 64.666 1.33301 93.999 4z" />
    <glyph glyph-name="numbersign" unicode="#" horiz-adv-x="819" 
d="M996 1319c-36 -104.667 -95.333 -260.667 -178 -468h141v-33h-156c-48.667 -105.333 -90 -191.666 -124 -258.999h172v-33h-190c-90.667 -172.667 -201.667 -348 -333 -526h-53c130.667 195.333 235.334 370.666 314.001 525.999h-229
c-91.333 -174.667 -202.333 -350 -333 -526h-53c133.333 200 238 375.333 314 526h-167v33h183c41.333 84 80 170.333 116 259h-191v33h205c80.667 190.667 121 313.667 121 369c0 37.333 -32 56.333 -96 57v33c57.333 0 135.666 3 234.999 9
c-36 -104.667 -95 -260.667 -177 -468h218c80.667 198 121 321 121 369c0 37.333 -32 56.333 -96 57v33c58 0 136.667 3 236 9zM721 818h-219c-38.667 -86 -80 -172.333 -124 -259h227c42 86.667 80.667 173 116 259z" />
    <glyph glyph-name="dollar" unicode="$" 
d="M1124 1337c-32.667 -85.333 -72.6689 -181.999 -120.002 -289.999h-35c25.333 64 38 110 38 138c0 40 -33.333 60 -100 60c-118 0 -221.333 -30 -310 -90c-100.667 -68.667 -151 -159.334 -151 -272.001c0 -85.333 51.333 -175.333 154 -270
c62.667 188 94 292.333 94 313c0 35.333 -31 53.666 -93 54.999v30l41 -1c10.667 0 67 3.33301 169 10c-44 -142.667 -99.667 -290 -167 -442l101 -110c35.333 -44.667 53 -89 53 -133c0 -58.667 -23.667 -118 -71 -178c-100 -126.667 -232 -190.334 -396 -191.001
l-106 -152h-38l101 154c-170.667 25.333 -256 107 -256 245c0 59.333 15.667 118 47 176c20 36.667 55.667 86.667 107 150c30 -5.33301 63.333 -7.33301 100 -6c-14.667 -38 -31 -76 -49 -114c4 1.33301 -17 2 -63 2c-29.333 0 -52.666 -19 -69.999 -57
c-14 -30 -21 -61.333 -21 -94c0 -65.333 24 -120.333 72 -165c42.667 -39.333 98 -65.666 166 -78.999c60.667 88 135 238.667 223 452c-65.333 60.667 -109.333 106.667 -132 138c-38.667 54.667 -58 114.334 -58 179.001c0 96.667 38 190.667 114 282
c145.333 175.333 340.333 263 585 263c26.667 0 50.334 -1 71.001 -3zM712.998 259.001c0 44.667 -41.668 106.333 -125.001 185c-83.333 -180 -157.666 -321 -222.999 -423l30 -1c71.333 -2.66699 140.333 18 207 62c74 48.667 111 107.667 111 177z" />
    <glyph glyph-name="percent" unicode="%" horiz-adv-x="1447" 
d="M920 1192c0 -74 -38.167 -151.333 -114.5 -232s-151.166 -121 -224.499 -121c-60.667 0 -112 19.333 -154 58c-44 39.333 -66 89 -66 149c0 84.667 39.667 163.667 119 237c77.333 72.667 158.666 109 243.999 109c57.333 0 104.333 -18.833 141 -56.5
s55 -85.5 55 -143.5zM1308 1341l-837 -1341l-43 20l839 1339zM1370 326c0 -74 -38.168 -151.333 -114.501 -232s-151.166 -121 -224.499 -121c-61.333 0 -113.333 19.333 -156 58s-64 88.667 -64 150c0 84 39.667 163 119 237c78 72 159.333 108 244 108
c57.333 0 104.333 -18.833 141 -56.5s55 -85.5 55 -143.5zM843.999 1140c0 54 -14.335 98.5 -43.002 133.5s-69.667 52.5 -123 52.5c-65.333 0 -122.666 -21.333 -171.999 -64c-51.333 -44.667 -77 -99 -77 -163c0 -54 16.667 -98 50 -132s77 -51 131 -51
c64.667 0 119.834 21.333 165.501 64s68.5 96 68.5 160zM1294 273c0 54.667 -14.334 99.5 -43.001 134.5s-70 52.5 -124 52.5c-64 0 -121.333 -22 -172 -66s-76 -97.667 -76 -161c0 -54 16.667 -98 50 -132s77 -51 131 -51c64.667 0 119.834 21.167 165.501 63.5
s68.5 95.5 68.5 159.5z" />
    <glyph glyph-name="ampersand" unicode="&#x26;" horiz-adv-x="1873" 
d="M2006 1024c0 -42 -36.667 -97.002 -110 -165.002c-64.667 -60 -124.667 -102 -180 -126c-58 -25.333 -130 -40 -216 -44c-32 -82.667 -82 -171 -150 -265c46 -45.333 107.667 -101 185 -167c100.667 -86 160.667 -129 180 -129c24.667 0 63.667 29.333 117 88l24 -21
l-205 -223c-120 122 -249 244 -387 366c-107.333 -102.667 -225 -184.667 -353 -246c-142 -68.667 -280 -103 -414 -103c-116.667 0 -214.334 22.333 -293.001 67c-96 55.333 -144 137.333 -144 246c0 172 91 291.667 273 359c97.333 36.667 260 62.667 488 78
c52 3.33301 86.667 19.333 104 48c-124.667 0.666992 -216.667 8.66699 -276 24c-115.333 28.667 -173 86.334 -173 173.001c0 108.667 73.333 201.334 220 278.001c124.667 65.333 247.334 98 368.001 98c27.333 0 57.333 -2 90 -6c-32.667 -70.667 -65 -159 -97 -265
l-31 10c12.667 38 19 69.667 19 95c0 48 -34.333 72 -103 72c-94 0 -173 -14.333 -237 -43c-87.333 -38 -131 -97.667 -131 -179c0 -114 83.333 -185.667 250 -215c86 -15.333 274 -23 564 -23c167.333 0 283 7.33301 347 22c144.667 33.333 217 106 217 218
c0 18.667 -3.66699 39.667 -11 63c43.333 -14 65 -42.333 65 -85zM1400 688.998c-44 0.666992 -147.67 3.33398 -311.003 8.00098c-128.667 4 -232.667 6 -312 6c-402 0 -603 -111.333 -603 -334c0 -102.667 47.333 -180.334 142 -233.001
c76.667 -42.667 170.667 -64 282 -64c251.333 0 460.333 98.667 627 296c-55.333 54 -121.666 102.667 -198.999 146c-90 49.333 -167 74 -231 74c-71.333 0 -127.166 -21 -167.499 -63s-60.5 -99 -60.5 -171c0 -19.333 2.66699 -44.666 8 -75.999
c-41.333 24 -62 57.667 -62 101c0 70 43 136.667 129 200c81.333 60 158.333 90 231 90s148.667 -21.667 228 -65c46.667 -26 112.334 -72 197.001 -138c40 51.333 74 125.666 102 222.999z" />
    <glyph glyph-name="quotesingle" unicode="'" horiz-adv-x="188" 
d="M518 1343c-41.333 -92.667 -88.333 -191.333 -141 -296c-25.333 0 -47.666 -0.666992 -66.999 -2c12.667 26 50.667 124 114 294c33.333 0 64.666 1.33301 93.999 4z" />
    <glyph glyph-name="parenleft" unicode="(" horiz-adv-x="508" 
d="M891 1480c-214 -90 -377 -256.333 -489 -499c-95.333 -207.333 -143 -441.333 -143 -702c0 -136 19 -274.333 57 -415c-116 80.667 -174 241.667 -174 483c0 246 66.333 477.333 199 694c140.667 229.333 322.667 383 546 461z" />
    <glyph glyph-name="parenright" unicode=")" horiz-adv-x="506" 
d="M648 1074c0 -244 -62.333 -479 -187 -705c-132.667 -240.667 -304.667 -409.334 -516 -506.001l-6 22c195.333 110 347 294.333 455 553c94 224.667 141 463.334 141 716.001c0 120 -21.333 236 -64 348c118 -63.333 177 -206 177 -428z" />
    <glyph glyph-name="asterisk" unicode="*" horiz-adv-x="920" 
d="M1060 1031c-88 4 -152.999 6.00098 -194.999 6.00098h-84c8 -19.333 47.333 -105.333 118 -258l-97 -37c-24 90 -50.333 178 -79 264l-204 -188l-64 81c82 53.333 159 106.666 231 159.999l-245 138l56 86l227 -170l55 274l99 -28
c-22.667 -56 -52.334 -141.667 -89.001 -257c59.333 8 148.333 18.333 267 31z" />
    <glyph glyph-name="plus" unicode="+" 
d="M883 615l-23 -56h-313l-121 -314h-55l119 314h-314l23 56h313l120 314h56l-120 -314h315z" />
    <glyph glyph-name="comma" unicode="," horiz-adv-x="341" 
d="M99 107c2 -66 -18 -135.334 -60 -208.001c-36.667 -63.333 -84 -119.666 -142 -168.999c58 121.333 88 212.333 90 273l111 133z" />
    <glyph glyph-name="hyphen" unicode="-" horiz-adv-x="311" 
d="M374 495c-34.667 -77.333 -89.332 -116.001 -163.999 -116.001c-11.333 0 -27.5 0.833008 -48.5 2.5s-36.167 2.5 -45.5 2.5c-46.667 0 -80 -16.667 -100 -50h-18l63 132c113.333 0 165.666 0 156.999 0c69.333 2.66699 121.333 12.334 156 29.001z" />
    <glyph glyph-name="hyphen" unicode="&#x2010;" horiz-adv-x="311" 
d="M374 495c-34.667 -77.333 -89.332 -116.001 -163.999 -116.001c-11.333 0 -27.5 0.833008 -48.5 2.5s-36.167 2.5 -45.5 2.5c-46.667 0 -80 -16.667 -100 -50h-18l63 132c113.333 0 165.666 0 156.999 0c69.333 2.66699 121.333 12.334 156 29.001z" />
    <glyph glyph-name="period" unicode="." horiz-adv-x="341" 
d="M115 67c0 -17.333 -6.83203 -32.833 -20.499 -46.5s-28.834 -20.5 -45.501 -20.5c-32 0 -48 15.667 -48 47c0 18 7 33.667 21 47s30 20 48 20c30 0 45 -15.667 45 -47z" />
    <glyph glyph-name="slash" unicode="/" horiz-adv-x="679" 
d="M1042 1508l-1085 -1650h-42l1082 1650h45z" />
    <glyph glyph-name="zero" unicode="0" 
d="M1007 1063c0 -112 -27.001 -250 -81.001 -414c-60 -182 -134.333 -331.667 -223 -449c-106 -140 -217.333 -210 -334 -210c-151.333 0 -227 105 -227 315c0 119.333 27.667 258 83 416c60.667 173.333 137.334 315.333 230.001 426c110 130.667 227 196 351 196
c134 0 201 -93.333 201 -280zM901.999 980c0 177.333 -59.334 266 -178.001 266c-125.333 0 -241.666 -102.667 -348.999 -308c-90 -172.667 -135 -355.667 -135 -549c0 -184.667 62.333 -277 187 -277c144.667 0 264.667 112.667 360 338c76.667 182 115 358.667 115 530z
" />
    <glyph glyph-name="one" unicode="1" 
d="M877 1318c-21.333 -51.333 -101.666 -263.999 -240.999 -637.999c-96 -258.667 -185.667 -467.334 -269 -626.001c-73.333 -37.333 -130 -58.333 -170 -63c92 140 181.333 320.667 268 542l203 570c12 34 18 57.667 18 71c0 21.333 -9.66699 32 -29 32
c-8.66699 0 -58.667 -8.66699 -150 -26l-6 31l192 42c77.333 19.333 138.666 41 183.999 65z" />
    <glyph glyph-name="two" unicode="2" 
d="M1010 1109c0 -122.667 -126.667 -307.001 -380 -553.001c-147.333 -144 -327 -298.333 -539 -463h487c35.333 0 66.666 14.333 93.999 43c9.33301 9.33301 30.333 38 63 86h51c-60 -91.333 -99.667 -165.333 -119 -222h-778l48 84
c164.667 85.333 333.334 207.333 506.001 366c188 172.667 318 334 390 484c32.667 68 49 120.667 49 158c0 58.667 -21.333 106.334 -64 143.001c-41.333 34.667 -91.666 52 -150.999 52c-75.333 0 -138 -30 -188 -90c-44.667 -53.333 -72.334 -119.333 -83.001 -198
c-40.667 19.333 -61 52 -61 98c0 76 57.333 137.333 172 184c90 36.667 180.667 55 272 55c70 0 126 -20.333 168 -61s63 -96 63 -166z" />
    <glyph glyph-name="three" unicode="3" 
d="M1025 1153c0 -96 -45.3301 -177.999 -135.997 -245.999c-74.667 -55.333 -164.667 -93.333 -270 -114c-41.333 -8 -70.333 -19 -87 -33c-14 -12 -32.333 -37.667 -55 -77c216.667 -24.667 325 -115.667 325 -273c0 -124 -51.333 -227.667 -154 -311
c-96.667 -78 -208.334 -117 -335.001 -117c-70.667 0 -133.334 13.333 -188.001 40c-69.333 33.333 -104 81.333 -104 144c0 24 5.33301 52.333 16 85c17.333 -56.667 60.333 -99.667 129 -129c54.667 -22.667 116.667 -34 186 -34c110 0 202 29 276 87
c80.667 63.333 121 148.333 121 255c0 152 -126.667 228 -380 228c-13.333 0 -37.333 -1.66699 -72 -5c37.333 49.333 69.333 100.666 96 153.999c25.333 -2 43.666 -3 54.999 -3c106 0 202.667 25.333 290 76c104 59.333 156 138 156 236c0 45.333 -17.667 81.333 -53 108
c-32 24 -71.333 36 -118 36c-73.333 0 -135.333 -25 -186 -75c-47.333 -46 -79 -106.333 -95 -181c-29.333 16 -44 41.667 -44 77c0 72.667 57.667 132 173 178c92.667 37.333 182.667 56 270 56c122.667 0 184 -54 184 -162z" />
    <glyph glyph-name="four" unicode="4" 
d="M1063 1081l-1 -18.999c-18.667 6 -40 9 -64 9c-64.667 0 -122.667 -44.667 -174 -134c-22 -38.667 -52.667 -112 -92 -220l-63 -174c16 -1.33301 27.667 -2 35 -2c126.667 0 200.334 49.667 221.001 149c24.667 -10.667 37 -24 37 -40c0 -39.333 -45 -82 -135 -128
c-68 -35.333 -132.333 -60.333 -193 -75l-156 -428c-30 -2 -68.667 -8.33301 -116 -19l165 447c-226.667 2 -382.334 2 -467.001 0c30 40 52 77.333 66 112c90.667 32.667 176.667 103.667 258 213c64 86 118.667 185.667 164 299c29.333 73.333 44 129 44 167
c0 28 -27 44 -81 48l-3 33c15.333 -1.33301 31 -2 47 -2c63.333 0 123.333 2.33301 180 7c0.666992 -76 -33.333 -175 -102 -297c-56.667 -102 -118.667 -190.333 -186 -265c-53.333 -59.333 -127.333 -128.333 -222 -207c30.667 -2.66699 143.667 -5.33398 339 -8.00098
c61.333 170 94.333 260 99 270c45.333 98 104 171.333 176 220c84.667 57.333 149 86 193 86c22 0 32.333 -14 31 -42z" />
    <glyph glyph-name="five" unicode="5" 
d="M1108 1317c-22 -36.667 -45.334 -78.999 -70.001 -126.999h-414c-94 -206.667 -141 -326.667 -141 -360c0 -49.333 38.667 -116 116 -200s116 -159 116 -225c0 -98.667 -48.5 -193.834 -145.5 -285.501s-195.167 -137.5 -294.5 -137.5c-52.667 0 -98.667 11 -138 33
c-48 26.667 -72 64 -72 112c0 33.333 7.33301 66 22 98c23.333 -108 104.333 -162 243 -162c74.667 0 140.334 21.667 197.001 65c61.333 46.667 92 106.334 92 179.001c0 56 -37.167 126 -111.5 210s-111.5 149 -111.5 195c0 32 37.667 139.667 113 323l115 273
c156.667 7.33301 284.667 10.666 384 9.99902z" />
    <glyph glyph-name="six" unicode="6" 
d="M1241 1284c-220.667 -46.667 -408.33 -130.001 -562.997 -250.001c-152 -117.333 -281.333 -277.333 -388 -480c-59.333 -112 -89 -210 -89 -294c0 -59.333 16.333 -107.666 49 -144.999c34.667 -40 81 -60 139 -60c91.333 0 167.666 43.667 228.999 131
c56 78.667 84 165.334 84 260.001c0 48 -12 88.333 -36 121c-26.667 36.667 -63.334 55 -110.001 55c-104.667 0 -192.334 -95.333 -263.001 -286c-6.66699 20.667 -10 39.667 -10 57c0 75.333 37.667 142.666 113 201.999c71.333 55.333 145.666 83 222.999 83
c59.333 0 107.333 -17 144 -51s55 -80.333 55 -139c0 -119.333 -56 -233.833 -168 -343.5s-227.667 -164.5 -347 -164.5c-70 0 -124.667 26.333 -164 79c-35.333 47.333 -53 107.333 -53 180c0 194 101 394.333 303 601c172.667 176.667 363 310 571 400
c98.667 42.667 169.334 64 212.001 64c17.333 0 40.333 -6.66699 69 -20z" />
    <glyph glyph-name="seven" unicode="7" 
d="M1120 1320c-67.333 -220.667 -172.333 -404.669 -315 -552.002l-370 -324c-180.667 -162.667 -271 -276.667 -271 -342c0 -43.333 35 -67.666 105 -72.999c-14 -32 -36.333 -48 -67 -48c-50.667 0 -76 31 -76 93c0 88.667 42 190.334 126 305.001
c57.333 78.667 149.666 166.334 276.999 263.001c162 124 262.333 204.333 301 241c102.667 99.333 171.334 205.666 206.001 318.999h-392c-84 0 -137.333 -6.33301 -160 -19c-29.333 -16.667 -56 -62 -80 -136h-33c22 60 49.667 151 83 273h666z" />
    <glyph glyph-name="eight" unicode="8" 
d="M1020 1132c0 -95.333 -32.998 -177 -98.998 -245s-146.667 -102 -242 -102c-56 0 -84 26.667 -84 80c35.333 -28.667 69.666 -43 102.999 -43c61.333 0 112.666 31.667 153.999 95c36 56 54 116.667 54 182c0 53.333 -16.5 94.833 -49.5 124.5s-76.5 44.5 -130.5 44.5
c-69.333 0 -126.5 -23.667 -171.5 -71s-67.5 -106 -67.5 -176c0 -71.333 25.333 -144.333 76 -219l142 -186c50.667 -74 76 -145.333 76 -214c0 -103.333 -47.333 -199.333 -142 -288s-194 -133 -298 -133c-74.667 0 -136.5 24 -185.5 72s-73.5 109.333 -73.5 184
c0 113.333 41 212 123 296c74 75.333 169 127.333 285 156c-66 80.667 -99 170 -99 268c0 97.333 44.333 185.333 133 264c86 75.333 178.333 113 277 113c64.667 0 116.667 -17.333 156 -52c42 -36.667 63 -86.667 63 -150zM675.002 335c0 60 -17.333 118.999 -52 176.999
c-18 30.667 -55.667 80 -113 148c-92 -26 -166.333 -73.333 -223 -142c-58.667 -71.333 -88 -153.666 -88 -246.999c0 -65.333 19.333 -117.833 58 -157.5s90.667 -59.5 156 -59.5c79.333 0 143.333 27.333 192 82c46.667 52 70 118.333 70 199z" />
    <glyph glyph-name="nine" unicode="9" 
d="M984 1030c0 -252 -133.999 -501.331 -401.999 -747.998c-82 -75.333 -166 -139.666 -252 -192.999c-115.333 -72 -211.666 -108 -288.999 -108c-25.333 0 -42.666 8 -51.999 24c180 37.333 339.333 111.5 478 222.5s244.667 250.167 318 417.5c58.667 134 88 254 88 360
c0 66 -17.667 120.667 -53 164c-38 47.333 -89 71 -153 71c-82.667 0 -149.334 -37 -200.001 -111c-45.333 -66 -68 -142 -68 -228c0 -54 13.667 -99.667 41 -137c30 -41.333 71.333 -62 124 -62c72 0 127.333 37.333 166 112c30 58 46.667 127.667 50 209
c26 -18.667 39 -46.334 39 -83.001c0 -68.667 -36.5 -138.334 -109.5 -209.001s-144.167 -106 -213.5 -106c-60.667 0 -108.334 19.667 -143.001 59s-52 89.666 -52 150.999c0 120 47.667 230.333 143 331s202.666 151 321.999 151c76 0 133 -30.333 171 -91
c31.333 -50 47 -115.333 47 -196z" />
    <glyph glyph-name="colon" unicode=":" horiz-adv-x="342" 
d="M212 314c0 -17.333 -6.83203 -32.833 -20.499 -46.5s-28.834 -20.5 -45.501 -20.5c-32 0 -48 15.667 -48 47c0 18 7 33.667 21 47s30 20 48 20c30 0 45 -15.667 45 -47zM117.001 68c0 -17.333 -6.83203 -32.833 -20.499 -46.5s-28.834 -20.5 -45.501 -20.5
c-32 0 -48 15.667 -48 47c0 18 7 33.667 21 47s30 20 48 20c30 0 45 -15.667 45 -47z" />
    <glyph glyph-name="semicolon" unicode=";" horiz-adv-x="341" 
d="M196 314c0 -17.333 -6.83203 -32.833 -20.499 -46.5s-28.834 -20.5 -45.501 -20.5c-32 0 -48 15.667 -48 47c0 18 7 33.667 21 47s30 20 48 20c30 0 45 -15.667 45 -47zM98.001 107c2 -66 -18 -135.334 -60 -208.001c-36.667 -63.333 -84 -119.666 -142 -168.999
c58 121.333 88 212.333 90 273l111 133z" />
    <glyph glyph-name="less" unicode="&#x3c;" horiz-adv-x="1024" 
d="M934 127l-845 563v12l845 546v-68l-659 -431l659 -440v-182z" />
    <glyph glyph-name="equal" unicode="=" 
d="M950 752l-23 -56h-683l23 56h683zM855 478l-23 -56h-684l23 56h684z" />
    <glyph glyph-name="greater" unicode="&#x3e;" horiz-adv-x="1024" 
d="M934 673l-845 -546v69l659 431l-659 439v182l845 -563v-12z" />
    <glyph glyph-name="question" unicode="?" horiz-adv-x="722" 
d="M947 1092c0 -118 -43 -232.665 -129 -343.998c-66.667 -86.667 -182.334 -161.667 -347.001 -225c-170 -65.333 -255 -125 -255 -179c0 -46.667 35.333 -67.334 106 -62.001c-16 -38 -40.667 -57 -74 -57c-48 0 -72 27.667 -72 83c0 74.667 36 149.334 108 224.001
c44.667 46 123.667 88.667 237 128c128.667 44 212.334 79.667 251.001 107c77.333 55.333 116 134.666 116 237.999c0 146 -99.667 219 -299 219c-79.333 0 -135.5 -10.5 -168.5 -31.5s-65.833 -66.5 -98.5 -136.5h-35c36.667 83.333 67 166.666 91 249.999
c91.333 30 174 45 248 45c93.333 0 168 -19.333 224 -58c64.667 -44.667 97 -111.667 97 -201zM264 67.002c0 -17.333 -6.83203 -32.833 -20.499 -46.5s-28.834 -20.5 -45.501 -20.5c-32 0 -48 15.667 -48 47c0 18 7 33.667 21 47s30 20 48 20c30 0 45 -15.667 45 -47z" />
    <glyph glyph-name="at" unicode="@" horiz-adv-x="1395" 
d="M1572 1189c0 -294.667 -114.332 -520.999 -342.999 -678.999c-88.667 -61.333 -167.667 -92 -237 -92c-84.667 0 -127 47.333 -127 142c0 13.333 1.66699 31.666 5 54.999c-132 -125.333 -232.333 -188 -301 -188c-40 0 -60 25.333 -60 76c0 142.667 83.333 277 250 403
c156 118 308 177 456 177c30 0 45 -9 45 -27c0 -16 -9.66699 -41 -29 -75c-40 5.33301 -76.333 8 -109 8c-162 0 -298 -67.667 -408 -203c-62.667 -77.333 -94 -150.333 -94 -219c0 -34 11.333 -51 34 -51c45.333 0 110.333 57 195 171c62.667 84 104 177 124 279
c41.333 -21.333 62 -48.333 62 -81c0 -33.333 -18.667 -80.333 -56 -141c26 4.66699 54.667 14.667 86 30l-44 -90c-20.667 -42.667 -31 -72 -31 -88c0 -23.333 9.83301 -43 29.5 -59s41.5 -24 65.5 -24c102 0 197 63 285 189c74 105.333 111 234.666 111 387.999
c0 108 -32.167 193.833 -96.5 257.5s-150.833 95.5 -259.5 95.5c-237.333 0 -441 -116.667 -611 -350c-155.333 -212.667 -233 -442 -233 -688c0 -112.667 35 -201 105 -265c67.333 -61.333 157.666 -92 270.999 -92c147.333 0 278 54 392 162l13 -11
c-72.667 -83.333 -139.667 -143.666 -201 -180.999c-77.333 -47.333 -163.666 -71 -258.999 -71c-130.667 0 -233.667 35.333 -309 106c-77.333 72.667 -116 173.667 -116 303c0 283.333 98.667 541.333 296 774c207.333 244.667 450.333 367 729 367
c103.333 0 188.666 -25 255.999 -75c76 -55.333 114 -133 114 -233z" />
    <glyph glyph-name="A" unicode="A" horiz-adv-x="1683" 
d="M1670 198c-65.333 -70 -128.331 -142.002 -188.998 -216.002c-78 160.667 -145 336.334 -201 527.001c-64.667 218.667 -97 402.334 -97 551.001c0 55.333 5 127 15 215c-60.667 -61.333 -137.334 -150.333 -230.001 -267c-107.333 -134 -182 -224.667 -224 -272
c36.667 2.66699 77.667 4 123 4c110.667 0 221.334 -2.33301 332.001 -7c-22 -58 -45.333 -140.667 -70 -248h-38c9.33301 35.333 14 63.666 14 84.999c0 30 -18 49 -54 57c-12 2.66699 -89 4 -231 4c-43.333 0 -102 -1.33301 -176 -4
c-220.667 -215.333 -409.667 -375.333 -567 -480c47.333 4 98.666 6 153.999 6c118.667 0 277.334 -11 476.001 -33c54 -6 100.333 -9 139 -9c209.333 0 328.666 104.667 357.999 314c24.667 -14 37 -33.667 37 -59c0 -63.333 -46.667 -136 -140 -218
c-113.333 -99.333 -234.666 -149 -363.999 -149c-70.667 0 -178.334 7.33301 -323.001 22s-253.667 22 -327 22c-12 0 -91 -1.66699 -237 -5l63 101c199.333 70.667 406.666 213.334 621.999 428.001c108 108.667 275.333 303.667 502 585l139 172
c54 64.667 104 118.334 150 161.001l28 -26c-45.333 -50 -68 -118.333 -68 -205c0 -230.667 50.667 -504.334 152 -821.001c56 -176 100.333 -264 133 -264c16 0 40.667 17.667 74 53z" />
    <glyph glyph-name="B" unicode="B" horiz-adv-x="2537" 
d="M2497 1104c0 -154.667 -72.665 -265.666 -217.998 -332.999c-54.667 -25.333 -91.334 -38 -110 -38c-42 0 -106 64.333 -192 193c-73.333 -100.667 -151.666 -198 -234.999 -292c37.333 4.66699 109.333 20 216 46c90 22.667 162.667 34 218 34
c88 0 161.667 -24.667 221 -74c63.333 -52.667 95 -122.334 95 -209.001c0 -124.667 -52.667 -230.667 -158 -318c-100 -82.667 -213.667 -124 -341 -124c-106 0 -208.667 36.333 -308 109c-63.333 46 -142.666 123.667 -237.999 233
c-122 -107.333 -229.333 -186.666 -322 -237.999c-128.667 -70.667 -256 -106 -382 -106c-166 0 -304.333 52.5 -415 157.5s-166 240.167 -166 405.5c0 153.333 54 282.333 162 387s239.333 157 394 157c125.333 0 247.666 -53.333 366.999 -160
c44.667 -40.667 135.667 -144 273 -310l154 -181c20 18 48.333 46 85 84c-96.667 61.333 -145 150 -145 266c0 69.333 35.333 103.666 106 102.999c-43.333 -48.667 -65 -94.667 -65 -138c0 -41.333 18 -74 54 -98c31.333 -21.333 68.666 -32 111.999 -32
c4.66699 0 15 0.666992 31 2c120 139.333 244.667 299.666 374 480.999l35 -11c-12.667 -22 -19 -48.333 -19 -79c0 -45.333 19 -89.166 57 -131.499s79.333 -63.5 124 -63.5c50 0 90.333 22.333 121 67c27.333 39.333 41 85.333 41 138c0 167.333 -115 251 -345 251
c-116.667 0 -292.834 -16.333 -528.501 -49s-410.834 -49 -525.501 -49c-66 0 -114.667 11 -146 33c26.667 88 48 166.667 64 236l37 -8c-6.66699 -29.333 -10 -53.333 -10 -72c0 -44 45.333 -66 136 -66c54.667 0 165.667 11 333 33c324 42.667 544.667 64 662 64
c112 0 202.667 -21.333 272 -64c83.333 -52 125 -130.667 125 -236zM2429 385.001c0 66 -22 118.999 -66 158.999c-42.667 38 -97.334 57 -164.001 57c-57.333 0 -142 -14.667 -254 -44s-196.667 -44 -254 -44c-17.333 0 -34.666 1.66699 -51.999 5l-101 -105
c213.333 -240 389.333 -360 528 -360c96.667 0 180.334 31 251 93c74.667 64.667 112 144.334 112 239.001zM1422 358l-221.999 272.001c-100.667 121.333 -190.334 212.666 -269.001 273.999c-106.667 83.333 -208 125 -304 125c-118 0 -215 -44.667 -291 -134
c-72 -84 -108 -186 -108 -306c0 -152.667 62 -280.667 186 -384c116.667 -97.333 252.667 -146 408 -146c185.333 0 385.333 99.667 600 299z" />
    <glyph glyph-name="C" unicode="C" horiz-adv-x="1566" 
d="M1802 1099c0 -118 -59 -216.673 -177 -296.006c-105.333 -70.667 -220 -106 -344 -106c-82 0 -205.833 21 -371.5 63s-284.834 63 -357.501 63c-42 0 -85 -8 -129 -24c25.333 28.667 62 73.334 110 134.001c30.667 2.66699 52.667 4 66 4
c88 0 222.833 -25.833 404.5 -77.5s316.834 -77.5 405.501 -77.5c84 0 157 22.667 219 68c68.667 50.667 103 116.334 103 197.001c0 106.667 -61 188 -183 244c-94.667 44 -202.667 66 -324 66c-178 0 -342.333 -39.667 -493 -119c-156 -82 -279 -197.333 -369 -346
c-82 -135.333 -123 -274.333 -123 -417c0 -119.333 33.833 -214.166 101.5 -284.499s161.5 -105.5 281.5 -105.5c140 0 248.667 63 326 189c65.333 106.667 97.333 234.334 96 383.001c33.333 -20.667 50 -57.667 50 -111c0 -129.333 -60.167 -255.833 -180.5 -379.5
s-245.166 -185.5 -374.499 -185.5c-120 0 -217.5 40.333 -292.5 121s-112.5 181.334 -112.5 302.001c0 175.333 55.667 344.833 167 508.5s262 289.834 452 378.501c178 82.667 371 124 579 124c123.333 0 226.666 -21.333 309.999 -64
c106.667 -55.333 160 -139.333 160 -252z" />
    <glyph glyph-name="D" unicode="D" horiz-adv-x="2270" 
d="M2376 894c0 -215.333 -77.9971 -414.999 -233.997 -598.999c-162.667 -192.667 -349.667 -289 -561 -289c-146 0 -271.333 53 -376 159c-54.667 56 -134.334 171.333 -239.001 346c-200.667 -66 -347.334 -99 -440.001 -99c-93.333 0 -169.666 24.667 -228.999 74
c-63.333 52 -95 124 -95 216c0 102.667 40.333 189.334 121 260.001c77.333 68.667 168 103 272 103c94 0 187.667 -59.667 281 -179c36.667 -46.667 99 -147.334 187 -302.001c328.667 125.333 666.667 269 1014 431c3.33301 -9.33301 5 -18 5 -26
c0 -48.667 -23.333 -134.334 -70 -257.001s-70 -200.667 -70 -234c0 -19.333 12.667 -29 38 -29c13.333 0 31.333 3.66699 54 11l10 -36c-70 -25.333 -151.333 -53 -244 -83c6 46 32 136 78 270c43.333 126.667 65 200.334 65 221.001c0 24.667 -10 37 -30 37
c-4 0 -130.667 -51.333 -380 -154c-265.333 -109.333 -415.333 -170.333 -450 -183c79.333 -140.667 154.666 -246.334 225.999 -317.001c105.333 -103.333 219.666 -155 342.999 -155c180 0 333.333 81.333 460 244c118 150.667 177 318.667 177 504
c0 150.667 -57.667 263 -173 337c-96 61.333 -223.333 92 -382 92c-86 0 -214.5 -8.83301 -385.5 -26.5s-299.5 -26.5 -385.5 -26.5c-68 0 -128.333 9.33301 -181 28c22.667 78 41.667 159 57 243l37 -5c-7.33301 -36 -11 -63.667 -11 -83c0 -33.333 59 -50 177 -50
c76.667 0 191.834 7.16699 345.501 21.5s269.167 21.5 346.5 21.5c185.333 0 332.666 -33.667 441.999 -101c133.333 -82.667 200 -211 200 -385zM944.003 544.001c-88.667 146.667 -149 239.333 -181 278c-88 106.667 -177.333 160 -268 160c-68 0 -125.667 -23 -173 -69
s-71 -103 -71 -171c0 -86 32.667 -154.333 98 -205c59.333 -46.667 133.333 -70 222 -70c104 0 228.333 25.667 373 77z" />
    <glyph glyph-name="E" unicode="E" horiz-adv-x="2361" 
d="M2367 375c0 -44 -24.6689 -93.3271 -74.002 -147.994c-38.667 -42.667 -82.667 -79.334 -132 -110.001c-121.333 -76 -189 -114 -203 -114c-38.667 0 -107.667 22.333 -207 67c-83.333 37.333 -150.666 72.333 -201.999 105c-77.333 -55.333 -178.333 -98.333 -303 -129
c-110.667 -27.333 -220.667 -41 -330 -41c-201.333 0 -366.333 37.667 -495 113c-157.333 93.333 -236 233.333 -236 420c0 174 69.667 326.667 209 458c256 241.333 563.667 362 923 362c33.333 0 83.333 -0.333008 150 -1h151c187.333 0 354 2.66699 500 8
c-18.667 -58.667 -43 -142.334 -73 -251.001h-38c12 45.333 18 77.666 18 96.999c0 35.333 -35 53 -105 53h-134c-60 -0.666992 -105 -1 -135 -1c-50 -212 -104.333 -359 -163 -441c-76.667 -107.333 -208.334 -191 -395.001 -251c71.333 -22 155.333 -63 252 -123
c154 -96.667 233.667 -146.334 239 -149.001c69.333 87.333 104 176.666 104 267.999c0 140 -57.667 235 -173 285h353l-28 -108h-166c59.333 -58 89 -128.333 89 -211c0 -84.667 -38 -175.334 -114 -272.001c82.667 -48 139.334 -79 170.001 -93
c68.667 -31.333 130.334 -47 185.001 -47c94 0 170.667 33.333 230 100c55.333 61.333 86.666 140.333 94 237c26 -18 39 -45.667 39 -83zM1545 1262.01l-214.999 -0.000976562c-239.333 0 -425 -21.333 -557 -64c-194.667 -63.333 -332 -181.666 -412 -354.999
c-42 -91.333 -63 -180.666 -63 -267.999c0 -174 66 -308.333 198 -403c116.667 -84 265 -126 445 -126c212.667 0 397 55 553 165l-356 212c-130.667 68.667 -264 103 -400 103c-36.667 0 -76 -5 -118 -15c32 35.333 57.667 72.666 77 111.999
c17.333 4.66699 37.666 7 60.999 7c27.333 0 68 -3.83301 122 -11.5s94.667 -11.5 122 -11.5c162 0 289.667 72.667 383 218c62 95.333 115.333 241 160 437z" />
    <glyph glyph-name="F" unicode="F" horiz-adv-x="2287" 
d="M2575 1406c-7.33301 -49.333 -29 -134.999 -65 -256.999h-37c12 42 18 71.667 18 89c0 43.333 -23 65 -69 65c-44 0 -91.667 -13 -143 -39c-78.667 -40 -136 -106 -172 -198c-2.66699 -7.33301 -34.334 -110.333 -95.001 -309l-7 -23h382l-72 -241h-37
c12 37.333 18 65.333 18 84c0 28 -23 45 -69 51c-6 0.666992 -39 1 -99 1h-154c-23.333 -74 -62.333 -183.333 -117 -328c-104 -236 -248 -429 -432 -579c-205.333 -167.333 -427.666 -251 -666.999 -251c-217.333 0 -395 58.333 -533 175
c-147.333 124.667 -221 293.667 -221 507c0 172 54.333 307.667 163 407c105.333 96.667 245 145 419 145c172.667 0 351.667 -67 537 -201c104 -74.667 249.333 -207 436 -397c33.333 56 50 115.333 50 178c0 111.333 -51.333 198.666 -154 261.999
c-83.333 52 -185.666 81.333 -306.999 88c17.333 30 30.333 62 39 96l709 3l45 151c19.333 59.333 38.666 108.333 57.999 147c42 82.667 115.667 165 221 247c114 88.667 214 133 300 133c18 0 36.333 -2 55 -6zM1868 629.001l-457.002 3.00293
c66.667 -30.667 122 -74.667 166 -132c48 -62.667 72 -128.334 72 -197.001c0 -106.667 -39 -224.667 -117 -354c-391.333 463.333 -737.666 695 -1039 695c-126.667 0 -231.5 -40.833 -314.5 -122.5s-124.5 -185.834 -124.5 -312.501c0 -202 81.333 -364.333 244 -487
c147.333 -111.333 325.333 -167 534 -167c287.333 0 523 111.667 707 335c148.667 181.333 258.334 427.666 329.001 738.999z" />
    <glyph glyph-name="G" unicode="G" horiz-adv-x="2176" 
d="M2248 963c-122 -566 -363.003 -981.997 -723.003 -1248c-218 -161.333 -449.667 -242 -695 -242c-224 0 -410.667 68.667 -560 206c-154.667 140.667 -232 322 -232 544c0 169.333 47.667 306.666 143 411.999c98.667 108.667 232 163 400 163
c126.667 0 243.334 -41 350.001 -123c82 -62.667 165.667 -157.334 251 -284.001l203 -323c40.667 -62.667 73.334 -94 98.001 -94c22 0 52.667 10.333 92 31l16 -33c-39.333 -15.333 -112.666 -48.333 -219.999 -99c-46.667 67.333 -125.667 189.333 -237 366
c-97.333 154.667 -180.666 266 -249.999 334c-114.667 112 -236.667 168 -366 168c-127.333 0 -228 -41 -302 -123c-71.333 -78.667 -107 -182.334 -107 -311.001c0 -118.667 32.333 -237.667 97 -357c68.667 -127.333 168 -226 298 -296c124 -66.667 261 -100 411 -100
c460 0 807.333 277 1042 831c95.333 224.667 145 405.334 149 542.001h-185c34 -30.667 51 -70 51 -118c0 -107.333 -63.333 -211 -190 -311c-120.667 -95.333 -236.667 -143 -348 -143c-95.333 0 -173.333 29.667 -234 89s-91 136.666 -91 231.999
c0 210 88.667 387.667 266 533c167.333 136.667 358.666 205 573.999 205c32 0 66 -2 102 -6l-67 -237h-37c8 36 12 62.667 12 80c0 49.333 -50.667 74 -152 74c-246 0 -417 -100.667 -513 -302c-45.333 -94.667 -68 -191 -68 -289c0 -89.333 24.667 -161 74 -215
c51.333 -56.667 121 -85 209 -85c94.667 0 177.834 33 249.501 99s107.5 146 107.5 240c0 64 -24.333 107.333 -73 130c-32.667 15.333 -85.334 23.333 -158.001 24v36h613z" />
    <glyph glyph-name="H" unicode="H" horiz-adv-x="2927" 
d="M3214 1356c0 -66 -30.0039 -137.67 -90.0039 -215.003c-149.333 -192.667 -402.666 -289 -760 -289c-70 0 -137.333 2.33301 -202 7c-42 -132 -63 -258 -63 -378c0 -253.333 115 -380 345 -380c130.667 0 235.5 39.833 314.5 119.5s119.167 184.834 120.5 315.501
c25.333 -27.333 38 -56.333 38 -87c0 -112 -58.667 -216.333 -176 -313c-112 -92.667 -225.333 -139 -340 -139c-135.333 0 -239.5 37.833 -312.5 113.5s-109.5 181.167 -109.5 316.5c0 124.667 30 271 90 439l-179 15c-88 -237.333 -228 -440 -420 -608
c-211.333 -184 -434.666 -276 -669.999 -276c-171.333 0 -316.666 52 -435.999 156c-124.667 109.333 -187 248.333 -187 417c0 146.667 49.667 266.667 149 360c97.333 90.667 220 136 368 136c138.667 0 283.334 -52 434.001 -156
c126.667 -86.667 239.334 -195.667 338.001 -327c14 47.333 21 90 21 128c0 140.667 -70.333 222.667 -211 246c11.333 24.667 25.666 61 42.999 109c181.333 -32 350 -53.333 506 -64c38 116 57 202.667 57 260c0 23.333 -11 35 -33 35
c-21.333 0 -51.666 -8.66699 -90.999 -26l-12 32l277 116c-14 -134 -45.333 -276.667 -94 -428l184 -16c76.667 164.667 189 298.334 337 401.001c154 106 319.667 159 497 159c70 0 128.667 -12.333 176 -37c60.667 -31.333 91 -78.666 91 -141.999zM3135 1286
c0 64 -30 112.667 -90 146c-48.667 27.333 -107.667 41 -177 41c-162.667 0 -300 -47.667 -412 -143c-92.667 -78.667 -177.334 -199.667 -254 -363c62.667 -6 136.667 -9 222 -9c175.333 0 320.666 17 436 51c183.333 54 275 146.333 275 277zM1791 890.997
l-340.001 38.001c49.333 -51.333 74 -119.666 74 -204.999c0 -80.667 -17.667 -188.334 -53 -323.001c-314 402.667 -600.667 604 -860 604c-105.333 0 -193.166 -35 -263.499 -105s-105.5 -157.667 -105.5 -263c0 -168.667 67.333 -304.334 202 -407.001
c122 -92.667 270 -139 444 -139c413.333 0 714 266.667 902 800z" />
    <glyph glyph-name="I" unicode="I" horiz-adv-x="1898" 
d="M2186 1365c-127.333 -398 -276.333 -704.333 -447 -919c-236 -296 -527 -444 -873 -444c-190 0 -349.333 51.667 -478 155c-138.667 112 -208 261 -208 447c0 138.667 45.667 250 137 334c89.333 82 203.666 123 342.999 123c133.333 0 262 -42 386 -126
c65.333 34.667 133 52 203 52c94.667 0 170.334 -33 227.001 -99c54 -62 81 -141.333 81 -238c0 -90 -32.667 -195 -98 -315c-141.333 199.333 -304.666 368.333 -489.999 507c-92 -86 -138 -197.333 -138 -334c0 -56.667 8.66699 -117.667 26 -183
c-60.667 44.667 -91 107 -91 187c0 124 57.333 241.333 172 352c-122.667 92 -238.667 138 -348 138c-104.667 0 -190.334 -34 -257.001 -102s-100 -154.333 -100 -259c0 -176 81.333 -314 244 -414c138 -85.333 300.333 -128 487 -128c514 0 884 381 1110 1143h-703
c-10 0 -24.833 0.333008 -44.5 1s-34.167 1 -43.5 1c-94 0 -155.667 -35.667 -185 -107l-37 8l87 220h1038zM1515 627c0 84.667 -27.668 158.001 -83.001 220.001c-57.333 64 -127.666 96 -210.999 96c-42.667 0 -89 -10.333 -139 -31
c134 -94.667 269.667 -235.334 407 -422.001c17.333 50 26 95.667 26 137z" />
    <glyph glyph-name="J" unicode="J" horiz-adv-x="1914" 
d="M2095 1368c-66.667 -357.333 -150.332 -645 -250.999 -863c-126.667 -274 -279.667 -501.667 -459 -683c-228 -230.667 -465 -346 -711 -346c-186.667 0 -348.667 51.667 -486 155c-150 113.333 -225 260.333 -225 441c0 165.333 63.667 298.333 191 399
c117.333 92.667 261 139 431 139c279.333 0 583.666 -114.333 912.999 -343l-111 -74c-126 91.333 -268.333 168.666 -427 231.999c-176 69.333 -332.667 104 -470 104c-123.333 0 -230.333 -33 -321 -99c-100.667 -73.333 -151 -169.666 -151 -288.999
c0 -182 75.667 -325.333 227 -430c133.333 -92 295 -138 485 -138c377.333 0 691.333 240.667 942 722c78 150 138 298.333 180 445c17.333 60.667 54.666 238.667 111.999 534c-21.333 -3.33301 -84 -5 -188 -5c-65.333 0 -119 -17 -161 -51c-46 -36.667 -69 -87 -69 -151
c0 -62.667 38.5 -134.667 115.5 -216s115.5 -141 115.5 -179c0 -50.667 -18.667 -104.334 -56 -161.001c-41.333 -62 -86 -93 -134 -93c-36 0 -64.333 13.333 -85 40c-19.333 24.667 -29 55.334 -29 92.001c0 4 0.666992 11.667 2 23c43.333 -61.333 87 -92 131 -92
c61.333 0 92 31.667 92 95c0 32 -19 68.333 -57 109c-62 66.667 -97 106 -105 118c-38 54.667 -57 114.667 -57 180c0 104.667 38.5 195.5 115.5 272.5s167.833 115.5 272.5 115.5c14.667 0 52.667 -1 114 -3c46.667 -1.33301 84.667 -1.33301 114.001 0z" />
    <glyph glyph-name="K" unicode="K" horiz-adv-x="2546" 
d="M2594 1371l-754.999 -740.999l395 -384c68.667 -66.667 116.667 -100 144 -100c26 0 69.667 30.667 131 92l27 -24c-34 -40 -108.667 -113.333 -224 -220l-563 550c-192 -189.333 -322.667 -309 -392 -359c-161.333 -117.333 -324.666 -176 -489.999 -176
c-186.667 0 -340.5 62.667 -461.5 188s-181.5 281.666 -181.5 468.999c0 180 62 323.667 186 431c117.333 102 267.666 153 450.999 153c227.333 0 464.333 -120.667 711 -362c55.333 169.333 83 281.333 83 336c0 23.333 -11 35 -33 35c-18 0 -54 -11 -108 -33l-15 33
c62.667 27.333 170.667 81.666 324 162.999c-44 -172 -70.333 -272.667 -79 -302c-33.333 -115.333 -68.666 -212.666 -105.999 -291.999l175 -171c75.333 70 270.666 267.667 585.999 593c-37.333 2 -110.333 3 -219 3c-49.333 0 -84.333 -14.667 -105 -44
c-8.66699 -12.667 -23.667 -50 -45 -112h-43c35.333 98 64.333 189.333 86.999 274c238 -4 411.333 -4 520 0zM1723 570.001l-149.002 145.999c-52 -97.333 -115 -179 -189 -245c-90.667 -80 -182.667 -120 -276 -120c-41.333 0 -77.666 9 -108.999 27
c-38 21.333 -57 51 -57 89c0 21.333 8 47.333 24 78c14 -90.667 72.333 -136 175 -136c158 0 286.333 118.333 385 355c-139.333 134.667 -249.666 229.667 -330.999 285c-138.667 93.333 -273 140 -403 140c-148 0 -271 -43.667 -369 -131
c-101.333 -91.333 -152 -210 -152 -356c0 -173.333 69.333 -318 208 -434c130.667 -109.333 284.667 -164 462 -164c150 0 295 49.667 435 149c68 48.667 183.333 154.334 346 317.001z" />
    <glyph glyph-name="L" unicode="L" horiz-adv-x="1862" 
d="M1884 1175c0 -87.333 -34.334 -177.667 -103.001 -271c-135.333 -184.667 -312 -277 -530 -277c-80.667 0 -185 11.333 -313 34c-160 28 -263.667 44.333 -311 49c-84.667 -109.333 -157.667 -196 -219 -260c57.333 33.333 123 50 197 50c86 0 186.333 -20.333 301 -61
l286 -117l410 -164c40 -16 71.333 -24 94 -24c28.667 0 66.667 21.667 114 65l26 -27c-58.667 -52 -117 -112.333 -175 -181c-35.333 11.333 -240 95 -614 251c-299.333 124.667 -485.333 187 -558 187c-46 0 -92 -18.333 -138 -55c-11.333 -9.33301 -47.333 -45 -108 -107
l-21 32c94 98 214.333 236.667 361 416c-19.333 2 -36.333 3 -51 3c-106 0 -190.833 -31 -254.5 -93s-95.5 -146.333 -95.5 -253c0 -98 39.667 -178.333 119 -241c73.333 -58.667 160.333 -88 261 -88c74.667 0 160 28.333 256 85l21 -30
c-115.333 -78 -229.333 -117 -342 -117c-111.333 0 -198.666 32.667 -261.999 98s-95 153.666 -95 264.999c0 134 41.333 247.333 124 340c86 95.333 195.333 143 328 143c24.667 0 51.667 -1 81 -3c148 186.667 275.667 323.334 383 410.001
c167.333 134.667 336 202 506 202c90.667 0 165 -20.333 223 -61c66 -46 99 -112.667 99 -200zM1810 1100c0 86.667 -31.001 155 -93.001 205c-57.333 46.667 -130.333 70 -219 70c-146 0 -293.667 -63 -443 -189c-88 -73.333 -200 -195.333 -336 -366
c34.667 -4 139.334 -21 314.001 -51c128.667 -22 234 -33 316 -33c112.667 0 215 32 307 96c102.667 70.667 154 160 154 268z" />
    <glyph glyph-name="M" unicode="M" horiz-adv-x="2775" 
d="M3172 1388l-79 -263l-37 6c8 28.667 12 49.334 12 62.001c0 34 -27.667 51 -83 51c-88 0 -171.667 -55.333 -251 -166c-48.667 -67.333 -89.334 -162 -122.001 -284c-16 -60.667 -37 -163.334 -63 -308.001c-31.333 -174 -47 -281 -47 -321c0 -33.333 14.667 -50 44 -50
c23.333 0 55 9.33301 95 28l18 -31c-68 -24.667 -168.667 -65 -302 -121c6.66699 182.667 53.667 452 141 808l-634 -788l-25 18c23.333 45.333 35 90.333 35 135c0 70 -10 153.667 -30 251l-58 247c-135.333 -182 -278.333 -329.667 -429 -443
c-192 -144 -379 -216 -561 -216c-172 0 -316.333 51 -433 153c-121.333 106.667 -182 245 -182 415c0 164 57 294.667 171 392c107.333 91.333 244.666 137 411.999 137c110 0 218.667 -29 326 -87c59.333 -32 136 -85.667 230 -161c72 -58 120 -87 144 -87
c26.667 0 72.334 18 137.001 54l20 -30l-253 -139c-270 252 -505.667 378 -707 378c-123.333 0 -222.666 -35.667 -297.999 -107c-78 -72.667 -117 -170.334 -117 -293.001c0 -165.333 62.333 -296 187 -392c113.333 -87.333 255 -131 425 -131
c326 0 632.333 202.667 919 608c-12.667 72 -19 132.333 -19 181c0 151.333 35.667 288 107 410c47.333 80.667 92 121 134 121c53.333 0 80 -46 80 -138c0 -110.667 -69 -276.667 -207 -498c3.33301 -15.333 25.333 -108.666 66 -279.999
c26.667 -112.667 43.667 -207.334 51 -284.001l565 700c125.333 154.667 213.666 255.334 265 302.001c116.667 105.333 234.334 159 353 161zM1998 1246c0 50 -17.334 75 -52.001 75c-35.333 0 -61.666 -39 -78.999 -117c-12 -54 -18 -110.333 -18 -169
c0 -48.667 5.33301 -110 16 -184c88.667 155.333 133 287 133 395z" />
    <glyph glyph-name="N" unicode="N" horiz-adv-x="2487" 
d="M2921 1380l-78 -263.001l-37 7c8.66699 41.333 13 71.333 13 90c0 54 -61.333 81 -184 81c-314.667 0 -516.667 -231.667 -606 -695c96.667 -64.667 151.334 -102.667 164.001 -114c56 -50.667 84 -108 84 -172c0 -58 -17.667 -121 -53 -189
c-40.667 -78.667 -86.667 -118 -138 -118c-103.333 0 -155 87.333 -155 262c0 76 7.33301 151.667 22 227c-152 104.667 -296.333 210.667 -433 318c-50.667 -159.333 -106.667 -284 -168 -374c-87.333 -128 -187.333 -230.667 -300 -308
c-130.667 -90 -264.667 -135 -402 -135c-145.333 0 -266 44 -362 132c-98 90 -147 207 -147 351c0 146.667 50.333 263.334 151 350.001c95.333 82 217.333 123 366 123c86 0 173 -20.333 261 -61c51.333 -24 114.666 -62.333 189.999 -115
c58.667 -40.667 95.334 -61 110.001 -61c16 0 53 17.667 111 53l19 -29l-209 -140c-185.333 188.667 -378 283 -578 283c-102 0 -187.667 -30.667 -257 -92c-72 -64 -108 -146.333 -108 -247c0 -146 54 -261.667 162 -347c98.667 -78 223 -117 373 -117
c111.333 0 217.666 33.333 318.999 100c106 70 193.667 171.333 263 304c46.667 90 94 217.333 142 382c-272 234.667 -408 387.667 -408 459c0 19.333 34.667 97.333 104 234l36 -14c-25.333 -54 -38 -92.667 -38 -116c0 -40 48 -112.333 144 -217
c67.333 -74 135 -140.667 203 -200c22.667 99.333 70 165.666 142 198.999c-16 -43.333 -42 -128.666 -78 -255.999c90.667 -78.667 231 -186.667 421 -324c68.667 232.667 151 409 247 529c130.667 163.333 299.334 245 506 245c52.667 0 114.667 -8.33301 186 -25z
M2203 209.999c0 52 -22.667 102.001 -68 150.001c-23.333 24 -67.666 59.333 -133 106c-5.33301 -38.667 -8 -78 -8 -118c0 -176 37.333 -264 112 -264c31.333 0 56 13.667 74 41c15.333 23.333 23 51.666 23 84.999z" />
    <glyph glyph-name="O" unicode="O" horiz-adv-x="1848" 
d="M1916 759c0 -127.333 -43.333 -251.666 -130 -372.999c-93.333 -130.667 -221.666 -232 -384.999 -304c-151.333 -66.667 -312.333 -100 -483 -100c-200.667 0 -366.334 42 -497.001 126c-153.333 99.333 -230 244 -230 434c0 280 143.333 498 430 654
c234.667 127.333 504.667 191 810 191c92 0 176.667 -6.66699 254 -20l-90 -249c214 -60.667 321 -180.334 321 -359.001zM1782 740c0 76 -16.0049 144 -48.0049 204c-36.667 69.333 -89 112.333 -157 129c-71.333 -176 -171.333 -317.333 -300 -424
c-143.333 -119.333 -303.333 -178 -480 -176l-95 1c-28 0 -59.333 -8 -94 -24c28.667 63.333 54.667 104 78 122c20.667 16.667 53 25 97 25c8 0 23.667 -0.333008 47 -1s43 -1 59 -1c172.667 0 308.334 41.667 407.001 125c88 74 163 196.333 225 367
c-65.333 14.667 -126.333 22 -183 22c-135.333 0 -250.666 -31.333 -345.999 -94c-102.667 -67.333 -170 -164.333 -202 -291c-15.333 23.333 -23 49 -23 77c0 118 72.333 209 217 273c111.333 49.333 235 74 371 74c42 0 103 -5 183 -15l45 149
c-121.333 17.333 -227.666 26 -318.999 26c-414.667 0 -694 -127.667 -838 -383c-64.667 -114.667 -97 -237 -97 -367c0 -178.667 68.333 -314.667 205 -408c118.667 -81.333 271.334 -122 458.001 -122c212.667 0 395.334 64.333 548.001 193
c161.333 136.667 242 309.667 242 519z" />
    <glyph glyph-name="P" unicode="P" horiz-adv-x="1919" 
d="M2051 1085c0 -134 -49.334 -252.666 -148.001 -355.999s-214.667 -155 -348 -155c-87.333 0 -163 22.667 -227 68c-45.333 32 -101 89.667 -167 173l-407 -603c104 72.667 204.333 109 301 109c88 0 209.167 -33.5 363.5 -100.5s245.5 -100.5 273.5 -100.5
c36.667 0 80.334 37 131.001 111l31 -19c-29.333 -39.333 -81 -116.333 -155 -231c-61.333 13.333 -183.333 61 -366 143c-148.667 66.667 -277 100 -385 100c-75.333 0 -140.666 -19.333 -195.999 -58c-45.333 -32.667 -91 -84.334 -137 -155.001l-30 21l206 311
c-82 102.667 -123 217.667 -123 345c0 100 30.333 190 91 270c65.333 87.333 146.333 131 243 131c76 0 145.333 -37.667 208 -113l46 80c18 33.333 27 61.666 27 84.999c0 12 -4.33301 24 -13 36c63.333 2.66699 112.333 6.33398 147 11.001l-173 -255
c70.667 -99.333 125 -166.333 163 -201c70 -63.333 148 -95 234 -95c87.333 0 162.333 42.667 225 128c58 78 87 162.333 87 253c0 155.333 -109.667 233 -329 233c-112 0 -280 -10.167 -504 -30.5s-392 -30.5 -504 -30.5c-134.667 0 -225 15.667 -271 47l77 281l35 -9
c-10.667 -50 -16 -84.333 -16 -103c0 -58 64.667 -87 194 -87c111.333 0 277.666 9.16699 498.999 27.5s387.333 27.5 498 27.5c279.333 0 419 -96.333 419 -289zM1130 855.001c-68.667 94.667 -135.667 142 -201 142c-62 0 -111.333 -24.333 -148 -73
c-34 -44 -51 -98 -51 -162c0 -94 45.667 -195 137 -303z" />
    <glyph glyph-name="Q" unicode="Q" horiz-adv-x="2044" 
d="M2024 186l-204.998 -200.001c-52.667 46 -133.334 113 -242.001 201c-184 -136 -404.333 -204 -661 -204c-204.667 0 -370.667 41.333 -498 124c-150.667 98 -226 243.667 -226 437c0 280.667 142.333 499 427 655c233.333 128 502.666 192 807.999 192
c82.667 0 169 -6 259 -18c-24 -88 -54.667 -171.333 -92 -250c213.333 -60.667 320 -181.667 320 -363c0 -167.333 -77.667 -330.666 -233 -489.999c114.667 -96 183 -144 205 -144c12.667 0 31.667 10.667 57 32l53 49zM1782 735.999c0 183.333 -69 297.334 -207 342.001
c-66 -126 -136.333 -225.333 -211 -298c-86 -83.333 -190.333 -144.666 -313 -183.999c211.333 -58.667 402 -153.334 572 -284.001c106 123.333 159 264.666 159 423.999zM1563 1287c-86 14.667 -183.003 21.9971 -291.003 21.9971c-472 0 -770 -159.333 -894 -478
c-33.333 -85.333 -50 -173.666 -50 -264.999c0 -178.667 66.667 -315.334 200 -410.001c117.333 -83.333 269.333 -125 456 -125c219.333 0 402.333 62.333 549 187c-264.667 200.667 -509.667 301 -735 301c-46 0 -89 -4.66699 -129 -14
c44.667 50.667 77.334 93 98.001 127c50 -3.33301 86 -5 108 -5c300.667 0 512.334 155.333 635.001 466c-62 12.667 -119.333 19 -172 19c-135.333 0 -251.666 -32 -348.999 -96c-107.333 -70 -174 -168 -200 -294c-15.333 22.667 -23 49.334 -23 80.001
c0 118.667 72.667 210.334 218 275.001c113.333 50 238 75 374 75c48.667 0 104.667 -4.66699 168 -14c16 44.667 28.333 94.334 37 149.001z" />
    <glyph glyph-name="R" unicode="R" horiz-adv-x="2286" 
d="M2254 1119c0 -79.333 -29.334 -142.33 -88.001 -188.997c-11.333 -8.66699 -69 -40.334 -173 -95.001c-69.333 -36 -111.666 -78 -126.999 -126c-46 2.66699 -93.667 4 -143 4c-44.667 0 -85.334 -1.33301 -122.001 -4l-40 -99c92 -78 216 -194.667 372 -350
c100 -99.333 161 -149 183 -149c24.667 0 60.667 18.333 108 55l25 -29l-209 -164l-263 269c-102 102 -193.333 187.667 -274 257c-83.333 -146.667 -199.666 -269.334 -348.999 -368.001c-158 -104.667 -317.667 -157 -479 -157c-150.667 0 -273.667 44.667 -369 134
c-98 91.333 -147 211.666 -147 360.999c0 172 65 330.667 195 476c144 160.667 341.667 280.334 593 359.001c211.333 66 443.333 99 696 99c149.333 0 274 -15 374 -45c158 -46.667 237 -126.334 237 -239.001zM2114 1100c0 166.667 -186.666 250.001 -559.999 250.001
c-448.667 0 -790 -109.333 -1024 -328c-162.667 -152 -244 -324 -244 -516c0 -137.333 46 -248 138 -332c88.667 -82 202.334 -123 341.001 -123c292.667 0 517 169.333 673 508c-112.667 101.333 -220.667 152 -324 152c-86.667 0 -158.167 -28.833 -214.5 -86.5
s-84.5 -130.167 -84.5 -217.5c0 -24 3.33301 -51.667 10 -83c-51.333 27.333 -77 65.666 -77 114.999c0 82 56.333 165.333 169 250c106.667 79.333 203 119 289 119c52 0 102.667 -13.667 152 -41c23.333 -12 67 -42.333 131 -91c64.667 146 97 256.667 97 332
c0 37.333 -22.333 56 -67 56c-14.667 0 -35.334 -2.66699 -62.001 -8l-9 35c126 25.333 224.333 50.666 295 75.999c-32.667 -137.333 -65.334 -251.666 -98.001 -342.999c37.333 -2 64.333 -3 81 -3c104 0 190.667 20 260 60c85.333 48.667 128 121.667 128 219z" />
    <glyph glyph-name="S" unicode="S" horiz-adv-x="2468" 
d="M2491 662c0 -169.333 -64.999 -322.671 -194.999 -460.004c-132.667 -140 -283 -210 -451 -210c-140.667 0 -247.667 56.333 -321 169c-166.667 -104 -341.667 -156 -525 -156c-218.667 0 -394.834 66.5 -528.501 199.5s-200.5 309.5 -200.5 529.5
c0 182.667 44.333 335.334 133 458.001c100 138 238 207 414 207c202 0 362.333 -81.333 481 -244c72 -98 132.333 -242.333 181 -433c60.667 -234 106.334 -384.667 137.001 -452c70.667 42.667 138.667 116.334 204 221.001c63.333 100 102.333 193 117 279l-46 -1
c-202.667 -4.66699 -304 35.333 -304 120c0 55.333 25.333 119.666 76 192.999c74 107.333 169.333 188.333 286 243c86.667 40.667 207.667 74.667 363 102c-28 -131.333 -42 -214 -42 -248c0 -19.333 9 -29 27 -29c6.66699 0 36.667 9.66699 90 29l13 -33
c-72.667 -34.667 -164.667 -73 -276 -115c18 104 27 179.667 27 227c0 40 -19.333 60 -58 60c-84.667 0 -170.334 -35.333 -257.001 -106c-91.333 -74 -137 -152.333 -137 -235c0 -45.333 34 -72.666 102 -81.999c12 -2 62.333 -3 151 -3c2 16.667 3 31.334 3 44.001
c0 56.667 -8 106.334 -24 149.001c66.667 -16 100 -80.333 100 -193c76.667 2 129 3 157 3c202 0 303 -77.667 303 -233zM2384 565.995c0 96.667 -41.668 158.668 -125.001 186.001c-39.333 12.667 -121.333 19 -246 19c-24 -98 -73 -198 -147 -300
c-70.667 -98.667 -148.667 -178.334 -234 -239.001c60.667 -126.667 146.334 -190 257.001 -190c135.333 0 252.333 53.667 351 161c96 105.333 144 226.333 144 363zM1507 195.996c-20.667 46.667 -67.665 198.999 -140.998 456.999
c-60.667 216 -125.334 374.667 -194.001 476c-98.667 146.667 -226.334 220 -383.001 220c-146.667 0 -258.667 -51.667 -336 -155c-69.333 -92 -104 -214 -104 -366c0 -209.333 68.333 -386.666 205 -531.999c140 -148.667 314 -223 522 -223c140 0 283.667 41 431 123z
" />
    <glyph glyph-name="T" unicode="T" horiz-adv-x="1853" 
d="M2168 1276c0 -40 -22 -73.335 -66 -100.002c-26 -16 -72.667 -34.667 -140 -56c-64 -20 -106 -37 -126 -51l-622 164c-132.667 -69.333 -242.334 -179 -329.001 -329c-84 -147.333 -126 -297.333 -126 -450c0 -120.667 44 -211 132 -271
c75.333 -50.667 176.666 -76 303.999 -76c180.667 0 329.334 51.667 446.001 155s186.334 245 209.001 425c17.333 -36.667 26 -70.667 26 -102c0 -98 -66.667 -211.333 -200 -340c-172 -166 -346.667 -249 -524 -249c-144.667 0 -264 33.667 -358 101
c-106 76 -159 183.333 -159 322c0 168.667 50.667 329 152 481c93.333 138.667 217.333 254.334 372 347.001c-166.667 47.333 -297.667 71 -393 71c-134.667 0 -243.667 -40.5 -327 -121.5s-125 -188.5 -125 -322.5c0 -50 8 -106 24 -168c-62.667 40 -94 97.333 -94 172
c0 110.667 56.333 224.334 169 341.001c132.667 137.333 276 206 430 206c108.667 0 269.667 -32.667 483 -98c145.333 46 229.333 72 252 78c91.333 24 178.666 36 261.999 36c78.667 0 146.334 -9.66699 203.001 -29c83.333 -28 125 -73.333 125 -136zM2120 1257
c0 46.667 -43.332 82.667 -129.999 108c-62.667 18 -126 27 -190 27c-141.333 0 -277 -27.333 -407 -82c261.333 -84.667 453.666 -127 576.999 -127c100 0 150 24.667 150 74z" />
    <glyph glyph-name="U" unicode="U" horiz-adv-x="2529" 
d="M2523 1284c0 -214 -203.668 -497.329 -611.001 -849.996c-36 -110 -80 -210.667 -132 -302c17.333 1.33301 28.333 2 33 2c36 0 90.167 -2 162.5 -6s126.833 -6 163.499 -6c106.667 0 191.334 45.333 254 136c56 80 84 175.667 84 287c0 14.667 -0.666992 29 -2 43
c31.333 -25.333 47 -61.666 47 -108.999c0 -113.333 -54.333 -218.333 -163 -315c-106 -94.667 -216.333 -142 -331 -142c-40.667 0 -101.667 4.83301 -183 14.5s-142 14.5 -182 14.5c24.667 57.333 56.334 144.666 95.001 261.999
c-291.333 -206 -506.666 -309 -645.999 -309c-44 0 -80.333 10.667 -109 32c-32.667 24 -49 57.333 -49 100c0 56 22.667 143.667 68 263l108 262c120 301.333 180 486.666 180 555.999c0 62 -63.667 93 -191 93c-230.667 0 -425 -61 -583 -183
c-172.667 -132.667 -259 -311.334 -259 -536.001c0 -47.333 7.66699 -110 23 -188c-68 57.333 -102 144 -102 260c0 228 128.667 410.667 386 548c192 102.667 427.333 154 706 154c79.333 0 148.333 -2.66699 207 -8c-39.333 -178 -123.333 -425 -252 -741l-96 -230
c-42.667 -108.667 -64 -183.334 -64 -224.001c0 -63.333 34.333 -95 103 -95c61.333 0 163.333 40.667 306 122c112.667 64.667 208.667 128 288 190l101 357c42.667 149.333 88 267.666 136 354.999c66 119.333 149 208.333 249 267c60.667 35.333 112.667 53 156 53
c66 0 99 -42.333 99 -127zM2425 1258c0 62.667 -20.667 93.999 -62 93.999c-86.667 0 -178 -121.667 -274 -365c-35.333 -91.333 -86.333 -251.333 -153 -480c119.333 94.667 225.333 206.334 318 335.001c114 158 171 296.667 171 416z" />
    <glyph glyph-name="V" unicode="V" horiz-adv-x="2357" 
d="M2707 1373c-64.667 -142.667 -170.334 -278.003 -317 -406.003c-7.33301 -95.333 -69.333 -208 -186 -338c-39.333 -44 -135.666 -137.333 -288.999 -280c-136 -126 -256.333 -248.333 -361 -367c8 72.667 12 148.334 12 227.001c0 118 -6.33301 226.667 -19 326
c-230 -90.667 -345 -211.667 -345 -363c0 -43.333 13 -90 39 -140c-71.333 5.33301 -107 44.666 -107 117.999c0 90.667 47.333 180.334 142 269.001c72.667 68 161 125.667 265 173c-27.333 230.667 -91.666 420.334 -192.999 569.001
c-125.333 184.667 -293.333 277 -504 277c-148 0 -268.667 -53.333 -362 -160c-90 -102 -135 -228 -135 -378c0 -161.333 54.833 -295.166 164.5 -401.499s245.5 -159.5 407.5 -159.5c44 0 90.333 7 139 21l6 -18c-78 -40 -157 -60 -237 -60c-156 0 -285 57 -387 171
c-98 110 -147 243.667 -147 401c0 184.667 59.667 341 179 469c122 131.333 274.667 197 458 197c222 0 398 -95.333 528 -286c101.333 -148.667 169.666 -346 204.999 -592c277.333 88.667 484.666 183.667 621.999 285c-26 186 -210.333 298.333 -553 337
c32.667 27.333 63 61.333 91 102c60.667 -4.66699 147.667 -7 261 -7c280.667 0 488.334 4.66699 623 14zM2585 1289c-31.333 -1.33301 -181 -3.66699 -449 -7c156 -65.333 240 -155 252 -269c85.333 75.333 151 167.333 197 276zM2275 869.996
c-94 -80 -189.667 -141.334 -287 -184.001c-42.667 -18.667 -149 -55 -319 -109c4.66699 -52 7 -114 7 -186c0 -86 -3 -161.333 -9 -226l345 331c148.667 150.667 236.334 275.334 263 374.001z" />
    <glyph glyph-name="W" unicode="W" horiz-adv-x="2817" 
d="M3110 1191c0 -132 -70.6699 -245.999 -212.003 -341.999c-112 -76.667 -243.333 -129.334 -394 -158.001c-156 -233.333 -374.667 -479.666 -656 -738.999l1 127c1.33301 159.333 -12.667 340.666 -42 543.999l-419 -512c-25.333 -34 -65 -83.333 -119 -148
c-1.33301 182.667 -12 406.667 -32 672c-1.33301 30.667 -5 76.667 -11 138c-9.33301 70 -30.333 105 -63 105c-16.667 0 -41.334 -9 -74.001 -27l-18 33c37.333 18.667 118 66.334 242 143.001c36.667 -180 56.334 -469.667 59.001 -869l426 513l-4 20
c-179.333 1.33301 -273.666 -73.334 -282.999 -224.001c-17.333 14 -26 32.333 -26 55c0 56.667 34.667 111.667 104 165c62 48 123.667 76 185 84c-56.667 172.667 -151 308.334 -283 407.001c-134 99.333 -291.333 149 -472 149c-202 0 -368.667 -56.333 -500 -169
c-138.667 -119.333 -208 -278.333 -208 -477c0 -176 56 -324 168 -444c115.333 -123.333 260.333 -185 435 -185c32 0 66.333 3 103 9l6 -19c-60 -20.667 -130.667 -31 -212 -31c-178 0 -322.167 57 -432.5 171s-165.5 260.333 -165.5 439c0 234 89.667 422.333 269 565
c165.333 132 368 198 608 198c206.667 0 378.834 -52.333 516.501 -157s232.834 -256.667 285.501 -456c164.667 182.667 308.667 320 432 412c192 144 371.667 216 539 216c66.667 0 123.334 -17.667 170 -53c51.333 -38.667 77 -90.334 77 -155.001zM3005 1135
c0 58.667 -22 105 -66 139c-39.333 30.667 -89.333 46 -150 46c-237.333 0 -519.333 -183.333 -846 -550c158 -13.333 296 -20 414 -20c31.333 0 65 1 101 3c27.333 50.667 41 93 41 127c0 27.333 -13 45 -39 53c-9.33301 2.66699 -33.333 5 -72 7v36h255
c-12.667 -66 -44 -137.333 -94 -214c304 54 456 178.333 456 373zM2422 681.001c-65.333 -5.33301 -129.999 -8 -193.999 -8c-66.667 0 -173.334 6 -320.001 18c33.333 -137.333 50 -329.333 50 -576c200 185.333 354.667 374 464 566z" />
    <glyph glyph-name="X" unicode="X" horiz-adv-x="2459" 
d="M2766 1215c0 -76 -32.6641 -149.667 -97.9971 -221c-176.667 -193.333 -502 -285.666 -976 -276.999c119.333 -392 209.666 -588 270.999 -588c16.667 0 49 16.333 97 49l22 -29l-235 -164c-78 132 -159.667 340.667 -245 626
c-154.667 -199.333 -284.667 -341.333 -390 -426c-166.667 -134.667 -342.334 -202 -527.001 -202c-158.667 0 -289 46.667 -391 140c-104.667 96 -157 222.667 -157 380c0 138.667 40.833 248.834 122.5 330.501s191.834 122.5 330.501 122.5
c134.667 0 266 -48.667 394 -146c78.667 -59.333 180 -161 304 -305c30.667 35.333 46 70.333 46 105c0 88 -73 135.333 -219 142c25.333 23.333 50.666 60 75.999 110c114 -10.667 228.333 -20.667 343 -30c-88 294.667 -154.333 442 -199 442
c-20.667 0 -48.334 -15.333 -83.001 -46l-23 31c68 43.333 136 96.666 204 159.999c47.333 -77.333 91 -174 131 -290l95 -305l42 -4c144.667 192.667 258 325 340 397c148.667 131.333 304.667 197 468 197c72 0 130.667 -14.667 176 -44
c54 -34.667 81 -86.334 81 -155.001zM2672 1164c0 58 -24.333 102.332 -73 132.999c-40.667 26 -91.667 39 -153 39c-137.333 0 -272 -58.333 -404 -175c-68.667 -61.333 -168 -175.666 -298 -342.999c105.333 -4.66699 190 -7 254 -7c161.333 0 301 21.333 419 64
c170 60.667 255 157 255 289zM1589 654.999l-21 67.002c-100 5.33301 -179.333 10.666 -238 15.999c29.333 -43.333 44 -82.666 44 -117.999c0 -68.667 -50 -145.667 -150 -231c-130 154.667 -232.333 264 -307 328c-138.667 117.333 -270.667 176 -396 176
c-100 0 -180.167 -30.333 -240.5 -91s-90.5 -141.334 -90.5 -242.001c0 -146.667 56.333 -264.334 169 -353.001c104 -82 231 -123 381 -123c180.667 0 344.667 58 492 174c97.333 76.667 216.333 209 357 397z" />
    <glyph glyph-name="Y" unicode="Y" horiz-adv-x="2661" 
d="M2952 1194c0 -86 -33.667 -174.998 -101 -266.998c-88 -120.667 -212.333 -212.334 -373 -275.001c-141.333 -55.333 -294.666 -83 -459.999 -83c-76.667 0 -174.667 7.33301 -294 22c-98.667 -160 -175.334 -289.333 -230.001 -388l-14 -148
c-15.333 -6 -37.666 -16 -66.999 -30c-42.667 -26.667 -76 -74.667 -100 -144c-19.333 -57.333 -29 -116.333 -29 -177c0 -75.333 35.667 -125.333 107 -150l-51 -140c-85.333 31.333 -128 104 -128 218c0 86 37.333 205.667 112 359c38 78 56.667 195.667 56 353l-1 245
c-100 -22.667 -180.667 -68.334 -242 -137.001c-64 -72 -96 -158.333 -96 -259c0 -101.333 38.667 -189.333 116 -264c-14.667 -2.66699 -25 -4 -31 -4c-48 0 -85.667 23.333 -113 70c-22.667 39.333 -34 84.666 -34 135.999c0 120.667 38 229.334 114 326.001
c69.333 88.667 162.666 158.334 279.999 209.001c-12.667 129.333 -35.667 233.666 -69 312.999c-42.667 104 -108.667 186.333 -198 247c-86 58.667 -180.333 88 -283 88c-145.333 0 -264 -47.5 -356 -142.5s-138 -215.167 -138 -360.5
c0 -138.667 42.667 -266.667 128 -384c88 -122 198.333 -199 331 -231v-19c-162 2 -292 56 -390 162c-95.333 103.333 -143 237 -143 401c0 180.667 59.833 332.5 179.5 455.5s269.5 184.5 449.5 184.5c194.667 0 345 -67.333 451 -202
c91.333 -116 146.333 -276.333 165 -481c39.333 3.33301 72.666 5 99.999 5c32.667 0 80.334 -3.33301 143.001 -10c146.667 219.333 275.667 380 387 482c175.333 160.667 358 241 548 241c77.333 0 140.333 -17 189 -51c56.667 -39.333 85 -96 85 -170zM2868 1112
c0 71.333 -26.667 126.667 -80 166c-47.333 35.333 -108 53 -182 53c-269.333 0 -543 -214.333 -821 -643c133.333 -14.667 247.333 -22 342 -22c305.333 0 524 79.333 656 238c56.667 68 85 137.333 85 208zM1680 595.003c-66.667 7.33301 -110 11 -130 11
c-12 0 -26.667 -1 -44 -3c0 -124 -3.33301 -228.667 -10 -314z" />
    <glyph glyph-name="Z" unicode="Z" horiz-adv-x="2035" 
d="M2012 79l-115 -90.0029c-124 113.333 -254.667 211 -392 293l-394 -308c-159.333 -114 -312.333 -171 -459 -171c-159.333 0 -293 45.333 -401 136c-114.667 96 -172 222 -172 378c0 190 70 339 210 447c128 98 289.667 147 485 147c82 0 187.333 -6.33301 316 -19
l98 103c-123.333 124 -202.666 186 -237.999 186c-28 0 -47.333 -43 -58 -129l-40 3l72 365c72 -70 132.667 -126.333 182 -169c91.333 -79.333 158 -125.666 200 -138.999c81.333 80.667 138 133.334 170 158.001c78 61.333 146.333 92 205 92c47.333 0 71 -21.667 71 -65
c0 -68 -46.333 -125.667 -139 -173c-72.667 -36.667 -149.667 -59 -231 -67c-50 -4.66699 -95.667 -23.667 -137 -57c-10.667 -8.66699 -46 -45.667 -106 -111c123.333 -10 236 -14.333 338 -13l-66 -244h-37c6 32.667 9 59 9 79c0 28.667 -12 48.334 -36 59.001l-301 21
l-373 -385c166 112 306.333 168 421 168c132 0 298 -63 498 -189c90.667 54.667 162.667 82 216 82c50 0 89.667 -27.333 119 -82c-40.667 15.333 -79.334 23 -116.001 23c-64 0 -123 -17 -177 -51c120 -79.333 246 -172 378 -278zM1642 1242
c0 20.667 -13.666 31 -40.999 31c-58.667 0 -142 -56.667 -250 -170c17.333 -2.66699 32.666 -4 45.999 -4c42 0 91.333 13.667 148 41c64.667 31.333 97 65.333 97 102zM1469 303.997c-68.667 44.667 -144.332 84.334 -226.999 119.001c-100 42 -180.667 63 -242 63
c-98.667 0 -219.667 -48.667 -363 -146c-108 -74 -210.667 -161.333 -308 -262l-28 31c202 178.667 433.333 407.667 694 687c-150 18.667 -265.667 28 -347 28c-139.333 0 -258.333 -38.333 -357 -115c-107.333 -82.667 -161 -192 -161 -328
c0 -94.667 30.333 -185.334 91 -272.001c95.333 -136 245.666 -204 450.999 -204c156 0 300.333 42.333 433 127z" />
    <glyph glyph-name="bracketleft" unicode="[" horiz-adv-x="688" 
d="M1029 1502l-26.002 -46.001h-235l-330 -906c-53.333 -141.333 -129.666 -354.666 -228.999 -639.999h242l-25 -46l-25 -1c-71.333 2.66699 -177.666 3 -318.999 1c22 74 72.667 214 152 420c92.667 240.667 189.334 506.667 290.001 798
c32 94.667 83.333 234.667 154 420c41.333 -1.33301 147.666 -1 318.999 1c2 0 12.667 -0.333008 32 -1z" />
    <glyph glyph-name="backslash" unicode="\" horiz-adv-x="679" 
d="M527 -142h-35l-86 1650h39z" />
    <glyph glyph-name="bracketright" unicode="]" horiz-adv-x="819" 
d="M935 1500c-26 -81.333 -76.335 -220.666 -151.002 -417.999c-30 -78.667 -101.667 -282.667 -215 -612c-87.333 -251.333 -164 -453.333 -230 -606c-71.333 -2 -177.666 -2.33301 -318.999 -1l-25 1l29 46h222c14.667 35.333 93.334 248.666 236.001 639.999l331 906
h-225l22 43c68.667 1.33301 148.667 2 240 2c38.667 0 67 -0.333008 85 -1z" />
    <glyph glyph-name="asciicircum" unicode="^" horiz-adv-x="1024" 
d="M1073 588h-68l-431 659l-440 -659h-182l563 845h12z" />
    <glyph glyph-name="underscore" unicode="_" horiz-adv-x="1024" 
d="M973 -256h-922v77h922v-77z" />
    <glyph glyph-name="grave" unicode="`" horiz-adv-x="1024" 
d="M872 861c-78 129.333 -179.333 214.666 -304 255.999l29 87c71.333 -20 133 -64 185 -132c48 -63.333 78 -133.666 90 -210.999z" />
    <glyph glyph-name="a" unicode="a" horiz-adv-x="768" 
d="M941 808c0 -14.667 -9.66797 -40.002 -29.001 -76.002c-46 8 -93.333 12 -142 12c-128.667 0 -249.667 -35.667 -363 -107c-110 -69.333 -196.333 -161.666 -259 -276.999c-36.667 -68 -55 -132.667 -55 -194c0 -56 19.667 -84 59 -84c32.667 0 80.334 28.667 143.001 86
c160 146.667 262.667 323 308 529c28.667 -17.333 43 -48.666 43 -93.999c0 -66 -32.667 -140.667 -98 -224c30.667 2 70 11 118 27c-68.667 -153.333 -103 -242 -103 -266c0 -18 9 -27 27 -27c13.333 0 43.333 13.333 90 40l18 -26c-70 -52.667 -165.667 -94 -287 -124v7
c-0.666992 52 38.666 165.667 117.999 341c-64.667 -77.333 -138 -149.666 -220 -216.999c-109.333 -90 -196.333 -135 -261 -135c-46.667 0 -70 29.667 -70 89c0 136.667 72.333 276.667 217 420c164.667 163.333 352.334 265.666 563.001 306.999
c57.333 11.333 107.333 17 150 17c22 0 33 -8 33 -24z" />
    <glyph glyph-name="b" unicode="b" horiz-adv-x="756" 
d="M859 732c0 -83.333 -42.334 -182.332 -127.001 -296.999c-88 -118.667 -201.667 -219 -341 -301c-149.333 -88 -293.333 -132.667 -432 -134c317.333 735.333 476 1138 476 1208c0 20 -12 30 -36 30c-15.333 0 -39 -6 -71 -18l-11 31
c76.667 25.333 171.334 66.666 284.001 123.999c-8.66699 -103.333 -106 -374.333 -292 -813c62 67.333 131.667 126 209 176c95.333 60.667 179 91 251 91c60 0 90 -32.333 90 -97zM707.999 677.001c0 46 -22 68.999 -66 68.999c-94.667 0 -201.667 -85 -321 -255
c-91.333 -129.333 -162 -259.666 -212 -390.999c17.333 -2.66699 33 -4 47 -4c106 0 205.667 41.667 299 125c76 68 141.333 157.333 196 268c38 77.333 57 140 57 188z" />
    <glyph glyph-name="c" unicode="c" horiz-adv-x="606" 
d="M736 841l-141.001 -263.001h-35c28.667 60.667 43 101.334 43 122.001c0 24 -23.667 36 -71 36c-88 0 -162 -39 -222 -117c-46.667 -60 -87 -127 -121 -201c-40 -86.667 -60 -160.667 -60 -222c0 -75.333 32.667 -113 98 -113c80 0 154.667 38.333 224 115
c43.333 48 91.333 121.667 144 221c7.33301 -12.667 11 -25.667 11 -39c0 -77.333 -59.333 -163 -178 -257c-114.667 -90 -213 -135 -295 -135c-88.667 0 -133 49.667 -133 149c0 155.333 77 311.833 231 469.5s308.667 236.5 464 236.5
c8.66699 0 22.334 -0.666992 41.001 -2z" />
    <glyph glyph-name="d" unicode="d" horiz-adv-x="799" 
d="M1051 1371c-4.66699 -61.333 -31.668 -153.664 -81.001 -276.997l-116 -274c40.667 -15.333 62.334 -48 65.001 -98c-22 8 -54 13.667 -96 17l-124 -308c-68 -174 -102 -274 -102 -300c0 -18 9 -27 27 -27c17.333 0 51.333 15 102 45l19 -24
c-68 -48.667 -168.667 -92 -302 -130c23.333 88 57.333 190.667 102 308l120 303l55 139c-146 -4.66699 -285.333 -63.334 -418 -176.001c-140 -119.333 -210 -250 -210 -392c0 -56 20.667 -84 62 -84c82 0 169.667 71.333 263 214c73.333 111.333 126.333 221 159 329
c11.333 -24.667 17 -49.334 17 -74.001c0 -124.667 -87.667 -261.667 -263 -411c-118.667 -101.333 -211.334 -152 -278.001 -152c-51.333 0 -77 30.333 -77 91c0 140 78.333 287 235 441c161.333 158.667 341.333 255 540 289c88 226 132 350.333 132 373
c0 26.667 -14.333 40 -43 40c-17.333 0 -36.666 -4.33301 -57.999 -13l-12 30c123.333 45.333 217.333 85.666 282 120.999z" />
    <glyph glyph-name="e" unicode="e" horiz-adv-x="594" 
d="M717 781c0 -63.333 -50.667 -129 -152 -197c-94.667 -64 -175 -96 -241 -96c-32 0 -54 17.333 -66 52c28.667 -4 51.334 -6 68.001 -6c58 0 115 16 171 48c65.333 36.667 98 81.667 98 135c0 31.333 -20.667 47 -62 47c-82 0 -164 -53.667 -246 -161
c-112.667 -147.333 -169 -290 -169 -428c0 -68 28.667 -102 86 -102c74.667 0 149 44.333 223 133c56 67.333 102.667 146 140 236c10 -17.333 15 -33.333 15 -48c0 -76 -58.333 -163 -175 -261c-114 -96 -210.333 -144 -289 -144c-77.333 0 -116 44.333 -116 133
c0 136.667 47 269.667 141 399c89.333 122.667 199 214 329 274c63.333 29.333 119.666 44 168.999 44c50.667 0 76 -19.333 76 -58z" />
    <glyph glyph-name="f" unicode="f" horiz-adv-x="390" 
d="M991 1338c0 -6.66699 -22.001 -75.0039 -66.001 -205.004h-33c13.333 40 20 69.667 20 89c0 36.667 -30 55 -90 55c-112.667 0 -205.667 -53 -279 -159c-39.333 -56.667 -86.333 -159.667 -141 -309h161l-10 -31h-162l-271 -768c-24.667 0 -42 -3.66699 -52 -11
c-8 -4.66699 -29.667 -45.667 -65 -123c-42 -90.667 -65.333 -140 -70 -148c-46 -82 -96 -147 -150 -195c-68 -60 -133.333 -90 -196 -90c-64 0 -96 24.667 -96 74c0 6.66699 1.66699 16.334 5 29.001c34.667 -8.66699 69.334 -13 104.001 -13c129.333 0 236 79.667 320 239
c37.333 70.667 74.333 156.334 111 257.001c62.667 172.667 147 422.334 253 749.001h-111l11 27l40 3c48 4 86.667 38 116 102c41.333 90.667 83.333 159.667 126 207c50 56.667 120 111.334 210 164.001c99.333 57.333 182 86 248 86c44.667 0 67 -9.66699 67 -29z" />
    <glyph glyph-name="g" unicode="g" horiz-adv-x="771" 
d="M945 793c0 -12 -6.99805 -35.001 -20.998 -69.001c-36 6 -76.667 9 -122 9c-304.667 0 -521.667 -121.667 -651 -365c-40 -75.333 -60 -140.333 -60 -195c0 -62.667 20.667 -94 62 -94c46 0 104.667 37.333 176 112c52 54.667 98 113.667 138 177
c64 100.667 104 196.334 120 287.001c27.333 -25.333 41 -55.333 41 -90c0 -56.667 -33 -130.667 -99 -222c24.667 4 62 9.66699 112 17c-58 -196 -113.667 -346.667 -167 -452c-80.667 -159.333 -181.334 -281.333 -302.001 -366
c-104.667 -73.333 -202.334 -110 -293.001 -110c-79.333 0 -119 31.333 -119 94c0 14 3.66699 29.667 11 47c57.333 -48 120.333 -72 189 -72c230.667 0 413.667 272 549 816c-64.667 -72.667 -133 -138.667 -205 -198c-102 -84 -181.333 -126 -238 -126
c-57.333 0 -86 35.667 -86 107c0 108.667 57.333 230 172 364c94 110 202.333 197 325 261c132 69.333 265.667 104 401 104c44.667 0 67 -12 67 -36z" />
    <glyph glyph-name="h" unicode="h" horiz-adv-x="770" 
d="M819 779c0 -29.333 -42.5 -136.001 -127.5 -320.001s-127.5 -295.333 -127.5 -334c0 -14.667 7.66699 -22 23 -22c18 0 50.667 13 98 39l18 -26c-66.667 -36.667 -159.667 -76 -279 -118c5.33301 77.333 48.333 209 129 395c79.333 182 119 279.667 119 293
c0 19.333 -7.66699 29 -23 29c-48.667 0 -132 -69.667 -250 -209c-134 -158 -232.667 -309.333 -296 -454c-48 -5.33301 -91.333 -18.666 -130 -39.999c42.667 100.667 185 457 427 1069c21.333 54 32 96.333 32 127c0 24.667 -10.667 37 -32 37c-10 0 -34 -6.66699 -72 -20
l-10 29c81.333 27.333 167.333 66 258 116l1 -28c2.66699 -74 -48.333 -242 -153 -504l-217 -508c266 330 454.667 495 566 495c30.667 0 46 -15.333 46 -46z" />
    <glyph glyph-name="i" unicode="i" horiz-adv-x="365" 
d="M522 1064c0 -17.333 -6.83203 -32.833 -20.499 -46.5s-28.834 -20.5 -45.501 -20.5c-32 0 -48 15.667 -48 47c0 18 7 33.667 21 47s30 20 48 20c30 0 45 -15.667 45 -47zM418.001 844c0 -68.667 -43.168 -197 -129.501 -385s-129.5 -295 -129.5 -321
c0 -18.667 10.667 -28 32 -28c12.667 0 35.334 7 68.001 21l13 -29c-55.333 -27.333 -139 -63 -251 -107c5.33301 93.333 49 230.666 131 411.999c80 176.667 120 277.334 120 302.001c0 20 -8.66699 30 -26 30c-15.333 0 -47 -9.66699 -95 -29l-10 32
c88.667 32 181 69.667 277 113v-11z" />
    <glyph glyph-name="j" unicode="j" horiz-adv-x="333" 
d="M552 1066c0 -17.333 -6.66797 -33.167 -20.001 -47.5s-28.666 -21.5 -45.999 -21.5c-32 0 -48 15.667 -48 47c0 18 7 33.667 21 47s30 20 48 20c30 0 45 -15 45 -45zM446.999 859.999c-216.667 -703.333 -514.999 -1154 -894.999 -1352
c-90.667 -47.333 -166.667 -71 -228 -71c-32.667 0 -61 8 -85 24c-27.333 18 -41 42.667 -41 74c0 10 2 21.667 6 35c53.333 -37.333 110 -56 170 -56c275.333 0 530 273.667 764 821c84 196.667 126 317.334 126 362.001c0 28.667 -14.667 43 -44 43
c-14.667 0 -32.334 -2.66699 -53.001 -8l-5 31c125.333 34.667 220.333 67 285 97z" />
    <glyph glyph-name="k" unicode="k" horiz-adv-x="775" 
d="M885 764c0 -62 -46.332 -118.336 -138.999 -169.003c-62 -33.333 -136 -60.666 -222 -81.999c-63.333 -15.333 -102.333 -48.333 -117 -99c32.667 -5.33301 60.5 -19.666 83.5 -42.999s34.5 -51 34.5 -83c0 -18.667 -5.5 -46 -16.5 -82s-16.5 -63 -16.5 -81
c0 -36 17 -54 51 -54c65.333 0 117.666 70.667 156.999 212c13.333 -20 20 -39.333 20 -58c0 -48.667 -29.667 -99.167 -89 -151.5s-113.666 -78.5 -162.999 -78.5c-63.333 0 -95 33.667 -95 101c0 24.667 9 60.5 27 107.5s27 82.833 27 107.5c0 74 -51.333 111 -154 111
c-6 0 -15.667 -0.666992 -29 -2c-64.667 -158 -112.334 -283.667 -143.001 -377c-30.667 -6.66699 -75.667 -20.667 -135 -42c24 52 98.667 234 224 546l126 308c74.667 192 112 309.667 112 353c0 25.333 -12.333 38 -37 38c-8.66699 0 -34.334 -7 -77.001 -21l-9 30
c86 30 177.333 72.333 274 127c-12 -119.333 -50 -261.666 -114 -426.999l-170 -412c64.667 78.667 138 144 220 196c96.667 62 188.334 93 275.001 93c63.333 0 95 -22.667 95 -68zM748.001 716.997c0 36 -19.666 54 -58.999 54c-54.667 0 -121 -30 -199 -90
c-66.667 -50.667 -120 -103.667 -160 -159h16c75.333 0 155.666 15.667 240.999 47c107.333 38.667 161 88 161 148z" />
    <glyph glyph-name="l" unicode="l" horiz-adv-x="335" 
d="M598 1375c2 -77.333 -51.667 -240.332 -161 -488.999c-190.667 -434 -286 -682.333 -286 -745c0 -26.667 11.667 -40 35 -40c18 0 56.667 22.667 116 68l19 -26c-108 -94 -187.333 -141 -238 -141c-38.667 0 -58 28 -58 84c0 70.667 46 218.667 138 444l197 459
c57.333 135.333 86 214.666 86 237.999c0 18.667 -10 28 -30 28c-8.66699 0 -31.667 -6 -69 -18l-10 29c59.333 22 146.333 58.333 261 109z" />
    <glyph glyph-name="m" unicode="m" horiz-adv-x="1111" 
d="M1168 798c0 -23.333 -43.166 -126.834 -129.499 -310.501s-129.5 -296.5 -129.5 -338.5c0 -17.333 8.66699 -26 26 -26c13.333 0 35.333 9 66 27l16 -26c-71.333 -51.333 -155.333 -92.666 -252 -123.999c2 90 42.833 229.167 122.5 417.5s119.5 280.166 119.5 275.499
c0 16 -7 24 -21 24c-36 0 -100.667 -51 -194 -153c-120.667 -132 -214.667 -301.333 -282 -508c-38.667 -9.33301 -85.667 -28 -141 -56c163.333 416 245 646 245 690c0 19.333 -9 29 -27 29c-32.667 0 -84.667 -42.667 -156 -128c-118.667 -142 -221.667 -322 -309 -540
l-134 -49c40.667 87.333 91 205 151 353c74.667 184.667 112 293 112 325c0 22 -9.33301 33 -28 33c-14 0 -34.333 -6 -61 -18l-12 32c57.333 22 139.333 66.333 246 133c2 -15.333 3 -28.666 3 -39.999c0 -54.667 -34.667 -167 -104 -337c185.333 236.667 329 355 431 355
c30 0 45 -16 45 -48c0 -48 -33.667 -154.667 -101 -320c59.333 78.667 128.666 153.667 207.999 225c106 96 189.333 144 250 144c26.667 0 40 -13.667 40 -41z" />
    <glyph glyph-name="n" unicode="n" horiz-adv-x="797" 
d="M859 784c0 -35.333 -48 -145.67 -144 -331.003s-144 -290.666 -144 -315.999c0 -19.333 9 -29 27 -29c23.333 0 52.333 12.333 87 37l16 -27c-79.333 -58.667 -174 -98.667 -284 -120c8.66699 78.667 60 216.334 154 413.001c92 192 138 290 138 294
c0 18 -7.33301 27 -22 27c-29.333 0 -85 -37.667 -167 -113c-172.667 -159.333 -307.334 -351 -404.001 -575c-30 -6.66699 -74.333 -22.667 -133 -48c45.333 92.667 99 213.334 161 362.001c78.667 188 118 301.333 118 340c0 22.667 -9.66699 34 -29 34
c-9.33301 0 -34.666 -6 -75.999 -18l-6 32c96 27.333 184.667 59.333 266 96c1.33301 -8.66699 2 -14.667 2 -18c0 -60 -48.333 -196.333 -145 -409c244.667 280.667 423.667 421 537 421c32 0 48 -17.333 48 -52z" />
    <glyph glyph-name="o" unicode="o" horiz-adv-x="679" 
d="M756 787c0 -10.667 -4.33301 -26.998 -13 -48.998c-36 3.33301 -67 5 -93 5c-221.333 0 -381.333 -118.667 -480 -356c-32.667 -78.667 -49 -146.334 -49 -203.001c0 -74.667 33.667 -112 101 -112c77.333 0 157.333 59.333 240 178c77.333 112 116 209.333 116 292
c0 51.333 -18.667 77 -56 77c-53.333 0 -104.333 -53.333 -153 -160c-3.33301 14 -5 25.667 -5 35c0 42.667 26.333 86.667 79 132c50.667 44 98 66 142 66c34 0 61.667 -13.333 83 -40c19.333 -24 29 -53.667 29 -89c0 -112.667 -67.667 -232.334 -203 -359.001
c-143.333 -134 -262.333 -201 -357 -201c-39.333 0 -71.166 14 -95.499 42s-36.5 62 -36.5 102c0 134.667 57.667 265.667 173 393c104 115.333 224.667 198 362 248c69.333 25.333 125.666 38 168.999 38c31.333 0 47 -13 47 -39z" />
    <glyph glyph-name="p" unicode="p" horiz-adv-x="645" 
d="M673 626c0 -153.333 -61.333 -297.998 -184 -433.998c-97.333 -107.333 -183.333 -161 -258 -161c-40.667 0 -61 18 -61 54c0 12.667 4.33301 27 13 43c33.333 -22 62.333 -33 87 -33c82 0 156 57.333 222 172c58.667 102 88 198 88 288c0 108 -67.333 164.667 -202 170
l-478 -1231c-32.667 -14 -71.667 -26.667 -117 -38c32.667 71.333 85 202.666 157 393.999l218 598c50.667 11.333 92.334 48.666 125.001 111.999c5.33301 11.333 25.666 66.333 60.999 165l-26 1c-40.667 1.33301 -89.667 -2 -147 -10l-54 -138l-28 12l86 227
c6 1.33301 75 5.33301 207 12l62 176h33l-60 -177c170.667 0 256 -67.333 256 -202z" />
    <glyph glyph-name="q" unicode="q" horiz-adv-x="747" 
d="M954 814c0 -12 -8.66699 -34.333 -26 -67c-56.667 4 -99.334 6 -128.001 6c-213.333 0 -389.333 -76.333 -528 -229c-107.333 -118 -161 -231 -161 -339c0 -50.667 22 -76 66 -76c39.333 0 87.333 26.667 144 80c136 128 230.667 289.333 284 484
c27.333 -24 41 -53.333 41 -88c0 -60.667 -31.667 -132.667 -95 -216c20 1.33301 49 6 87 14l-348 -884c-29.333 -9.33301 -73.333 -30.333 -132 -63c106 248 221.667 540 347 876c-196 -204.667 -341.667 -307 -437 -307c-27.333 0 -49 10.333 -65 31s-24 45 -24 73
c0 85.333 40.333 182.333 121 291c94.667 127.333 213.334 231.333 356.001 312c151.333 85.333 302.333 128 453 128c30 0 45 -8.66699 45 -26z" />
    <glyph glyph-name="r" unicode="r" horiz-adv-x="513" 
d="M701 827l-36.001 -100.999c-25.333 5.33301 -47.333 8 -66 8c-168 0 -327 -234 -477 -702c-44 -9.33301 -85.333 -20.666 -124 -33.999c148.667 405.333 223 625.666 223 660.999c0 21.333 -8.66699 32 -26 32c-11.333 0 -33.666 -9 -66.999 -27l-13 31
c93.333 45.333 177 95.666 251 150.999c2.66699 -12 4 -23 4 -33c0 -51.333 -23 -137 -69 -257c170.667 189.333 289 284 355 284c13.333 0 28.333 -4.33301 45 -13z" />
    <glyph glyph-name="s" unicode="s" horiz-adv-x="461" 
d="M610 829c-46.667 -80.667 -88.6641 -148.998 -125.997 -204.998l-25 18c18.667 39.333 28 64.666 28 75.999c0 25.333 -21.667 38 -65 38c-40 0 -75.833 -14.667 -107.5 -44s-47.5 -64 -47.5 -104c0 -26 15.333 -72 46 -138s46 -120 46 -162
c0 -70 -38.5 -140.5 -115.5 -211.5s-150.5 -106.5 -220.5 -106.5c-30.667 0 -57.334 7.33301 -80.001 22c-25.333 16.667 -38 39.667 -38 69c0 32 8 62.333 24 91c41.333 -70.667 93.666 -106 156.999 -106c46.667 0 88.667 15.833 126 47.5s56 70.5 56 116.5
c0 27.333 -16 74.666 -48 141.999s-48 119 -48 155c0 62.667 37 130.667 111 204c69.333 68.667 155.666 103 258.999 103c23.333 0 46 -1.66699 68 -5z" />
    <glyph glyph-name="t" unicode="t" horiz-adv-x="406" 
d="M568 832l-13.001 -30h-141c-38.667 -82 -90.334 -198 -155.001 -348c-83.333 -192.667 -125 -300.334 -125 -323.001c0 -30.667 14.333 -46 43 -46c35.333 0 84 20.667 146 62l16 -26c-97.333 -73.333 -185.666 -110 -264.999 -110c-49.333 0 -74 19 -74 57
c0 36 43.667 154 131 354l168 380h-131l14 30c67.333 0 114.333 14.333 141 43c15.333 16 38 61.333 68 136l20 -1c26.667 -1.33301 58.334 2.66699 95.001 12c-18 -47.333 -44.333 -110.666 -79 -189.999h141z" />
    <glyph glyph-name="u" unicode="u" horiz-adv-x="747" 
d="M835 825c-36 -68.667 -87.9971 -182.332 -155.997 -340.999c-77.333 -181.333 -116 -288 -116 -320c0 -20 11 -30 33 -30c19.333 0 46 6.66699 80 20l13 -27c-40 -22 -129.333 -59.333 -268 -112c15.333 105.333 48.666 221.333 99.999 348
c-184 -232 -329 -348 -435 -348c-44 0 -66 24 -66 72c0 63.333 40.5 175.666 121.5 336.999s121.5 255 121.5 281c0 22 -11.333 33 -34 33c-12 0 -31 -4 -57 -12l-8 30c107.333 31.333 190.333 60 249 86c-2.66699 -72.667 -49.334 -196 -140.001 -370s-136 -282 -136 -324
c0 -27.333 12.667 -41 38 -41c63.333 0 151.666 72 264.999 216c102 130 188.667 285 260 465c38.667 4 83.667 16.333 135 37z" />
    <glyph glyph-name="v" unicode="v" horiz-adv-x="657" 
d="M820 806c-64 -201.333 -163.666 -365.332 -298.999 -491.999c-95.333 -88.667 -256.333 -195.334 -483 -320.001c44 96.667 85 205 123 325c47.333 147.333 71 257.333 71 330c0 64 -14 96 -42 96c-16 0 -44.667 -14 -86 -42l-17 31c99.333 62.667 165.666 94 198.999 94
c44.667 0 67 -41.667 67 -125c0 -80.667 -19 -178 -57 -292l-105 -281c296.667 142 468 333 514 573h-85c-56.667 0 -95 -5 -115 -15c-24.667 -12.667 -48.667 -42.667 -72 -90h-36c44 78 75.667 147.333 95 208h328z" />
    <glyph glyph-name="w" unicode="w" horiz-adv-x="987" 
d="M1157 806c-46 -137.333 -119.333 -262.668 -220 -376.001c-62 -69.333 -169.667 -167.666 -323 -294.999l-167 -145c21.333 97.333 64.333 324.333 129 681c-19.333 -23.333 -42.666 -61 -69.999 -113c-147.333 -280.667 -293 -468.334 -437 -563.001
c108 262 162 472.333 162 631c0 61.333 -15 92 -45 92c-14 0 -34.667 -11 -62 -33l-16 28c69.333 46 122.666 83.667 159.999 113c56 -26 84 -75.667 84 -149c0 -98.667 -38.333 -259.667 -115 -483c31.333 42.667 77.333 119 138 229
c59.333 106.667 108 185.334 146 236.001c60.667 80.667 125.667 139.667 195 177l-146 -683l283 237c101.333 98.667 165.333 201.667 192 309h-140c-48.667 0 -80.667 -6.66699 -96 -20c-8 -6.66699 -25 -36 -51 -88h-36l94 215h341z" />
    <glyph glyph-name="x" unicode="x" horiz-adv-x="903" 
d="M1004 804c-40 -81.333 -77.666 -163.667 -112.999 -247l-32 6c16.667 44 25 74.667 25 92c0 26.667 -20 40 -60 40c-116.667 0 -218.334 -93 -305.001 -279h199l-17 -31h-197c-32.667 -54.667 -49 -113.334 -49 -176.001c0 -37.333 11.667 -67.666 35 -90.999
s53.666 -35 90.999 -35c74.667 0 138.334 35 191.001 105c44.667 59.333 73.334 129.666 86.001 210.999c14.667 -18.667 22 -40.667 22 -66c0 -71.333 -44.5 -146 -133.5 -224s-169.833 -117 -242.5 -117c-100 0 -150 51 -150 153c0 18.667 3 40 9 64l-158 -136
c-69.333 -53.333 -131.333 -80 -186 -80c-28.667 0 -54.334 8 -77.001 24c-25.333 18 -38 40.667 -38 68c0 17.333 8.66699 40.333 26 69c22.667 -60.667 68 -91 136 -91c67.333 0 135.666 38.333 204.999 115c54.667 60 99.334 129 134.001 207h-195l17 31h194
c48 115.333 72 197.333 72 246c0 56.667 -25 85 -75 85c-72 0 -135 -38 -189 -114c-48.667 -68 -75 -140.333 -79 -217c-16.667 20.667 -25 47 -25 79c0 72.667 45.333 147.334 136 224.001c87.333 74 168.333 111 243 111c70.667 0 106 -40 106 -120
c0 -26.667 -5.66699 -60 -17 -100l154 135c63.333 47.333 125 71 185 71c21.333 0 45.333 -4 72 -12z" />
    <glyph glyph-name="y" unicode="y" horiz-adv-x="782" 
d="M862 705c0 -133.333 -64.335 -281.667 -193.002 -445c-116 -147.333 -239.667 -257 -371 -329c-46 -25.333 -119 -48 -219 -68c-95.333 -19.333 -157.666 -38.333 -186.999 -57c-48 -30.667 -72 -70.667 -72 -120c0 -42.667 23.667 -74.667 71 -96
c36 -16.667 78 -25 126 -25c70 0 135 17.667 195 53c-16 -83.333 -81 -125 -195 -125c-60.667 0 -112.667 13.667 -156 41c-51.333 32 -77 76.667 -77 134c0 73.333 38 148 114 224c40 40 122 67.667 246 83c131.333 17.333 231.333 52 300 104
c113.333 86.667 196.333 194.667 249 324c31.333 76.667 47 141 47 193s-18.333 78 -55 78c-82 0 -188 -91.667 -318 -275c-92 -130.667 -169.667 -263.667 -233 -399h-35c82.667 293.333 124 500 124 620c0 40 -13.333 60 -40 60c-11.333 0 -31.666 -5.33301 -60.999 -16
l-9 30c52.667 22 126 60.667 220 116c10.667 -27.333 16 -61 16 -101c0 -82 -19.333 -198.667 -58 -350c227.333 295.333 397.333 443 510 443c40.667 0 61 -32.333 61 -97z" />
    <glyph glyph-name="z" unicode="z" horiz-adv-x="721" 
d="M827 810c-123.333 -180 -211 -295.998 -263 -347.998c-107.333 -107.333 -234.666 -173.333 -381.999 -198l129 -112c56 -48.667 103 -73 141 -73c62.667 0 110.667 30.667 144 92c26.667 50 40 109.333 40 178c0 37.333 -5.33301 77 -16 119
c44.667 -26.667 67 -70.667 67 -132c0 -81.333 -30 -158.333 -90 -231c-62.667 -76.667 -133.667 -115 -213 -115c-49.333 0 -98 17.333 -146 52c-19.333 14 -54.333 46.333 -105 97c-34.667 34.667 -61 52 -79 52c-24.667 0 -54 -27.333 -88 -82h-38
c42 66.667 84.333 141.667 127 225c32.667 -7.33301 62.667 -11 90 -11c206 0 394.667 126 566 378c-31.333 2.66699 -66.333 4 -105 4c-116.667 0 -181.334 -0.666992 -194.001 -2c-84 -8.66699 -139.667 -33.334 -167 -74.001c-4.66699 -6.66699 -18.667 -36 -42 -88h-34
c38.667 83.333 76 171.666 112 264.999z" />
    <glyph glyph-name="braceleft" unicode="{" horiz-adv-x="672" 
d="M1003 1460c0 -4 -0.666992 -10.3311 -2 -18.998c-16.667 6 -35.667 9 -57 9c-82 0 -148.333 -51.333 -199 -154l-140 -316c-71.333 -129.333 -167.333 -217 -288 -263c61.333 -37.333 92 -104 92 -200c0 -58.667 -21.167 -143.834 -63.5 -255.501
s-63.5 -195.5 -63.5 -251.5c0 -63.333 33.667 -95 101 -95c22.667 0 44.667 3 66 9c-24.667 -40.667 -49.667 -61 -75 -61c-42.667 0 -85.5 22.5 -128.5 67.5s-64.5 89.167 -64.5 132.5c0 41.333 25 129.833 75 265.5s75 233.167 75 292.5c0 36.667 -10.333 60.667 -31 72
c-16 9.33301 -43.333 12.666 -82 9.99902l27 39l23 -1c62 -2.66699 118.667 37 170 119c28.667 45.333 68 131 118 257c44 112 80 183.667 108 215c34 38.667 83.333 75.667 148 111c72.667 39.333 125.667 59 159 59c21.333 0 32 -14 32 -42z" />
    <glyph glyph-name="bar" unicode="|" horiz-adv-x="1024" 
d="M560 -341h-95v1706h95v-1706z" />
    <glyph glyph-name="braceright" unicode="}" horiz-adv-x="672" 
d="M762 1317c0 -39.333 -21.832 -117.832 -65.499 -235.499s-65.5 -203.5 -65.5 -257.5c0 -37.333 11 -61.333 33 -72c13.333 -6.66699 41 -10 83 -10l-19 -39c-12 1.33301 -21.667 2 -29 2c-62 0 -120.667 -45.667 -176 -137c-32 -52 -75.333 -146 -130 -282
c-48.667 -122 -86 -199.333 -112 -232c-35.333 -44 -87 -86 -155 -126c-74 -43.333 -127.667 -65 -161 -65c-22.667 0 -33.334 14.333 -32.001 43l1 18c17.333 -6 36.333 -9 57 -9c81.333 0 150 57 206 171l154 351c76.667 144 175.667 241.333 297 292
c-66.667 35.333 -100 99.666 -100 192.999c0 50 18.333 122.833 55 218.5s55 167.5 55 215.5c0 62.667 -35 94 -105 94c-23.333 0 -45.333 -3 -66 -9c24 40.667 49 61 75 61c43.333 0 87 -19.667 131 -59c46 -41.333 69 -83.333 69 -126z" />
    <glyph glyph-name="asciitilde" unicode="~" horiz-adv-x="1365" 
d="M1117 1485c-30 -51.333 -69.0029 -94.667 -117.003 -130c-54 -40.667 -107.667 -61 -161 -61c-41.333 0 -103.166 14.5 -185.499 43.5s-145.166 43.5 -188.499 43.5c-41.333 0 -77.666 -12.333 -108.999 -37c-16 -12 -43 -40.333 -81 -85l-27 17
c81.333 128.667 176.333 193 285 193c40 0 98.5 -13.667 175.5 -41s135.5 -41 175.5 -41c77.333 0 146.333 38.333 207 115z" />
    <glyph glyph-name="nonbreakingspace" unicode="&#xa0;" horiz-adv-x="512" 
 />
    <glyph glyph-name="exclamdown" unicode="&#xa1;" horiz-adv-x="1501" 
d="M1601 1699c-82.667 -104 -171.666 -156 -266.999 -156c-110.667 0 -197 50 -259 150l67 75c56 -86.667 131 -130 225 -130c63.333 0 135.666 26.333 216.999 79zM1838 1448c-17.333 -167.333 -59.335 -339.666 -126.002 -516.999c-70 -188 -154.333 -343.333 -253 -466
c-259.333 -324 -544.333 -486 -855 -486c-167.333 0 -309.666 51 -426.999 153c-122.667 107.333 -184 243.333 -184 408c0 144 48.667 261.667 146 353c95.333 89.333 215.666 134 360.999 134c136 0 278 -51 426 -153c124 -86 234.333 -193 331 -321l13 57l10 -1
c8.66699 0 18.667 1.66699 30 5c-7.33301 -66.667 -23.333 -146.334 -48 -239.001c-306.667 394.667 -587.667 592 -843 592c-103.333 0 -189.333 -34.333 -258 -103s-103 -154.667 -103 -258c0 -166 65.667 -299 197 -399c120 -90.667 265.333 -136 436 -136
c478.667 0 806 357.667 982 1073c-150 -212.667 -289.667 -319 -419 -319c-86 0 -157.667 45.667 -215 137c-35.333 56 -69.333 139.667 -102 251c-29.333 100.667 -102.666 151 -219.999 151c-83.333 0 -166.666 -18.667 -249.999 -56l-230 -103l-48 31l278 131
c123.333 51.333 222.333 77 297 77c104.667 0 182 -44.333 232 -133c137.333 -244 247.333 -366 330 -366c57.333 0 137 68 239 204c98.667 132 149.667 230 153 294z" />
    <glyph glyph-name="cent" unicode="&#xa2;" horiz-adv-x="780" 
d="M861 1083c-62 -89.333 -127.999 -133.999 -197.999 -133.999c-84 0 -149.333 43 -196 129l50 70c36 -78 93 -117 171 -117c25.333 0 54.666 7 87.999 21c36 15.333 59.667 32.666 71 51.999zM894.001 840.001c-95.333 -182 -173.664 -360.001 -234.997 -534.001
c-71.333 -202 -123.666 -338 -156.999 -408c-75.333 -158.667 -161 -272.667 -257 -342c-104.667 -76 -206 -114 -304 -114c-34.667 0 -64 7.66699 -88 23c-28.667 18 -43 43.333 -43 76c0 16 3.66699 32.667 11 50c60 -50 126 -75 198 -75
c87.333 0 159.666 29.667 216.999 89c37.333 38.667 79.666 107.667 126.999 207c27.333 57.333 59 145 95 263c36 120.667 66.667 208.334 92 263.001c-186 -229.333 -332.333 -344 -439 -344c-45.333 0 -68 26.333 -68 79c0 64 42.167 180.5 126.5 349.5
s126.5 266.5 126.5 292.5c0 22.667 -12 34 -36 34c-12 0 -31.667 -4 -59 -12l-8 31c112 33.333 198.667 63.333 260 90c-2.66699 -74.667 -51.5 -203.5 -146.5 -386.5s-142.5 -295.833 -142.5 -338.5c0 -28.667 13.333 -43 40 -43c65.333 0 157.666 75.333 276.999 226
c107.333 135.333 197.666 297 270.999 485c40.667 4.66699 88 17.667 142 39z" />
    <glyph glyph-name="currency" unicode="&#xa4;" horiz-adv-x="819" 
d="M879 915l-89 -74.999c14 -31.333 21 -61 21 -89c0 -78.667 -38.333 -157.334 -115 -236.001l90 -106l-56 -47l-88 104c-61.333 -49.333 -118.333 -74 -171 -74c-50 0 -100 18 -150 54l-106 -89l-48 58l107 89c-14.667 30.667 -22 62.667 -22 96
c0 74 32.667 145.667 98 215l-89 105l56 47l87 -103c73.333 54.667 144.333 82 213 82c46 0 88.667 -15.667 128 -47l86 73zM735 693.001c0 54.667 -14.334 99.5 -43.001 134.5s-70 52.5 -124 52.5c-65.333 0 -122.333 -21.667 -171 -65c-51.333 -44.667 -77 -99 -77 -163
c0 -54 16.667 -98 50 -132s77 -51 131 -51c64.667 0 119.834 21.333 165.501 64s68.5 96 68.5 160z" />
    <glyph glyph-name="yen" unicode="&#xa5;" horiz-adv-x="2160" 
d="M2282 1545c0 -10.667 -13.6621 -49.667 -40.9951 -117s-45.333 -108 -54 -122c-63.333 -98.667 -185.333 -148 -366 -148c-0.666992 0 -34 5 -100 15l-282 42c-69.333 -277.333 -114.333 -447.333 -135 -510c-59.333 -178.667 -134 -320.667 -224 -426
c-110 -128.667 -256.333 -221.667 -439 -279c-68 -21.333 -137.667 -32 -209 -32c-140.667 0 -255.334 38.667 -344.001 116c-94 82 -141 192 -141 330c0 120 38.667 215.333 116 286c74.667 68.667 172.667 103 294 103c116.667 0 232.667 -42.667 348 -128
c66 -48 157.333 -135 274 -261c45.333 72 77.666 187.333 96.999 346c20.667 171.333 46.667 290 78 356c-17.333 8.66699 -39 13 -65 13c-73.333 0 -188.333 -35 -345 -105s-264.334 -105 -323.001 -105c-78 0 -143.333 24 -196 72c-54.667 49.333 -82 112.666 -82 189.999
c0 61.333 22 120 66 176c39.333 50 120.666 75 243.999 75c124.667 0 279.334 -17.333 464.001 -52l459 -96c52.667 58.667 111 106.667 175 144l14 -33c-34.667 -19.333 -71.334 -62.333 -110.001 -129c190 -39.333 323.333 -59 400 -59c111.333 0 200.666 38 267.999 114
c41.333 46.667 91 136.334 149 269.001c6.66699 -16 10 -31 10 -45zM1341 1230c-372 54 -646.668 81.002 -824.001 81.002c-127.333 0 -204.666 -14 -231.999 -42c-46 -47.333 -69 -94.333 -69 -141c0 -48.667 22.333 -88.334 67 -119.001c40 -28 85.333 -42 136 -42
c32 0 169.667 45 413 135c146 54 265.333 81 358 81c24.667 0 49 -1.33301 73 -4c-35.333 -78 -77.333 -228 -126 -450c-42 -193.333 -94.667 -339.333 -158 -438c-236 293.333 -450.667 440 -644 440c-84.667 0 -161.667 -27 -231 -81c-75.333 -58.667 -113 -129 -113 -211
c0 -84.667 43 -168 129 -250c96 -92 221 -138 375 -138c222 0 391 73.333 507 220c86 108 157.333 283.333 214 526l52 222c26 97.333 50.333 167.666 73 210.999z" />
    <glyph glyph-name="brokenbar" unicode="&#xa6;" horiz-adv-x="1024" 
d="M560 687h-95v678h95v-678zM560 -341h-95v655h95v-655z" />
    <glyph glyph-name="section" unicode="&#xa7;" horiz-adv-x="819" 
d="M1104 1495c-45.333 -120.667 -81.998 -211.333 -109.998 -272l-30 19c12.667 44.667 19 74.667 19 90c0 50.667 -41.333 76 -124 76c-178.667 0 -268 -68.333 -268 -205c0 -50.667 40 -131.167 120 -241.5s120 -198.5 120 -264.5s-25.333 -133.833 -76 -203.5
s-107.334 -117.834 -170.001 -144.501c14 -47.333 21 -86.666 21 -117.999c0 -68 -25.667 -133.667 -77 -197c-92 -114 -238.333 -171 -439 -171c-36.667 0 -69 2.33301 -97 7l110 272l30 -19c-12.667 -45.333 -19 -75.333 -19 -90c0 -49.333 40.333 -74 121 -74
c184.667 0 277 68.667 277 206c0 48 -40 127.5 -120 238.5s-120 199.167 -120 264.5c0 72.667 25.333 141 76 205c44.667 57.333 102 103.333 172 138c-16 55.333 -24 96.666 -24 123.999c0 122.667 57.333 217.334 172 284.001c94.667 55.333 207.667 83 339 83
c37.333 0 69.666 -2.33301 96.999 -7zM735.002 605.001c0 42 -24.334 99.668 -73.001 173.001l-113 166c-53.333 -2 -96.833 -19.833 -130.5 -53.5s-50.5 -76.834 -50.5 -129.501c0 -41.333 24.333 -99.333 73 -174l114 -166c52.667 2 95.834 20 129.501 54
s50.5 77.333 50.5 130z" />
    <glyph glyph-name="dieresis" unicode="&#xa8;" horiz-adv-x="1800" 
d="M1579 1536c0 -17.333 -6.83203 -32.833 -20.499 -46.5s-28.834 -20.5 -45.501 -20.5c-32 0 -48 15.667 -48 47c0 18 7 33.667 21 47s30 20 48 20c30 0 45 -15.667 45 -47zM1371 1536c0 -17.333 -6.83203 -32.833 -20.499 -46.5s-28.834 -20.5 -45.501 -20.5
c-32 0 -48 15.667 -48 47c0 18 7 33.667 21 47s30 20 48 20c30 0 45 -15.667 45 -47zM1909 1432c-18 -52.667 -45.6699 -139.335 -83.0029 -260.002h-37c11.333 42 17 72.333 17 91c0 32.667 -34 49 -102 49c-65.333 0 -163.333 -0.333008 -294 -1s-228.667 -1 -294 -1
c-22 -88.667 -61.667 -229 -119 -421h718l-44 -118h-709c-54.667 -178.667 -97 -293 -127 -343c-55.333 -92.667 -147.666 -170.667 -276.999 -234c-51.333 -24.667 -93.666 -42.667 -126.999 -54c114 -38.667 267.667 -58 461 -58c64 0 160 3.16699 288 9.5
s224 9.5 288 9.5c94 0 170.667 37.333 230 112c52.667 66.667 82.334 149.334 89.001 248.001c26 -19.333 39 -49 39 -89c0 -46 -24 -98 -72 -156c-38 -46.667 -81.667 -86.667 -131 -120c-119.333 -80.667 -186.333 -121 -201 -121c-46.667 0 -116.167 -1 -208.5 -3
s-161.833 -3 -208.5 -3c-302 0 -526.333 24.667 -673 74c-97.333 32.667 -181.333 49 -252 49c-35.333 0 -74 -5.33301 -116 -16c31.333 37.333 56.666 77 75.999 119c18 5.33301 38 8 60 8c27.333 0 67.666 -4.16699 120.999 -12.5s93.333 -12.5 120 -12.5
c86 0 165.833 26.833 239.5 80.5s133.167 131.167 178.5 232.5c16 36 48 129.333 96 280h-187c1.33301 -11.333 2 -22.666 2 -33.999c0 -80.667 -27.333 -134.334 -82 -161.001c-70.667 -34.667 -144.667 -52 -222 -52c-78 0 -150.5 35.333 -217.5 106
s-100.5 145 -100.5 223c0 57.333 12.833 115.5 38.5 174.5s59.334 106.333 101.001 142s74.834 62.5 99.501 80.5c114 84.667 297.667 138.334 551 161.001c100 9.33301 296.333 14 589 14c160.667 0 304 1.66699 430 5zM1013 1309
c-63.333 -0.666992 -127.001 -1.66699 -191.001 -3c-74 -2 -137 -7.66699 -189 -17c-361.333 -64.667 -542 -208.667 -542 -432c0 -82 26.667 -147.333 80 -196c51.333 -47.333 118.333 -71 201 -71c56.667 0 109.334 12 158.001 36c60 29.333 90 69.333 90 120
c0 40 -25 87 -75 141l4 -1l-2 3h346c56 180.667 96 320.667 120 420z" />
    <glyph glyph-name="copyright" unicode="&#xa9;" horiz-adv-x="1649" 
d="M1700 895c0 -123.333 -48.001 -257.667 -144.001 -403c-91.333 -138.667 -204.666 -255 -339.999 -349c-142.667 -99.333 -276 -149 -400 -149c-157.333 0 -291 47 -401 141c-116 99.333 -174 226.333 -174 381c0 140.667 51 282 153 424
c94.667 132 216.5 241.333 365.5 328s293.167 130 432.5 130c149.333 0 271.333 -46.667 366 -140s142 -214.333 142 -363zM1600 886.999c0 143.333 -33.666 256.332 -100.999 338.999c-73.333 90.667 -180 136 -320 136c-208 0 -400.333 -86 -577 -258
s-265 -361.667 -265 -569c0 -229.333 86 -382.666 258 -459.999c71.333 -32 144.666 -48 219.999 -48c170 0 336.667 80.667 500 242c190 188 285 394 285 618zM1473 944.998c0 -74 -34.668 -134.667 -104.001 -182c-61.333 -42.667 -130.666 -64 -207.999 -64
c-50 0 -123.333 12.5 -220 37.5s-169.334 37.5 -218.001 37.5c-24 0 -49.667 -4.66699 -77 -14c15.333 17.333 37.333 44 66 80c24.667 12.667 42.667 19 54 19c41.333 0 116.833 -18.167 226.5 -54.5s191.834 -54.5 246.501 -54.5c50 0 93.333 13.667 130 41
c40.667 30 61 69.333 61 118c0 63.333 -36.333 112 -109 146c-57.333 26.667 -122 40 -194 40c-156 0 -292 -48.667 -408 -146c-122 -102.667 -183 -230.667 -183 -384c0 -71.333 20.333 -128.166 61 -170.499s96.667 -63.5 168 -63.5c85.333 0 150.666 37.667 195.999 113
c37.333 62 56.333 139 57 231c24.667 -12.667 37 -35.334 37 -68.001c0 -78 -37.167 -153.833 -111.5 -227.5s-150.833 -110.5 -229.5 -110.5c-75.333 0 -136.666 23.667 -183.999 71s-71 109 -71 185c0 184 77.333 337.333 232 460c144 114.667 310 172 498 172
c76.667 0 140.667 -15.667 192 -47c61.333 -38 92 -93 92 -165z" />
    <glyph glyph-name="ordfeminine" unicode="&#xaa;" horiz-adv-x="1557" 
d="M15 371c0 174 61.001 350.335 183.001 529.002l-40 56l-13 -55c-13.333 1.33301 -26 0 -38 -4c6.66699 65.333 21.667 143 45 233l119 -132c92.667 121.333 207.667 221 345 299c147.333 83.333 292.666 125 435.999 125c160.667 0 297 -50.667 409 -152
c116 -104.667 174 -236.334 174 -395.001c0 -138 -43.167 -249.333 -129.5 -334s-198.5 -127 -336.5 -127c-150.667 0 -318.334 47 -503.001 141c-168 86 -310.667 189 -428 309c-89.333 -132.667 -134 -255.334 -134 -368.001c0 -140.667 42.5 -252.834 127.5 -336.501
s197.833 -125.5 338.5 -125.5c72 0 137.667 11.333 197 34c80.667 30.667 121 76 121 136c0 71.333 -60.333 133.333 -181 186c-78.667 34 -171 60 -277 78c56 28.667 114.333 43 175 43c86.667 0 167.334 -27.333 242.001 -82c81.333 -59.333 122 -130.666 122 -213.999
c0 -84.667 -51 -145.667 -153 -183c-70.667 -25.333 -157.667 -38 -261 -38c-164 0 -287.667 21.667 -371 65c-112.667 59.333 -169 163.333 -169 312zM310.001 962.002c133.333 -128 273.998 -237.001 421.998 -327.001c188.667 -114.667 352.334 -172 491.001 -172
c101.333 0 185 32.5 251 97.5s99 148.5 99 250.5c0 162.667 -62 292.334 -186 389.001c-113.333 88 -253 132 -419 132c-279.333 0 -498.666 -123.333 -657.999 -370z" />
    <glyph glyph-name="guillemotleft" unicode="&#xab;" horiz-adv-x="886" 
d="M959 848c-70 -81.333 -188.666 -178.331 -355.999 -290.998c-46 -30.667 -69 -57.667 -69 -81c0 -22.667 17.333 -62 52 -118c74 -119.333 123.333 -217.333 148 -294c-24 -13.333 -59 -34 -105 -62c-16.667 45.333 -44.334 111 -83.001 197l-151 263
c198.667 121.333 346 242.666 442 363.999c23.333 1.33301 64 8.66602 122 21.999zM674.001 849.002c-39.333 -54 -102.666 -110.001 -189.999 -168.001l-215 -141c-27.333 -20 -41 -41.333 -41 -64c0 -19.333 29.333 -82.666 88 -189.999
c64.667 -118 102 -194.333 112 -229l-108 -61c-81.333 198 -158 352.667 -230 464c53.333 32 129.333 84.667 228 158l220 202c35.333 9.33301 80.666 19 135.999 29z" />
    <glyph glyph-name="logicalnot" unicode="&#xac;" horiz-adv-x="1024" 
d="M949 0h-170v471h-704v75h874v-546z" />
    <glyph glyph-name="sfthyphen" unicode="&#xad;" horiz-adv-x="311" 
d="M374 495c-34.667 -77.333 -89.332 -116.001 -163.999 -116.001c-11.333 0 -27.5 0.833008 -48.5 2.5s-36.167 2.5 -45.5 2.5c-46.667 0 -80 -16.667 -100 -50h-18l63 132c113.333 0 165.666 0 156.999 0c69.333 2.66699 121.333 12.334 156 29.001z" />
    <glyph glyph-name="sfthyphen" unicode="&#x2212;" horiz-adv-x="311" 
d="M374 495c-34.667 -77.333 -89.332 -116.001 -163.999 -116.001c-11.333 0 -27.5 0.833008 -48.5 2.5s-36.167 2.5 -45.5 2.5c-46.667 0 -80 -16.667 -100 -50h-18l63 132c113.333 0 165.666 0 156.999 0c69.333 2.66699 121.333 12.334 156 29.001z" />
    <glyph glyph-name="registered" unicode="&#xae;" horiz-adv-x="1648" 
d="M1700 895c0 -123.333 -48.001 -257.667 -144.001 -403c-91.333 -138.667 -204.666 -255 -339.999 -349c-142.667 -99.333 -276 -149 -400 -149c-157.333 0 -291 47 -401 141c-116 99.333 -174 226.333 -174 381c0 140.667 51 282 153 424
c94.667 132 216.5 241.333 365.5 328s293.167 130 432.5 130c149.333 0 271.333 -46.667 366 -140s142 -214.333 142 -363zM1600 886.999c0 143.333 -33.666 256.332 -100.999 338.999c-73.333 90.667 -180 136 -320 136c-208 0 -400.333 -86 -577 -258
s-265 -361.667 -265 -569c0 -229.333 86 -382.666 258 -459.999c71.333 -32 144.666 -48 219.999 -48c170 0 336.667 80.667 500 242c190 188 285 394 285 618zM1519 936.998c0 -46 -16.666 -82.334 -49.999 -109.001c-6.66699 -6 -39.334 -24.333 -98.001 -55
c-39.333 -20.667 -63.666 -44.667 -72.999 -72c-32 1.33301 -60.667 2 -86 2c-20.667 0 -40 -0.666992 -58 -2l-19 -46c8.66699 -10.667 38 -64 88 -160c42 -80 71.667 -120 89 -120c13.333 0 29.333 5.33301 48 16l10 -24c-32.667 -20.667 -82.334 -49.667 -149.001 -87
l-56 157c-23.333 63.333 -47 113.333 -71 150c-40.667 -84 -94 -153.667 -160 -209c-76 -64 -156 -96 -240 -96c-84.667 0 -153.667 25.833 -207 77.5s-80 119.834 -80 204.501c0 98.667 37 189 111 271c157.333 174.667 400 262 728 262c182 0 273 -53.333 273 -160z
M1432 925.997c0 94 -79.332 140.999 -237.999 140.999c-177.333 0 -332 -35.667 -464 -107c-162.667 -88 -244 -213 -244 -375c0 -76.667 24.667 -139.167 74 -187.5s112.333 -72.5 189 -72.5c114 0 214.333 104.667 301 314c-36.667 32.667 -76.667 49 -120 49
c-94.667 0 -150.667 -54 -168 -162c-15.333 16.667 -23 34 -23 52c0 44.667 33.333 81 100 109c53.333 22.667 106.333 34 159 34c28.667 0 55 -6 79 -18c32 96 48 152.333 48 169c0 24.667 -20 33.667 -60 27l-5 20c59.333 10.667 115.333 25 168 43
c-18.667 -78.667 -37.334 -144 -56.001 -196l45 -1c143.333 -3.33301 215 50.334 215 161.001z" />
    <glyph glyph-name="overscore" unicode="&#xaf;" horiz-adv-x="1898" 
d="M1979 1536c0 -17.333 -6.83203 -32.833 -20.499 -46.5s-28.834 -20.5 -45.501 -20.5c-32 0 -48 15.667 -48 47c0 18 7 33.667 21 47s30 20 48 20c30 0 45 -15.667 45 -47zM1771 1536c0 -17.333 -6.83203 -32.833 -20.499 -46.5s-28.834 -20.5 -45.501 -20.5
c-32 0 -48 15.667 -48 47c0 18 7 33.667 21 47s30 20 48 20c30 0 45 -15.667 45 -47zM2186 1365c-127.333 -398 -276.333 -704.333 -447 -919c-236 -296 -527 -444 -873 -444c-190 0 -349.333 51.667 -478 155c-138.667 112 -208 261 -208 447c0 138.667 45.667 250 137 334
c89.333 82 203.666 123 342.999 123c133.333 0 262 -42 386 -126c65.333 34.667 133 52 203 52c94.667 0 170.334 -33 227.001 -99c54 -62 81 -141.333 81 -238c0 -90 -32.667 -195 -98 -315c-141.333 199.333 -304.666 368.333 -489.999 507
c-92 -86 -138 -197.333 -138 -334c0 -56.667 8.66699 -117.667 26 -183c-60.667 44.667 -91 107 -91 187c0 124 57.333 241.333 172 352c-122.667 92 -238.667 138 -348 138c-104.667 0 -190.334 -34 -257.001 -102s-100 -154.333 -100 -259c0 -176 81.333 -314 244 -414
c138 -85.333 300.333 -128 487 -128c514 0 884 381 1110 1143h-703c-10 0 -24.833 0.333008 -44.5 1s-34.167 1 -43.5 1c-94 0 -155.667 -35.667 -185 -107l-37 8l87 220h1038zM1515 627c0 84.667 -27.668 158.001 -83.001 220.001c-57.333 64 -127.666 96 -210.999 96
c-42.667 0 -89 -10.333 -139 -31c134 -94.667 269.667 -235.334 407 -422.001c17.333 50 26 95.667 26 137z" />
    <glyph glyph-name="overscore" unicode="&#x2c9;" horiz-adv-x="1898" 
d="M1979 1536c0 -17.333 -6.83203 -32.833 -20.499 -46.5s-28.834 -20.5 -45.501 -20.5c-32 0 -48 15.667 -48 47c0 18 7 33.667 21 47s30 20 48 20c30 0 45 -15.667 45 -47zM1771 1536c0 -17.333 -6.83203 -32.833 -20.499 -46.5s-28.834 -20.5 -45.501 -20.5
c-32 0 -48 15.667 -48 47c0 18 7 33.667 21 47s30 20 48 20c30 0 45 -15.667 45 -47zM2186 1365c-127.333 -398 -276.333 -704.333 -447 -919c-236 -296 -527 -444 -873 -444c-190 0 -349.333 51.667 -478 155c-138.667 112 -208 261 -208 447c0 138.667 45.667 250 137 334
c89.333 82 203.666 123 342.999 123c133.333 0 262 -42 386 -126c65.333 34.667 133 52 203 52c94.667 0 170.334 -33 227.001 -99c54 -62 81 -141.333 81 -238c0 -90 -32.667 -195 -98 -315c-141.333 199.333 -304.666 368.333 -489.999 507
c-92 -86 -138 -197.333 -138 -334c0 -56.667 8.66699 -117.667 26 -183c-60.667 44.667 -91 107 -91 187c0 124 57.333 241.333 172 352c-122.667 92 -238.667 138 -348 138c-104.667 0 -190.334 -34 -257.001 -102s-100 -154.333 -100 -259c0 -176 81.333 -314 244 -414
c138 -85.333 300.333 -128 487 -128c514 0 884 381 1110 1143h-703c-10 0 -24.833 0.333008 -44.5 1s-34.167 1 -43.5 1c-94 0 -155.667 -35.667 -185 -107l-37 8l87 220h1038zM1515 627c0 84.667 -27.668 158.001 -83.001 220.001c-57.333 64 -127.666 96 -210.999 96
c-42.667 0 -89 -10.333 -139 -31c134 -94.667 269.667 -235.334 407 -422.001c17.333 50 26 95.667 26 137z" />
    <glyph glyph-name="degree" unicode="&#xb0;" horiz-adv-x="546" 
d="M798 1202c0 -56 -28.667 -114.667 -86 -176s-114 -92 -170 -92c-46.667 0 -86.167 14.667 -118.5 44s-48.5 67 -48.5 113c0 64 29.667 123.667 89 179s121.333 83 186 83c43.333 0 78.833 -14.333 106.5 -43s41.5 -64.667 41.5 -108zM731 1161
c0 88.667 -39.668 132.999 -119.001 132.999c-46 0 -86.833 -15.667 -122.5 -47s-53.5 -69.666 -53.5 -114.999c0 -38.667 11.833 -70.167 35.5 -94.5s54.834 -36.5 93.501 -36.5c46 0 85.167 15.333 117.5 46s48.5 68.667 48.5 114z" />
    <glyph glyph-name="plusminus" unicode="&#xb1;" 
d="M883 615l-23 -56h-313l-121 -314h-55l119 314h-314l23 56h313l120 314h56l-120 -314h315zM724 178l-23 -56h-684l23 56h684z" />
    <glyph glyph-name="twosuperior" unicode="&#xb2;" horiz-adv-x="1898" 
d="M1979 1536c0 -17.333 -6.83203 -32.833 -20.499 -46.5s-28.834 -20.5 -45.501 -20.5c-32 0 -48 15.667 -48 47c0 18 7 33.667 21 47s30 20 48 20c30 0 45 -15.667 45 -47zM2186 1365c-127.333 -398 -276.333 -704.333 -447 -919c-236 -296 -527 -444 -873 -444
c-190 0 -349.333 51.667 -478 155c-138.667 112 -208 261 -208 447c0 138.667 45.667 250 137 334c89.333 82 203.666 123 342.999 123c133.333 0 262 -42 386 -126c65.333 34.667 133 52 203 52c94.667 0 170.334 -33 227.001 -99c54 -62 81 -141.333 81 -238
c0 -90 -32.667 -195 -98 -315c-141.333 199.333 -304.666 368.333 -489.999 507c-92 -86 -138 -197.333 -138 -334c0 -56.667 8.66699 -117.667 26 -183c-60.667 44.667 -91 107 -91 187c0 124 57.333 241.333 172 352c-122.667 92 -238.667 138 -348 138
c-104.667 0 -190.334 -34 -257.001 -102s-100 -154.333 -100 -259c0 -176 81.333 -314 244 -414c138 -85.333 300.333 -128 487 -128c514 0 884 381 1110 1143h-703c-10 0 -24.833 0.333008 -44.5 1s-34.167 1 -43.5 1c-94 0 -155.667 -35.667 -185 -107l-37 8l87 220h1038z
M1515 627c0 84.667 -27.668 158.001 -83.001 220.001c-57.333 64 -127.666 96 -210.999 96c-42.667 0 -89 -10.333 -139 -31c134 -94.667 269.667 -235.334 407 -422.001c17.333 50 26 95.667 26 137z" />
    <glyph glyph-name="threesuperior" unicode="&#xb3;" horiz-adv-x="365" 
d="M522 1064c0 -17.333 -6.83203 -32.833 -20.499 -46.5s-28.834 -20.5 -45.501 -20.5c-32 0 -48 15.667 -48 47c0 18 7 33.667 21 47s30 20 48 20c30 0 45 -15.667 45 -47zM418.001 844c0 -68.667 -43.168 -197 -129.501 -385s-129.5 -295 -129.5 -321
c0 -18.667 10.667 -28 32 -28c12.667 0 35.334 7 68.001 21l13 -29c-55.333 -27.333 -139 -63 -251 -107c5.33301 93.333 49 230.666 131 411.999c80 176.667 120 277.334 120 302.001c0 20 -8.66699 30 -26 30c-15.333 0 -47 -9.66699 -95 -29l-10 32
c88.667 32 181 69.667 277 113v-11z" />
    <glyph glyph-name="acute" unicode="&#xb4;" horiz-adv-x="677" 
d="M689 450c-0.666992 -38 -4.00195 -69.6689 -10.002 -95.002c-94.667 -111.333 -166.334 -189.666 -215.001 -234.999c-104.667 -97.333 -192 -146 -262 -146c-46.667 0 -70 27 -70 81c0 62.667 43.667 183.834 131 363.501s131 278.5 131 296.5
c0 21.333 -7.66699 32 -23 32c-43.333 0 -112.333 -47.667 -207 -143c-65.333 -66 -124.666 -134 -177.999 -204c-2 24 -4.66699 43 -8 57l156 166c74.667 83.333 114 141 118 173c0.666992 7.33301 1 29.333 1 66c0.666992 88 20.334 132 59.001 132
c14.667 0 22 -12 22 -36c0 -12.667 -3.16699 -31 -9.5 -55s-9.5 -41.667 -9.5 -53l1 -2c6.66699 -21.333 21.334 -32 44.001 -32c16.667 0 42.167 7.5 76.5 22.5s57.833 22.5 70.5 22.5c32 0 48 -16.667 48 -50c0 -36 -49.667 -148.5 -149 -337.5s-149 -308.167 -149 -357.5
c0 -29.333 13.333 -44 40 -44c54 0 126.667 50.333 218 151c61.333 68 119.333 143.667 174 227z" />
    <glyph glyph-name="paragraph" unicode="&#xb6;" horiz-adv-x="819" 
d="M1217 1495c0 -10 -8.66797 -31.999 -26.001 -65.999c-51.333 4 -93.666 6 -126.999 6c-89.333 0 -187 -17.333 -293 -52c28 -15.333 42 -43.333 42 -84c0 -109.333 -78.333 -234.333 -235 -375c-104 -93.333 -182.667 -140 -236 -140c-60 0 -90 35 -90 105
c0 77.333 40 162.666 120 255.999c64 74.667 137.667 139 221 193c190 122.667 382.667 184 578 184c30.667 0 46 -9 46 -27zM972.999 1033c0 -148 -53 -285.667 -159 -413c-52 -62.667 -150.333 -151 -295 -265c-106 -84 -159 -147 -159 -189c0 -65.333 40.667 -98 122 -98
c25.333 0 52.333 8.66699 81 26c4 -13.333 6 -23.666 6 -30.999c0 -42 -31.333 -63 -94 -63c-64.667 0 -114 26.667 -148 80c-29.333 45.333 -44 102 -44 170c0 114 52.667 230 158 348l292 285c105.333 109.333 158 210.666 158 303.999c0 52 -17.667 115.667 -53 191l32 7
c68.667 -104 103 -221.333 103 -352zM923.999 1052c0 8.66699 -0.666992 22.332 -2 40.999c-22.667 -93.333 -87 -196 -193 -308l-271 -271c-91.333 -101.333 -137 -191.666 -137 -270.999c0 -9.33301 1 -21.666 3 -36.999c14.667 48 45 95.333 91 142
c14 14 57.333 51.333 130 112c252.667 211.333 379 408.666 379 591.999z" />
    <glyph glyph-name="middot" unicode="&#xb7;" horiz-adv-x="341" 
d="M265 440c0 -17.333 -6.83203 -32.833 -20.499 -46.5s-28.834 -20.5 -45.501 -20.5c-32 0 -48 15.667 -48 47c0 18 7 33.667 21 47s30 20 48 20c30 0 45 -15.667 45 -47z" />
    <glyph glyph-name="middot" unicode="&#x2219;" horiz-adv-x="341" 
d="M265 440c0 -17.333 -6.83203 -32.833 -20.499 -46.5s-28.834 -20.5 -45.501 -20.5c-32 0 -48 15.667 -48 47c0 18 7 33.667 21 47s30 20 48 20c30 0 45 -15.667 45 -47z" />
    <glyph glyph-name="cedilla" unicode="&#xb8;" horiz-adv-x="594" 
d="M723 1036c0 -17.333 -6.83203 -32.833 -20.499 -46.5s-28.834 -20.5 -45.501 -20.5c-32 0 -48 15.667 -48 47c0 18 7 33.667 21 47s30 20 48 20c30 0 45 -15.667 45 -47zM515.001 1036c0 -17.333 -6.83203 -32.833 -20.499 -46.5s-28.834 -20.5 -45.501 -20.5
c-32 0 -48 15.667 -48 47c0 18 7 33.667 21 47s30 20 48 20c30 0 45 -15.667 45 -47zM717.002 781c0 -63.333 -50.667 -129 -152 -197c-94.667 -64 -175 -96 -241 -96c-32 0 -54 17.333 -66 52c28.667 -4 51.334 -6 68.001 -6c58 0 115 16 171 48
c65.333 36.667 98 81.667 98 135c0 31.333 -20.667 47 -62 47c-82 0 -164 -53.667 -246 -161c-112.667 -147.333 -169 -290 -169 -428c0 -68 28.667 -102 86 -102c74.667 0 149 44.333 223 133c56 67.333 102.667 146 140 236c10 -17.333 15 -33.333 15 -48
c0 -76 -58.333 -163 -175 -261c-114 -96 -210.333 -144 -289 -144c-77.333 0 -116 44.333 -116 133c0 136.667 47 269.667 141 399c89.333 122.667 199 214 329 274c63.333 29.333 119.666 44 168.999 44c50.667 0 76 -19.333 76 -58z" />
    <glyph glyph-name="ordmasculine" unicode="&#xba;" horiz-adv-x="625" 
d="M-29 352c0 8 5.00098 17.332 15.001 27.999l56 1c80 190 215.667 330 407 420c62.667 29.333 118.667 44 168 44c52 0 78 -25.333 78 -76c0 -56.667 -38.667 -127 -116 -211c-15.333 2 -22 14.333 -20 37c20 34.667 30 70.334 30 107.001c0 48 -24 72 -72 72
c-77.333 0 -155 -46.333 -233 -139c-61.333 -73.333 -109.333 -155.666 -144 -246.999c121.333 14 238 48.667 350 104c15.333 -4 23 -9.66699 23 -17c0 -25.333 -58 -54.333 -174 -87c-88.667 -24.667 -160.334 -40.334 -215.001 -47.001
c-18 -56.667 -27 -108.667 -27 -156c0 -75.333 34 -113 102 -113c124 0 205.333 89.333 244 268c16 -23.333 24 -43.666 24 -60.999c0 -60.667 -28.667 -118.667 -86 -174c-52 -50 -109.333 -82.333 -172 -97c-23.333 -5.33301 -55.333 -8 -96 -8
c-86.667 0 -130 45.333 -130 136c0 55.333 13.333 120.333 40 195l-32 -1c-13.333 5.33301 -20 12.666 -20 21.999z" />
    <glyph glyph-name="guillemotright" unicode="&#xbb;" horiz-adv-x="886" 
d="M864 386c-52 -32.667 -128.332 -85.666 -228.999 -158.999c-68 -56.667 -141 -124 -219 -202c-30.667 -6 -76 -15.667 -136 -29c40 55.333 103.667 112 191 170l215 140c26.667 20 40 41.333 40 64c0 20 -29.667 83.333 -89 190c-64 115.333 -101 191.666 -111 228.999
c36.667 18 72.667 38 108 60c45.333 -108 79.666 -187.333 102.999 -238c42 -87.333 84.333 -162.333 127 -225zM559.001 384.001c-200.667 -125.333 -347.999 -246.667 -441.999 -364c-28 -4 -68.667 -11.667 -122 -23c73.333 86 191.666 183.333 354.999 292
c46 30.667 69 57.667 69 81c0 22 -17.333 61.333 -52 118c-72 117.333 -121 215 -147 293l105 63c47.333 -126 125.333 -279.333 234 -460z" />
    <glyph glyph-name="questiondown" unicode="&#xbf;" horiz-adv-x="365" 
d="M593 1036c0 -17.333 -6.83203 -32.833 -20.499 -46.5s-28.834 -20.5 -45.501 -20.5c-32 0 -48 15.667 -48 47c0 18 7 33.667 21 47s30 20 48 20c30 0 45 -15.667 45 -47zM385.001 1036c0 -17.333 -6.83203 -32.833 -20.499 -46.5s-28.834 -20.5 -45.501 -20.5
c-32 0 -48 15.667 -48 47c0 18 7 33.667 21 47s30 20 48 20c30 0 45 -15.667 45 -47zM418.002 844c0 -68.667 -43.168 -197 -129.501 -385s-129.5 -295 -129.5 -321c0 -18.667 10.667 -28 32 -28c12.667 0 35.334 7 68.001 21l13 -29c-55.333 -27.333 -139 -63 -251 -107
c5.33301 93.333 49 230.666 131 411.999c80 176.667 120 277.334 120 302.001c0 20 -8.66699 30 -26 30c-15.333 0 -47 -9.66699 -95 -29l-10 32c88.667 32 181 69.667 277 113v-11z" />
    <glyph glyph-name="Agrave" unicode="&#xc0;" horiz-adv-x="1683" 
d="M1670 198c-65.333 -70 -128.331 -142.002 -188.998 -216.002c-78 160.667 -145 336.334 -201 527.001c-64.667 218.667 -97 402.334 -97 551.001c0 55.333 5 127 15 215c-60.667 -61.333 -137.334 -150.333 -230.001 -267c-107.333 -134 -182 -224.667 -224 -272
c36.667 2.66699 77.667 4 123 4c110.667 0 221.334 -2.33301 332.001 -7c-22 -58 -45.333 -140.667 -70 -248h-38c9.33301 35.333 14 63.666 14 84.999c0 30 -18 49 -54 57c-12 2.66699 -89 4 -231 4c-43.333 0 -102 -1.33301 -176 -4
c-220.667 -215.333 -409.667 -375.333 -567 -480c47.333 4 98.666 6 153.999 6c118.667 0 277.334 -11 476.001 -33c54 -6 100.333 -9 139 -9c209.333 0 328.666 104.667 357.999 314c24.667 -14 37 -33.667 37 -59c0 -63.333 -46.667 -136 -140 -218
c-113.333 -99.333 -234.666 -149 -363.999 -149c-70.667 0 -178.334 7.33301 -323.001 22s-253.667 22 -327 22c-12 0 -91 -1.66699 -237 -5l63 101c199.333 70.667 406.666 213.334 621.999 428.001c108 108.667 275.333 303.667 502 585l139 172
c54 64.667 104 118.334 150 161.001l28 -26c-45.333 -50 -68 -118.333 -68 -205c0 -230.667 50.667 -504.334 152 -821.001c56 -176 100.333 -264 133 -264c16 0 40.667 17.667 74 53z" />
    <glyph glyph-name="Aacute" unicode="&#xc1;" horiz-adv-x="1570" 
d="M1875 1325c-35.333 -36 -64.667 -74.332 -88 -114.999l-61 -8c-20 -9.33301 -71.667 -14 -155 -14c-126 0 -207 9.66699 -243 29c-28 4 -52.333 6 -73 6c-91.333 0 -176.666 -26.667 -255.999 -80c-74 -50 -135 -117 -183 -201c92.667 34 178 51 256 51
c120.667 0 213.334 -38.667 278.001 -116c60.667 -72 91 -169.333 91 -292c0 -29.333 -1.33301 -57 -4 -83c-13.333 -128 -84.333 -250.667 -213 -368s-257.334 -176 -386.001 -176c-104 0 -189 31.667 -255 95c-68 64 -102 147.667 -102 251
c0 127.333 54.333 297.666 163 510.999c-260 -151.333 -390 -333.333 -390 -546c0 -58 8.66699 -121.667 26 -191c-70 46 -105 122.333 -105 229c0 120 56.667 235.667 170 347c85.333 84.667 195.333 160 330 226c53.333 99.333 121.666 179.333 204.999 240
c72.667 52.667 168.667 99 288 139c-102 32.667 -204 49 -306 49c-53.333 0 -127 -3.66699 -221 -11c-104.667 -8.66699 -178 -13.667 -220 -15c-94.667 -2.66699 -174.667 -38.667 -240 -108c-60 -62.667 -99 -143 -117 -241c-20 16 -30 39 -30 69
c0 95.333 112 211 336 347c28 17.333 64.667 35.333 110 54c117.333 7.33301 243 11 377 11c178.667 0 318.667 -20.667 420 -62c90 -36.667 209.333 -55 358 -55c85.333 0 165.333 9.33301 240 28zM1388 533.001c0 107.333 -40.333 196.999 -121 268.999
c-78 70 -171.333 105 -280 105c-76 0 -154.333 -18.667 -235 -56c-107.333 -193.333 -161 -354.333 -161 -483c0 -99.333 32 -176.666 96 -231.999c60.667 -52.667 141.667 -79 243 -79c117.333 0 223 49.833 317 149.5s141 208.5 141 326.5z" />
    <glyph glyph-name="Acircumflex" unicode="&#xc2;" horiz-adv-x="2537" 
d="M2497 1104c0 -154.667 -72.665 -265.666 -217.998 -332.999c-54.667 -25.333 -91.334 -38 -110 -38c-42 0 -106 64.333 -192 193c-73.333 -100.667 -151.666 -198 -234.999 -292c37.333 4.66699 109.333 20 216 46c90 22.667 162.667 34 218 34
c88 0 161.667 -24.667 221 -74c63.333 -52.667 95 -122.334 95 -209.001c0 -124.667 -52.667 -230.667 -158 -318c-100 -82.667 -213.667 -124 -341 -124c-106 0 -208.667 36.333 -308 109c-63.333 46 -142.666 123.667 -237.999 233
c-122 -107.333 -229.333 -186.666 -322 -237.999c-128.667 -70.667 -256 -106 -382 -106c-166 0 -304.333 52.5 -415 157.5s-166 240.167 -166 405.5c0 153.333 54 282.333 162 387s239.333 157 394 157c125.333 0 247.666 -53.333 366.999 -160
c44.667 -40.667 135.667 -144 273 -310l154 -181c20 18 48.333 46 85 84c-96.667 61.333 -145 150 -145 266c0 69.333 35.333 103.666 106 102.999c-43.333 -48.667 -65 -94.667 -65 -138c0 -41.333 18 -74 54 -98c31.333 -21.333 68.666 -32 111.999 -32
c4.66699 0 15 0.666992 31 2c120 139.333 244.667 299.666 374 480.999l35 -11c-12.667 -22 -19 -48.333 -19 -79c0 -45.333 19 -89.166 57 -131.499s79.333 -63.5 124 -63.5c50 0 90.333 22.333 121 67c27.333 39.333 41 85.333 41 138c0 167.333 -115 251 -345 251
c-116.667 0 -292.834 -16.333 -528.501 -49s-410.834 -49 -525.501 -49c-66 0 -114.667 11 -146 33c26.667 88 48 166.667 64 236l37 -8c-6.66699 -29.333 -10 -53.333 -10 -72c0 -44 45.333 -66 136 -66c54.667 0 165.667 11 333 33c324 42.667 544.667 64 662 64
c112 0 202.667 -21.333 272 -64c83.333 -52 125 -130.667 125 -236zM2429 385.001c0 66 -22 118.999 -66 158.999c-42.667 38 -97.334 57 -164.001 57c-57.333 0 -142 -14.667 -254 -44s-196.667 -44 -254 -44c-17.333 0 -34.666 1.66699 -51.999 5l-101 -105
c213.333 -240 389.333 -360 528 -360c96.667 0 180.334 31 251 93c74.667 64.667 112 144.334 112 239.001zM1422 358l-221.999 272.001c-100.667 121.333 -190.334 212.666 -269.001 273.999c-106.667 83.333 -208 125 -304 125c-118 0 -215 -44.667 -291 -134
c-72 -84 -108 -186 -108 -306c0 -152.667 62 -280.667 186 -384c116.667 -97.333 252.667 -146 408 -146c185.333 0 385.333 99.667 600 299z" />
    <glyph glyph-name="Atilde" unicode="&#xc3;" horiz-adv-x="2160" 
d="M2207 1362c0 -16.667 -6.66211 -35.3311 -19.9951 -55.998c-62.667 -98.667 -184.667 -148 -366 -148c-0.666992 0 -37.334 5.33301 -110.001 16l-272 41c-69.333 -277.333 -114.333 -447.333 -135 -510c-59.333 -178.667 -134 -320.667 -224 -426
c-110 -128.667 -256.333 -221.667 -439 -279c-68 -21.333 -137.667 -32 -209 -32c-140.667 0 -255.334 38.667 -344.001 116c-94 82 -141 192 -141 330c0 120 38.667 215.333 116 286c74.667 68.667 172.667 103 294 103c116.667 0 232.667 -42.667 348 -128
c66 -48 157.333 -135 274 -261c45.333 71.333 77.666 186.666 96.999 345.999c20.667 172 46.667 290.667 78 356c-17.333 8.66699 -39 13 -65 13c-73.333 0 -188.333 -35 -345 -105s-264.334 -105 -323.001 -105c-78 0 -143.333 24 -196 72
c-54.667 49.333 -82 112.666 -82 189.999c0 61.333 22 120 66 176c39.333 50 120.666 75 243.999 75c124.667 0 279.334 -17.333 464.001 -52l459 -96c52.667 58.667 111 106.667 175 144l14 -33c-34.667 -19.333 -71.334 -62.333 -110.001 -129
c190 -39.333 323.333 -59 400 -59c172 0 286 66.667 342 200c6.66699 -16 10 -31 10 -45zM1341 1230c-372 54 -646.668 81.002 -824.001 81.002c-127.333 0 -204.666 -14 -231.999 -42c-46 -47.333 -69 -94.333 -69 -141c0 -48.667 22.333 -88.334 67 -119.001
c40 -28 85.333 -42 136 -42c32 0 169.667 45 413 135c146 54 265.333 81 358 81c24.667 0 49 -1.33301 73 -4c-35.333 -78 -77.333 -228 -126 -450c-42 -193.333 -94.667 -339.333 -158 -438c-236 293.333 -450.667 440 -644 440c-84.667 0 -161.667 -27 -231 -81
c-75.333 -58.667 -113 -129 -113 -211c0 -84.667 43 -168 129 -250c96 -92 221 -138 375 -138c222 0 391 73.333 507 220c86 108 157.333 283.333 214 526l52 222c26 97.333 50.333 167.666 73 210.999z" />
    <glyph glyph-name="Adieresis" unicode="&#xc4;" horiz-adv-x="1996" 
d="M1940 855c0 -134 -43.3271 -284.33 -129.994 -450.997c-66.667 -128 -181.334 -233.333 -344.001 -316c-140.667 -71.333 -268.667 -107 -384 -107c-38 0 -95.333 -1 -172 -3s-134 -3 -172 -3c-208.667 0 -386.334 24.667 -533.001 74
c-96.667 32.667 -180.667 49 -252 49c-35.333 0 -74 -5.33301 -116 -16c31.333 37.333 56.666 77 75.999 119c17.333 5.33301 37.333 8 60 8c27.333 0 67.666 -4.16699 120.999 -12.5s93.333 -12.5 120 -12.5c102.667 0 195.667 37.333 279 112
c-232.667 48 -385.667 179.667 -459 395c-11.333 33.333 -17 67.666 -17 102.999c0 146 88 282 264 408c172 122.667 361 191 567 205c14.667 1.33301 43 2.66602 85 3.99902c5.33301 16.667 27.666 42.667 66.999 78l33 1l21 -1
c-14.667 -31.333 -25.334 -56.333 -32.001 -75l1 -2c246 2.66699 445.333 -29.333 598 -96c212.667 -92.667 319 -246.334 319 -461.001zM1830.01 746.003c0 193.333 -69.0029 344.332 -207.003 452.999c-125.333 98.667 -287.333 148 -486 148
c-42.667 0 -87 -2.33301 -133 -7c-9.33301 -13.333 -18.666 -36 -27.999 -68l-121 -425c-48 -160 -75.333 -249 -82 -267c-37.333 -101.333 -82.666 -181.666 -135.999 -240.999c32 -4.66699 66 -7 102 -7c170.667 0 372 50.667 604 152c66 28.667 118.667 83 158 163
c36 72 54 147.333 54 226c0 125.333 -47 212.333 -141 261c178 -30.667 267 -110.667 267 -240c0 -74 -32.5 -159.667 -97.5 -257s-131.833 -163.666 -200.5 -198.999c-214 -109.333 -434.667 -164 -662 -164c-50 0 -99.667 3 -149 9
c-80.667 -58.667 -170 -104.334 -268 -137.001c114 -38.667 237.333 -58 370 -58c50.667 0 126.167 3.16699 226.5 9.5s175.833 9.5 226.5 9.5c90.667 0 200.334 27.833 329.001 83.5s222.667 126.167 282 211.5c61.333 89.333 92 204 92 344zM900.003 1340
c-10.667 1.33301 -22.668 2 -36.001 2c-146 0 -303.333 -47 -472 -141c-190.667 -106.667 -286 -226.334 -286 -359.001c0 -46 12.333 -92.667 37 -140c90.667 -175.333 227.334 -289.666 410.001 -342.999c56.667 75.333 118 222 184 440l136 483
c7.33301 24 16.333 43.333 27 58z" />
    <glyph glyph-name="Aring" unicode="&#xc5;" horiz-adv-x="1800" 
d="M1909 1432c-18 -52.667 -45.6699 -139.335 -83.0029 -260.002h-37c11.333 42 17 72.333 17 91c0 32.667 -34 49 -102 49c-65.333 0 -163.333 -0.333008 -294 -1s-228.667 -1 -294 -1c-22 -88.667 -61.667 -229 -119 -421h718l-44 -118h-709
c-54.667 -178.667 -97 -293 -127 -343c-55.333 -92.667 -147.666 -170.667 -276.999 -234c-51.333 -24.667 -93.666 -42.667 -126.999 -54c114 -38.667 267.667 -58 461 -58c64 0 160 3.16699 288 9.5s224 9.5 288 9.5c94 0 170.667 37.333 230 112
c52.667 66.667 82.334 149.334 89.001 248.001c26 -19.333 39 -49 39 -89c0 -46 -24 -98 -72 -156c-38 -46.667 -81.667 -86.667 -131 -120c-119.333 -80.667 -186.333 -121 -201 -121c-46.667 0 -116.167 -1 -208.5 -3s-161.833 -3 -208.5 -3
c-302 0 -526.333 24.667 -673 74c-97.333 32.667 -181.333 49 -252 49c-35.333 0 -74 -5.33301 -116 -16c31.333 37.333 56.666 77 75.999 119c18 5.33301 38 8 60 8c27.333 0 67.666 -4.16699 120.999 -12.5s93.333 -12.5 120 -12.5c86 0 165.833 26.833 239.5 80.5
s133.167 131.167 178.5 232.5c16 36 48 129.333 96 280h-187c1.33301 -11.333 2 -22.666 2 -33.999c0 -80.667 -27.333 -134.334 -82 -161.001c-70.667 -34.667 -144.667 -52 -222 -52c-78 0 -150.5 35.333 -217.5 106s-100.5 145 -100.5 223
c0 57.333 12.833 115.5 38.5 174.5s59.334 106.333 101.001 142s74.834 62.5 99.501 80.5c114 84.667 297.667 138.334 551 161.001c100 9.33301 296.333 14 589 14c160.667 0 304 1.66699 430 5zM1013 1309c-63.333 -0.666992 -127.001 -1.66699 -191.001 -3
c-74 -2 -137 -7.66699 -189 -17c-361.333 -64.667 -542 -208.667 -542 -432c0 -82 26.667 -147.333 80 -196c51.333 -47.333 118.333 -71 201 -71c56.667 0 109.334 12 158.001 36c60 29.333 90 69.333 90 120c0 40 -25 87 -75 141l4 -1l-2 3h346
c56 180.667 96 320.667 120 420z" />
    <glyph glyph-name="AE" unicode="&#xc6;" horiz-adv-x="2816" 
d="M2869 1269c0 -100 -54.333 -195.334 -163 -286.001c-90.667 -75.333 -192.334 -128 -305 -158c-92 -24.667 -206.667 -37 -344 -37c-66.667 0 -131 2 -193 6c-40 -126 -60 -246 -60 -360c0 -242 110 -363 330 -363c125.333 0 225.5 37.833 300.5 113.5
s113.167 176.167 114.5 301.5c24 -26.667 36 -54.334 36 -83.001c0 -104 -56.667 -202.667 -170 -296c-108 -90 -215.333 -135 -322 -135c-129.333 0 -228.833 36 -298.5 108s-104.5 172.667 -104.5 302c0 119.333 28.667 259 86 419l-116 5l-230 -612
c-57.333 -152.667 -216 -248.667 -476 -288l-30 50c204 2.66699 344 96 420 280c57.333 138.667 130.333 330 219 574l-119 5c-36 -98 -105 -221.333 -207 -370c-104 -152 -204.667 -263 -302 -333c-122.667 -88 -264 -132 -424 -132c-148 0 -267.667 38.333 -359 115
c-97.333 81.333 -146 194.666 -146 339.999c0 114.667 38.833 210.167 116.5 286.5s174.167 114.5 289.5 114.5c92 0 186.333 -26.333 283 -79c56 -30.667 125.667 -80 209 -148c66 -52.667 107.333 -79 124 -79l11 1c13.333 44.667 20 85.334 20 122.001
c0 134.667 -67 213 -201 235c10 22.667 23.667 57.334 41 104.001c171.333 -30.667 332.333 -51 483 -61c43.333 133.333 65 239 65 317c0 22.667 -10.333 34 -31 34c-20 0 -49 -8.33301 -87 -25l-12 31l265 110c-17.333 -162 -51 -321.333 -101 -478l122 -5
c90 233.333 135 355 135 365c0 20 -10 28.667 -30 26l18 46l237 83l-14 -48c-42 4 -75 -21.667 -99 -77c-10.667 -25.333 -61 -158.666 -151 -399.999l119 -5c73.333 159.333 180 287.333 320 384c146 100 304.667 150 476 150c66 0 122 -11.667 168 -35
c58 -30 87 -75 87 -135zM2793 1202c0 60.667 -28.6689 107.001 -86.002 139.001c-46.667 26 -103 39 -169 39c-155.333 0 -286.666 -45.333 -393.999 -136c-88.667 -75.333 -169 -191 -241 -347c60.667 -5.33301 131.334 -8 212.001 -8c121.333 0 215 4.66699 281 14
c104 15.333 191.667 45.666 263 90.999c89.333 56.667 134 126 134 208zM1349 825l-324.001 36.001c46.667 -48.667 70 -114 70 -196c0 -76.667 -16.667 -179.334 -50 -308.001l-314 278c-132 102.667 -257 154 -375 154c-83.333 0 -153.666 -29.167 -210.999 -87.5
s-86 -129.166 -86 -212.499c0 -136.667 54.333 -246.334 163 -329.001c98.667 -75.333 218.667 -113 360 -113c212 0 391 109 537 327c99.333 148.667 176 299 230 451z" />
    <glyph glyph-name="Ccedilla" unicode="&#xc7;" horiz-adv-x="1472" 
d="M1476 523c0 -174.667 -97.6689 -312.668 -293.002 -414.001c-160 -82.667 -337 -124 -531 -124c-167.333 0 -307.666 32.333 -420.999 97c-139.333 80 -209 197.333 -209 352c0 126.667 45.333 230 136 310c86.667 76.667 194 115 322 115
c208.667 0 431.334 -130.667 668.001 -392c-11.333 -46.667 -25 -93.667 -41 -141c-96.667 124 -197 227.333 -301 310c-140 112 -268 168 -384 168c-84.667 0 -160.667 -30 -228 -90c-70 -62 -105 -134.667 -105 -218c0 -138.667 75 -249 225 -331
c124 -67.333 261.667 -101 413 -101c131.333 0 250.333 29.667 357 89c116 65.333 197 155.666 243 270.999c21.333 54.667 32 103.334 32 146.001c0 12 -1.33301 22 -4 30c-24.667 76.667 -72.334 143.334 -143.001 200.001c-73.333 59.333 -149 89 -227 89
c-34 0 -65 -6.66699 -93 -20l-39 38c20.667 4.66699 172 139.334 454 404.001c-14 -4 -79 -6 -195 -6c-55.333 0 -138 1.66699 -248 5s-192.667 5 -248 5c-48 0 -93.333 -9 -136 -27c-56 -22.667 -84 -54.667 -84 -96c0 -32.667 33.833 -66.334 101.5 -101.001
s101.5 -62.667 101.5 -84c0 -32.667 -24.667 -62.667 -74 -90c-44 -24 -84 -36 -120 -36c-72 0 -108 22 -108 66l3 11c40.667 -30.667 82.667 -46 126 -46c61.333 0 92 16 92 48c0 18 -31.667 42.833 -95 74.5s-95 70.167 -95 115.5c0 77.333 42 144.333 126 201
c56.667 38 146.334 57 269.001 57c15.333 -6.66699 119 -10 311 -10s297.667 3 317 9l37 -93l-409 -373l37 1c214.667 6 360.667 -91.667 438 -293c14.667 -38 22 -80 22 -126z" />
    <glyph glyph-name="Egrave" unicode="&#xc8;" horiz-adv-x="2529" 
d="M2523 1284c0 -214 -203.668 -497.329 -611.001 -849.996c-36 -110 -80 -210.667 -132 -302c17.333 1.33301 28.333 2 33 2c36 0 90.167 -2 162.5 -6s126.833 -6 163.499 -6c106.667 0 191.334 45.333 254 136c56 80 84 175.667 84 287c0 14.667 -0.666992 29 -2 43
c31.333 -25.333 47 -61.666 47 -108.999c0 -113.333 -54.333 -218.333 -163 -315c-106 -94.667 -216.333 -142 -331 -142c-40.667 0 -101.667 4.83301 -183 14.5s-142 14.5 -182 14.5c24.667 57.333 56.334 144.666 95.001 261.999
c-291.333 -206 -506.666 -309 -645.999 -309c-44 0 -80.333 10.667 -109 32c-32.667 24 -49 57.333 -49 100c0 56 22.667 143.667 68 263l108 262c120 301.333 180 486.666 180 555.999c0 62 -63.667 93 -191 93c-230.667 0 -425 -61 -583 -183
c-172.667 -132.667 -259 -311.334 -259 -536.001c0 -47.333 7.66699 -110 23 -188c-68 57.333 -102 144 -102 260c0 228 128.667 410.667 386 548c192 102.667 427.333 154 706 154c79.333 0 148.333 -2.66699 207 -8c-39.333 -178 -123.333 -425 -252 -741l-96 -230
c-42.667 -108.667 -64 -183.334 -64 -224.001c0 -63.333 34.333 -95 103 -95c61.333 0 163.333 40.667 306 122c112.667 64.667 208.667 128 288 190l101 357c42.667 149.333 88 267.666 136 354.999c66 119.333 149 208.333 249 267c60.667 35.333 112.667 53 156 53
c66 0 99 -42.333 99 -127zM2425 1258c0 62.667 -20.667 93.999 -62 93.999c-86.667 0 -178 -121.667 -274 -365c-35.333 -91.333 -86.333 -251.333 -153 -480c119.333 94.667 225.333 206.334 318 335.001c114 158 171 296.667 171 416z" />
    <glyph glyph-name="Eacute" unicode="&#xc9;" horiz-adv-x="2190" 
d="M1801 1699c-82.667 -104 -171.666 -156 -266.999 -156c-110.667 0 -197 50 -259 150l67 75c56 -86.667 131 -130 225 -130c63.333 0 135.666 26.333 216.999 79zM2201 445c0 -68.667 -35.3311 -148.667 -105.998 -240c-120.667 -156 -265.334 -234 -434.001 -234
c-40.667 0 -101.5 4.83301 -182.5 14.5s-141.5 14.5 -181.5 14.5c25.333 60 58.333 151.333 99 274c-307.333 -216 -531.333 -324 -672 -324c-110 0 -165 51.333 -165 154c0 107.333 63.667 297.833 191 571.5s191 459.167 191 556.5c0 84 -55 126 -165 126
c-12 0 -24 -0.666992 -36 -2c-234 -26.667 -407.667 -136.667 -521 -330c-94.667 -160.667 -142 -368 -142 -622c-70.667 59.333 -106 144.333 -106 255c0 148.667 50.667 288 152 418c95.333 122 215 212.667 359 272c112 46 246 69 402 69c70 0 154 -4.33301 252 -13
c-36.667 -164.667 -99.667 -363.667 -189 -597l-229 -576c-16.667 -42.667 -25 -82 -25 -118c0 -59.333 30.333 -89 91 -89c72 0 182 40 330 120c121.333 66 223.666 132 306.999 198l122 414c130.667 443.333 314 665 550 665c68.667 0 103 -44 103 -132
c0 -142.667 -77.667 -306.667 -233 -492c-90 -108 -225.333 -240.667 -406 -398c-38 -115.333 -84 -220.333 -138 -315c18 1.33301 37.333 2 58 2c28.667 0 71.667 -2 129 -6s100.333 -6 129 -6c131.333 0 234 40.333 308 121c70.667 76 106 177.667 106 305
c0 20 -1 40.333 -3 61c36.667 -30 55 -69 55 -117zM2103 1239c0 30 -7.33301 58.668 -22 86.001c-17.333 33.333 -39.333 50 -66 50c-70 0 -156.667 -129.333 -260 -388c-62 -155.333 -119.333 -325.333 -172 -510c105.333 84 213.333 200.667 324 350
c130.667 175.333 196 312.666 196 411.999z" />
    <glyph glyph-name="Ecircumflex" unicode="&#xca;" horiz-adv-x="2546" 
d="M2594 1371l-754.999 -740.999l395 -384c68.667 -66.667 116.667 -100 144 -100c26 0 69.667 30.667 131 92l27 -24c-34 -40 -108.667 -113.333 -224 -220l-563 550c-192 -189.333 -322.667 -309 -392 -359c-161.333 -117.333 -324.666 -176 -489.999 -176
c-186.667 0 -340.5 62.667 -461.5 188s-181.5 281.666 -181.5 468.999c0 180 62 323.667 186 431c117.333 102 267.666 153 450.999 153c227.333 0 464.333 -120.667 711 -362c55.333 169.333 83 281.333 83 336c0 23.333 -11 35 -33 35c-18 0 -54 -11 -108 -33l-15 33
c62.667 27.333 170.667 81.666 324 162.999c-44 -172 -70.333 -272.667 -79 -302c-33.333 -115.333 -68.666 -212.666 -105.999 -291.999l175 -171c75.333 70 270.666 267.667 585.999 593c-37.333 2 -110.333 3 -219 3c-49.333 0 -84.333 -14.667 -105 -44
c-8.66699 -12.667 -23.667 -50 -45 -112h-43c35.333 98 64.333 189.333 86.999 274c238 -4 411.333 -4 520 0zM1723 570.001l-149.002 145.999c-52 -97.333 -115 -179 -189 -245c-90.667 -80 -182.667 -120 -276 -120c-41.333 0 -77.666 9 -108.999 27
c-38 21.333 -57 51 -57 89c0 21.333 8 47.333 24 78c14 -90.667 72.333 -136 175 -136c158 0 286.333 118.333 385 355c-139.333 134.667 -249.666 229.667 -330.999 285c-138.667 93.333 -273 140 -403 140c-148 0 -271 -43.667 -369 -131
c-101.333 -91.333 -152 -210 -152 -356c0 -173.333 69.333 -318 208 -434c130.667 -109.333 284.667 -164 462 -164c150 0 295 49.667 435 149c68 48.667 183.333 154.334 346 317.001z" />
    <glyph glyph-name="Edieresis" unicode="&#xcb;" horiz-adv-x="2357" 
d="M2352 132c-64 -69.333 -125.666 -139.668 -184.999 -211.001c-105.333 216.667 -158 474.667 -158 774c0 130.667 10 284.667 30 462c-41.333 -42.667 -134.333 -157.667 -279 -345l-1 2l-305 -370c-124 -139.333 -242.667 -243.333 -356 -312
c-144 -87.333 -296 -131 -456 -131c-176.667 0 -324 52 -442 156c-124 109.333 -186 251 -186 425c0 167.333 58.333 301.333 175 402c110.667 94.667 251 142 421 142c110 0 219.667 -29.333 329 -88c56.667 -30.667 136 -85.667 238 -165
c75.333 -58.667 127.333 -88 156 -88c27.333 0 72.333 17.333 135 52l20 -30l-259 -143c-124.667 116.667 -227.667 202.334 -309 257.001c-134.667 89.333 -257.334 134 -368.001 134c-124.667 0 -233.667 -35 -327 -105c-101.333 -76.667 -152 -175.334 -152 -296.001
c0 -105.333 38.333 -216.333 115 -333c114 -174 261 -261 441 -261c144 0 304.333 56.333 481 169c143.333 91.333 298.333 232 465 422c46.667 52.667 179 216.334 397 491.001c80.667 101.333 156.667 185.333 228 252l27 -25c-68.667 -78 -103 -254.667 -103 -530
c0 -118 9.33301 -255.333 28 -412c26 -215.333 60.333 -323 103 -323c16 0 40.333 17.333 73 52z" />
    <glyph glyph-name="Igrave" unicode="&#xcc;" horiz-adv-x="2533" 
d="M3047 1402l-80.998 -270.001l-37 6c8 29.333 12 50.666 12 63.999c0 34.667 -28.333 52 -85 52c-90.667 0 -176.667 -56.667 -258 -170c-49.333 -68.667 -91 -166 -125 -292c-16.667 -62 -38.334 -167 -65 -315c-32 -176.667 -48 -286.667 -48 -330c0 -34 15 -51 45 -51
c24 0 56.667 9.66699 98 29l18 -32c-69.333 -25.333 -172.333 -66.666 -309 -123.999c6 186 54 462.333 144 829l-650 -808l-26 18c24 46 36 92.333 36 139c0 72 -10.333 157.667 -31 257l-59 253c-138.667 -186 -285.334 -337 -440.001 -453
c-197.333 -148 -389 -222 -575 -222c-175.333 0 -323 52.667 -443 158c-125.333 110 -188 251.333 -188 424c0 168.667 58.333 302.667 175 402c110 93.333 251 140 423 140c113.333 0 224.666 -29.667 333.999 -89c60 -32 138.333 -87 235 -165
c74 -59.333 123.667 -89 149 -89c27.333 0 74 18.333 140 55l21 -31l-260 -142c-276.667 258.667 -518.334 388 -725.001 388c-126 0 -228 -36.667 -306 -110c-79.333 -75.333 -119 -175.666 -119 -300.999c0 -170 63.667 -304 191 -402c116 -89.333 261.333 -134 436 -134
c334.667 0 649 207.667 943 623c-13.333 74.667 -20 136.667 -20 186c0 154 36.667 294 110 420c48.667 83.333 94.334 125 137.001 125c54.667 0 82 -47.333 82 -142c0 -113.333 -70.667 -283.666 -212 -510.999l68 -287c26.667 -114.667 44 -211.667 52 -291l580 718
c130.667 161.333 220.667 264.666 270 309.999c118.667 108 239.667 163 363 165zM1843 1256c0 51.333 -17.667 77 -53 77c-36 0 -63 -40.333 -81 -121c-12.667 -56 -19 -113.333 -19 -172c0 -50 5.66699 -113 17 -189c90.667 158.667 136 293.667 136 405z" />
    <glyph glyph-name="Iacute" unicode="&#xcd;" horiz-adv-x="2927" 
d="M3214 1356c0 -66 -30.0039 -137.67 -90.0039 -215.003c-149.333 -192.667 -402.666 -289 -760 -289c-70 0 -137.333 2.33301 -202 7c-42 -132 -63 -258 -63 -378c0 -253.333 115 -380 345 -380c130.667 0 235.5 39.833 314.5 119.5s119.167 184.834 120.5 315.501
c25.333 -27.333 38 -56.333 38 -87c0 -112 -58.667 -216.333 -176 -313c-112 -92.667 -225.333 -139 -340 -139c-135.333 0 -239.5 37.833 -312.5 113.5s-109.5 181.167 -109.5 316.5c0 124.667 30 271 90 439l-179 15c-88 -237.333 -228 -440 -420 -608
c-211.333 -184 -434.666 -276 -669.999 -276c-171.333 0 -316.666 52 -435.999 156c-124.667 109.333 -187 248.333 -187 417c0 146.667 49.667 266.667 149 360c97.333 90.667 220 136 368 136c138.667 0 283.334 -52 434.001 -156
c126.667 -86.667 239.334 -195.667 338.001 -327c14 47.333 21 90 21 128c0 140.667 -70.333 222.667 -211 246c11.333 24.667 25.666 61 42.999 109c181.333 -32 350 -53.333 506 -64c38 116 57 202.667 57 260c0 23.333 -11 35 -33 35
c-21.333 0 -51.666 -8.66699 -90.999 -26l-12 32l277 116c-14 -134 -45.333 -276.667 -94 -428l184 -16c76.667 164.667 189 298.334 337 401.001c154 106 319.667 159 497 159c70 0 128.667 -12.333 176 -37c60.667 -31.333 91 -78.666 91 -141.999zM3135 1286
c0 64 -30 112.667 -90 146c-48.667 27.333 -107.667 41 -177 41c-162.667 0 -300 -47.667 -412 -143c-92.667 -78.667 -177.334 -199.667 -254 -363c62.667 -6 136.667 -9 222 -9c175.333 0 320.666 17 436 51c183.333 54 275 146.333 275 277zM1791 890.997
l-340.001 38.001c49.333 -51.333 74 -119.666 74 -204.999c0 -80.667 -17.667 -188.334 -53 -323.001c-314 402.667 -600.667 604 -860 604c-105.333 0 -193.166 -35 -263.499 -105s-105.5 -157.667 -105.5 -263c0 -168.667 67.333 -304.334 202 -407.001
c122 -92.667 270 -139 444 -139c413.333 0 714 266.667 902 800z" />
    <glyph glyph-name="Icircumflex" unicode="&#xce;" horiz-adv-x="1848" 
d="M1916 759c0 -127.333 -43.333 -251.666 -130 -372.999c-93.333 -130.667 -221.666 -232 -384.999 -304c-151.333 -66.667 -312.333 -100 -483 -100c-200.667 0 -366.334 42 -497.001 126c-153.333 99.333 -230 244 -230 434c0 280 143.333 498 430 654
c234.667 127.333 504.667 191 810 191c92 0 176.667 -6.66699 254 -20l-90 -249c214 -60.667 321 -180.334 321 -359.001zM1782 740c0 76 -16.0049 144 -48.0049 204c-36.667 69.333 -89 112.333 -157 129c-71.333 -176 -171.333 -317.333 -300 -424
c-143.333 -119.333 -303.333 -178 -480 -176l-95 1c-28 0 -59.333 -8 -94 -24c28.667 63.333 54.667 104 78 122c20.667 16.667 53 25 97 25c8 0 23.667 -0.333008 47 -1s43 -1 59 -1c172.667 0 308.334 41.667 407.001 125c88 74 163 196.333 225 367
c-65.333 14.667 -126.333 22 -183 22c-135.333 0 -250.666 -31.333 -345.999 -94c-102.667 -67.333 -170 -164.333 -202 -291c-15.333 23.333 -23 49 -23 77c0 118 72.333 209 217 273c111.333 49.333 235 74 371 74c42 0 103 -5 183 -15l45 149
c-121.333 17.333 -227.666 26 -318.999 26c-414.667 0 -694 -127.667 -838 -383c-64.667 -114.667 -97 -237 -97 -367c0 -178.667 68.333 -314.667 205 -408c118.667 -81.333 271.334 -122 458.001 -122c212.667 0 395.334 64.333 548.001 193
c161.333 136.667 242 309.667 242 519z" />
    <glyph glyph-name="Idieresis" unicode="&#xcf;" horiz-adv-x="2012" 
d="M2522 1381c-6.66699 -188 -134.33 -281.999 -382.996 -281.999c-71.333 0 -153.666 7 -246.999 21c-106.667 -198.667 -181 -380.667 -223 -546c88.667 -58.667 141.667 -96.334 159 -113.001c56 -50.667 84 -106.334 84 -167.001
c0 -69.333 -15.333 -132.666 -46 -189.999c-36.667 -69.333 -86.667 -104 -150 -104c-52.667 -0 -91.334 30.333 -116.001 91c-18 44 -27 97 -27 159c0 74 7.33301 148.333 22 223l-296 241c-67.333 -213.333 -166.333 -384 -297 -512
c-150.667 -148.667 -328.667 -223 -534 -223c-144 0 -260.667 38.667 -350 116c-94.667 81.333 -142 192.666 -142 333.999c0 138.667 44 255.667 132 351c90.667 98 204.667 147 342 147c90.667 0 178 -20 262 -60c39.333 -19.333 98.666 -56.666 177.999 -111.999
c57.333 -40 99.666 -60 126.999 -60c34 0 73.333 13.667 118 41l19 -28l-205 -138c-182 185.333 -371 278 -567 278c-104.667 0 -190.334 -31.833 -257.001 -95.5s-100 -147.5 -100 -251.5c0 -132 51.667 -240 155 -324c96.667 -78 212.667 -117 348 -117
c121.333 0 234.333 34 339 102c100 64.667 180.333 152 241 262c40.667 73.333 83.667 187 129 341c-40.667 34.667 -131.334 95.334 -272.001 182.001l-115 72c-55.333 36.667 -90.666 63.667 -105.999 81c-73.333 84 -110 161.333 -110 232c0 30.667 7 58.667 21 84
c16.667 29.333 38.667 46.333 66 51c13.333 2 31.333 7 54 15c25.333 8 47 12 65 12l144 -50c412.667 -142.667 719 -220.334 919 -233.001c61.333 76 127.666 130.333 198.999 163l11 -69c-55.333 -18 -107.333 -50.333 -156 -97l40 -1c236 -4 401.667 70.333 497 223z
M1844 1128c-136 21.333 -308.001 61.667 -516.001 121c-226.667 64 -391 122 -493 174c-30 15.333 -52 23 -66 23c-28 0 -42 -22.333 -42 -67c0 -72 76 -162.333 228 -271l322 -220c12 54 31 106.667 57 158c32.667 64.667 67.334 105.667 104.001 123
c-10 -28 -42.667 -140.333 -98 -337l283 -227c65.333 222 139 396.333 221 523zM1845 190.002c0 71.333 -67.333 155.668 -202 253.001c-2 -14 -3 -32.667 -3 -56c0 -66.667 6.33301 -131.334 19 -194.001c18.667 -91.333 46.667 -137 84 -137c24 0 47.333 16.333 70 49
c21.333 30.667 32 59 32 85z" />
    <glyph glyph-name="Eth" unicode="&#xd0;" horiz-adv-x="1542" 
d="M1791 1042c0 -149.333 -50.9951 -285.333 -152.995 -408c-107.333 -129.333 -234 -194 -380 -194c-152 0 -299.333 77 -442 231l-132 -244l135 -134l-66 -101l-132 121l-163 -323l-45 26l173 330c-132 140.667 -198 281.667 -198 423c0 62 14.333 113.333 43 154
c32.667 47.333 78.667 71 138 71c85.333 0 177.333 -50.667 276 -152c91.333 182.667 137 300 137 352c0 16.667 -3.66699 29 -11 37c35.333 1.33301 87 5.33301 155 12l-239 -446c79.333 -95.333 140 -160 182 -194c77.333 -64 157.333 -96 240 -96
c111.333 0 205.666 52.333 282.999 157c71.333 95.333 107 200.666 107 315.999c0 108 -34 191 -102 249c-64 54 -151 81 -261 81c-118.667 0 -294.334 -24 -527.001 -72s-408.334 -72 -527.001 -72c-142.667 0 -240.667 16.667 -294 50l40 298l39 -9
c-1.33301 -19.333 -2 -36.666 -2 -51.999c0 -68 21.333 -112 64 -132c25.333 -12 77 -18 155 -18c117.333 0 291.166 22.833 521.499 68.5s404.166 68.5 521.499 68.5c136.667 0 246 -31.333 328 -94c90.667 -70 136 -171.333 136 -304zM777.005 714
c-110 128 -200.333 192 -271 192c-44 0 -66 -25.667 -66 -77c0 -98.667 69.667 -218.667 209 -360z" />
    <glyph glyph-name="Ntilde" unicode="&#xd1;" horiz-adv-x="1295" 
d="M1644 1271c0 -94 -83 -203.331 -249 -327.998c-159.333 -119.333 -289.333 -179 -390 -179c-29.333 0 -53 10.667 -71 32s-27 47 -27 77c0 64.667 49.667 133 149 205c-60.667 5.33301 -127 23.666 -199 54.999c-2 1.33301 -64 32.666 -186 93.999
c-124.667 -64.667 -232.334 -172.5 -323.001 -323.5s-136 -296.833 -136 -437.5c0 -128.667 42.667 -225 128 -289c75.333 -56.667 179.333 -85 312 -85c180.667 0 330.334 52.667 449.001 158s189.334 247.666 212.001 426.999c16 -34.667 24 -70.667 24 -108
c0 -136.667 -88.333 -271 -265 -403c-166 -124 -320.333 -186 -463 -186c-155.333 0 -278.333 35.333 -369 106c-100 78 -150 192.667 -150 344c0 166 51.667 323.667 155 473c93.333 134.667 217 247.667 371 339c-58.667 19.333 -115.667 29 -171 29
c-124.667 0 -221.667 -42.333 -291 -127c-63.333 -78 -95 -181 -95 -309c0 -63.333 8 -130.666 24 -201.999c-62 39.333 -93 101 -93 185c0 64 17.667 137 53 219c31.333 73.333 70 139 116 197c77.333 97.333 180.666 146 309.999 146c85.333 0 190.333 -19.333 315 -58
c73.333 31.333 168 58.333 284 81c114 22 212 33 294 33c188 0 282 -55 282 -165zM1586 1270c0 74.667 -84.332 112.001 -252.999 112.001c-70 0 -151.667 -7 -245 -21c-104.667 -15.333 -183.334 -34 -236.001 -56c81.333 -42.667 141 -72 179 -88
c64.667 -26.667 128.667 -45 192 -55c-88 -82.667 -134 -126 -138 -130c-65.333 -66 -98 -112 -98 -138c0 -32.667 30 -49 90 -49c86.667 0 192 49.333 316 148c128.667 101.333 193 193.666 193 276.999z" />
    <glyph glyph-name="Ograve" unicode="&#xd2;" horiz-adv-x="3154" 
d="M3439 1266c0 -40 -21.667 -72.9951 -65 -98.9951c-26 -16 -72 -34.333 -138 -55c-62.667 -19.333 -103.334 -35.666 -122 -48.999l-610 161c-121.333 -64 -226.166 -169.167 -314.5 -315.5c-88.333 -146.333 -132.5 -287.833 -132.5 -424.5
c0 -242.667 142.667 -364 428 -364c176 0 321.667 51.167 437 153.5s183.666 240.833 205 415.5c16 -34 24 -69 24 -105c0 -132.667 -85.667 -263.334 -257 -392.001c-162 -120.667 -312.333 -181 -451 -181c-151.333 0 -271 34.333 -359 103
c-97.333 76 -146 187.667 -146 335c0 160.667 50.333 313.667 151 459c91.333 131.333 211.666 241 361 329c-118 44.667 -236.667 74.667 -356 90l-426 -1132c-59.333 -157.333 -222.666 -256 -489.999 -296l-30 50c210.667 3.33301 354.334 99.333 431.001 288
c64.667 158.667 159.667 405 285 739l115 309c7.33301 18.667 25 38 53 58c-4.66699 2 -8.66699 3 -12 3c-5.33301 0 -22 -4.66699 -50 -14c-86 -29.333 -157.333 -82 -214 -158c-62.667 -84 -134 -219.667 -214 -407c-82.667 -192.667 -153 -329.667 -211 -411
c-206.667 -292 -432.667 -438 -678 -438c-158 0 -309 55.667 -453 167c-154.667 119.333 -232 255.666 -232 408.999c0 128 48.667 234.667 146 320c92.667 81.333 204 122 334 122c98.667 0 195.334 -25.333 290.001 -76c22.667 -12.667 93.334 -60.334 212.001 -143.001
c73.333 -50.667 133.666 -76 180.999 -76c38 0 76.667 12 116 36l23 -27l-210 -127c-282.667 230 -516 345 -700 345c-96.667 0 -175 -26.667 -235 -80c-62 -56 -93 -132 -93 -228c0 -138.667 60 -263 180 -373c117.333 -108 246 -162 386 -162
c197.333 0 401.666 104.333 612.999 313c75.333 74 150.666 187 225.999 339l188 380c78 137.333 164.667 236.666 260 297.999c-54.667 2.66699 -108.667 4 -162 4c-218 0 -401 -21 -549 -63c-236 -66.667 -354 -180.334 -354 -341.001c0 -34 5.66699 -70 17 -108
c-62.667 39.333 -94 94.666 -94 165.999c0 109.333 55.667 221.333 167 336c89.333 92 268.666 138 537.999 138c172.667 0 390.667 -19.333 654 -58l113 40l-15 -49l-22 -2c132.667 -20.667 278 -54.667 436 -102c232.667 71.333 422.334 107 569 107
c170.667 0 256 -52.333 256 -157zM3392 1247c0 85.333 -85.667 128 -257 128c-67.333 0 -144.666 -6.66699 -232 -20c-96.667 -15.333 -171.334 -34 -224 -56c250.667 -81.333 442.667 -122 576 -122c91.333 0 137 23.333 137 70z" />
    <glyph glyph-name="Oacute" unicode="&#xd3;" horiz-adv-x="1501" 
d="M1838 1448c-17.333 -167.333 -59.335 -339.666 -126.002 -516.999c-70 -188 -154.333 -343.333 -253 -466c-259.333 -324 -544.333 -486 -855 -486c-167.333 0 -309.666 51 -426.999 153c-122.667 107.333 -184 243.333 -184 408c0 144 48.667 261.667 146 353
c95.333 89.333 215.666 134 360.999 134c136 0 278 -51 426 -153c124 -86 234.333 -193 331 -321l13 57l10 -1c8.66699 0 18.667 1.66699 30 5c-7.33301 -66.667 -23.333 -146.334 -48 -239.001c-306.667 394.667 -587.667 592 -843 592
c-103.333 0 -189.333 -34.333 -258 -103s-103 -154.667 -103 -258c0 -166 65.667 -299 197 -399c120 -90.667 265.333 -136 436 -136c478.667 0 806 357.667 982 1073c-150 -212.667 -289.667 -319 -419 -319c-86 0 -157.667 45.667 -215 137
c-35.333 56 -69.333 139.667 -102 251c-29.333 100.667 -102.666 151 -219.999 151c-83.333 0 -166.666 -18.667 -249.999 -56l-230 -103l-48 31l278 131c123.333 51.333 222.333 77 297 77c104.667 0 182 -44.333 232 -133c137.333 -244 247.333 -366 330 -366
c57.333 0 137 68 239 204c98.667 132 149.667 230 153 294z" />
    <glyph glyph-name="Ocircumflex" unicode="&#xd4;" horiz-adv-x="1956" 
d="M2179 928c0 -114 -58.667 -222.334 -176 -325.001c-216.667 -190 -512.334 -292.667 -887.001 -308c-30 -83.333 -75.333 -160 -136 -230c-74 -86 -147.667 -129 -221 -129c-69.333 0 -138.333 24 -207 72c-6 4.66699 -58.333 49.667 -157 135
c-55.333 48 -102 72 -140 72c-52.667 0 -102.667 -18 -150 -54c-51.333 -39.333 -77 -84.333 -77 -135c0 -62.667 49.667 -94 149 -94c76.667 0 145.334 20.333 206.001 61l1 -20c-84.667 -53.333 -159.334 -80 -224.001 -80c-50 0 -90.667 15.833 -122 47.5
s-47 72.5 -47 122.5c0 69.333 42 132.333 126 189c76.667 51.333 151.667 77 225 77c60 0 131.5 -48.5 214.5 -145.5s155.5 -145.5 217.5 -145.5c72.667 0 131 27.667 175 83c20.667 25.333 52.667 85 96 179c-181.333 13.333 -336 51.333 -464 114
c-174 84.667 -261 203.334 -261 356.001c0 234.667 121 412.667 363 534c190.667 96 416.334 144 677.001 144c80 0 158 -5 234 -15l-59 -129c28.667 4 57.667 6 87 6c138 0 259.667 -29 365 -87c128 -70 192 -168.333 192 -295zM2044 888.999
c0 99.333 -48.668 185.667 -146.001 259c-90 68 -186.667 102 -290 102c-34 0 -66.333 -4.33301 -97 -13l-362 -875c188.667 0 374.334 42 557.001 126c225.333 103.333 338 237 338 401zM1491 1366c-78 6 -150.333 9 -217 9c-540 0 -810 -200 -810 -600
c0 -135.333 72 -240 216 -314c110.667 -57.333 243 -89.333 397 -96l363 873c-174 -8.66699 -313 -58.667 -417 -150c-108.667 -95.333 -170 -228.333 -184 -399c-55.333 32 -83 85.333 -83 160c0 130.667 88.667 240.667 266 330c146 73.333 293.333 112.333 442 117z" />
    <glyph glyph-name="Otilde" unicode="&#xd5;" horiz-adv-x="2459" 
d="M2766 1215c0 -76 -32.6641 -149.667 -97.9971 -221c-176.667 -193.333 -502 -285.666 -976 -276.999c119.333 -392 209.666 -588 270.999 -588c16.667 0 49 16.333 97 49l22 -29l-235 -164c-78 132 -159.667 340.667 -245 626
c-154.667 -199.333 -284.667 -341.333 -390 -426c-166.667 -134.667 -342.334 -202 -527.001 -202c-158.667 0 -289 46.667 -391 140c-104.667 96 -157 222.667 -157 380c0 138.667 40.833 248.834 122.5 330.501s191.834 122.5 330.501 122.5
c134.667 0 266 -48.667 394 -146c78.667 -59.333 180 -161 304 -305c30.667 35.333 46 70.333 46 105c0 88 -73 135.333 -219 142c25.333 23.333 50.666 60 75.999 110c114 -10.667 228.333 -20.667 343 -30c-88 294.667 -154.333 442 -199 442
c-20.667 0 -48.334 -15.333 -83.001 -46l-23 31c68 43.333 136 96.666 204 159.999c47.333 -77.333 91 -174 131 -290l95 -305l42 -4c144.667 192.667 258 325 340 397c148.667 131.333 304.667 197 468 197c72 0 130.667 -14.667 176 -44
c54 -34.667 81 -86.334 81 -155.001zM2672 1164c0 58 -24.333 102.332 -73 132.999c-40.667 26 -91.667 39 -153 39c-137.333 0 -272 -58.333 -404 -175c-68.667 -61.333 -168 -175.666 -298 -342.999c105.333 -4.66699 190 -7 254 -7c161.333 0 301 21.333 419 64
c170 60.667 255 157 255 289zM1589 654.999l-21 67.002c-100 5.33301 -179.333 10.666 -238 15.999c29.333 -43.333 44 -82.666 44 -117.999c0 -68.667 -50 -145.667 -150 -231c-130 154.667 -232.333 264 -307 328c-138.667 117.333 -270.667 176 -396 176
c-100 0 -180.167 -30.333 -240.5 -91s-90.5 -141.334 -90.5 -242.001c0 -146.667 56.333 -264.334 169 -353.001c104 -82 231 -123 381 -123c180.667 0 344.667 58 492 174c97.333 76.667 216.333 209 357 397z" />
    <glyph glyph-name="Odieresis" unicode="&#xd6;" horiz-adv-x="2286" 
d="M2282 1324c0 -221.333 -212.332 -517.002 -636.999 -887.002c-38 -115.333 -84 -220 -138 -314l34 1c12.667 0.666992 116 -3 310 -11c6 102 31.667 205.333 77 310c58 134.667 128 202 210 202c95.333 0 143 -47 143 -141c0 -90 -38.333 -180 -115 -270
c-70.667 -83.333 -151 -142 -241 -176v-17c2 -260 -72.333 -390 -223 -390c-45.333 0 -96 13.333 -152 40s-99 57.334 -129 92.001c57.333 -23.333 118 -35 182 -35c178.667 0 265.667 85 261 255l-1 36c-32.667 -7.33301 -65 -11 -97 -11c-42.667 0 -106 5 -190 15
c-86 10 -149.667 15 -191 15c25.333 60 58.333 151 99 273c-306 -214.667 -530.667 -322 -674 -322c-46 0 -84 11.333 -114 34c-33.333 24.667 -50 59.334 -50 104.001c0 59.333 23.333 150.666 70 273.999l113 273c125.333 312.667 188 506 188 580
c0 64.667 -66.333 97 -199 97c-240.667 0 -443.334 -63.333 -608.001 -190c-180.667 -139.333 -271 -326 -271 -560c0 -49.333 8.33301 -114.666 25 -195.999c-71.333 60 -107 150.333 -107 271c0 236.667 134 427 402 571c199.333 107.333 445 161 737 161
c83.333 0 155.333 -2.66699 216 -8c-42.667 -191.333 -130.334 -449 -263.001 -773l-100 -239c-44.667 -113.333 -67 -191.333 -67 -234c0 -66 36 -99 108 -99c64.667 0 171 42.333 319 127c116 66.667 216 132.667 300 198l106 373c44 156 91 279 141 369
c68.667 124.667 155.334 217.667 260.001 279c62.667 36.667 116.667 55 162 55c69.333 0 104 -44 104 -132zM2179 1297c0 65.333 -21.334 98 -64.001 98c-90.667 0 -186 -127 -286 -381c-38 -97.333 -91 -264.333 -159 -501c124.667 100 235.334 216.667 332.001 350
c118 164 177 308.667 177 434zM2235 530.998c0 43.333 -24.001 64.999 -72.001 64.999c-62.667 0 -104.667 -25 -126 -75c-60 -140 -96.333 -274.333 -109 -403c94.667 16.667 170.334 66.334 227.001 149.001c53.333 76.667 80 164.667 80 264z" />
    <glyph glyph-name="multiply" unicode="&#xd7;" horiz-adv-x="2160" 
d="M2176 481c0 -118 -85.666 -233.998 -256.999 -347.998c-158 -105.333 -299.333 -158 -424 -158c-57.333 0 -107.333 15.333 -150 46c-46.667 33.333 -70 77.666 -70 132.999c0 73.333 25 178 75 314c8.66699 23.333 51 126.333 127 309
c-112 -85.333 -176 -133.333 -192 -144c-84.667 -54.667 -156.667 -82 -216 -82c-48.667 0 -90.167 15.667 -124.5 47s-51.5 71 -51.5 119c0 54.667 29.833 145.334 89.5 272.001s89.5 212.667 89.5 258c0 80.667 -68 121 -204 121c-230.667 0 -421.667 -60 -573 -180
c-164.667 -130 -247 -307.333 -247 -532c0 -57.333 6 -116.333 18 -177c-68.667 57.333 -103 136.333 -103 237c0 65.333 15.333 135 46 209c74 178.667 217.667 311 431 397c169.333 68 367.666 102 594.999 102c67.333 0 135.333 -3.33301 204 -10
c-13.333 -68 -38.333 -168 -75 -300l-84 -219c-37.333 -101.333 -56 -171.666 -56 -210.999c0 -46 19 -69 57 -69c67.333 0 208 84.333 422 253l130 271c38 79.333 74.333 137 109 173c50.667 54 110.667 81 180 81c76.667 0 115 -34.667 115 -104
c0 -72.667 -52.333 -152.334 -157 -239.001c-32 -26 -116 -83.667 -252 -173c-162.667 -416.667 -244 -652.334 -244 -707.001c0 -91.333 52.667 -137 158 -137c146 0 274.667 60.333 386 181c108.667 117.333 163 249.666 163 396.999c0 13.333 -0.666992 26.333 -2 39
c58 -46.667 87 -103 87 -169zM1938 1243c0 54.667 -11.334 81.999 -34.001 81.999c-24.667 0 -69.667 -54.333 -135 -163c-59.333 -99.333 -94.666 -169.333 -105.999 -210l172 124c68.667 58.667 103 114.334 103 167.001z" />
    <glyph glyph-name="Oslash" unicode="&#xd8;" horiz-adv-x="2652" 
d="M2697 465c0 -71.333 -27.6631 -145.333 -82.9961 -222c-66.667 -92 -143.334 -154 -230.001 -186c-63.333 -23.333 -153.333 -35 -270 -35h-74c-34 0.666992 -60.333 1 -79 1c-101.333 0 -174.333 -12 -219 -36c41.333 100 87.333 218.333 138 355
c-108 -123.333 -173 -195.333 -195 -216c-92.667 -88.667 -172.334 -133 -239.001 -133c-45.333 0 -80.833 14.333 -106.5 43s-38.5 66 -38.5 112c0 23.333 2.66699 50 8 80c-57.333 -62.667 -125 -117.334 -203 -164.001c-91.333 -54 -172.333 -81 -243 -81
c-86.667 0 -130 45 -130 135c0 52 25.667 146.333 77 283l111 278c125.333 318 188 511.333 188 580c0 64.667 -66.333 97 -199 97c-240.667 0 -443.334 -63.333 -608.001 -190c-180.667 -139.333 -271 -326 -271 -560c0 -49.333 8.33301 -114.666 25 -195.999
c-71.333 60 -107 150.333 -107 271c0 236.667 134 427 402 571c199.333 107.333 445 161 737 161c83.333 0 155.333 -2.66699 216 -8c-44 -202 -131.667 -459.667 -263 -773l-102 -231c-40 -98.667 -60 -178 -60 -238c0 -63.333 25.333 -95 76 -95
c44.667 0 112.334 37 203.001 111l182 163c11.333 35.333 79.666 195.666 204.999 480.999c99.333 228 149 378.333 149 451c0 66.667 -29.333 96.667 -88 90l16 49h28c81.333 0 153 -2.66699 215 -8c-32.667 -150.667 -94.334 -341 -185.001 -571l-220 -559
c-23.333 -59.333 -35 -109.333 -35 -150c0 -32.667 12 -49 36 -49c38 0 93 32.333 165 97l276 248l118 404c124 424 303.333 636 538 636c69.333 0 104 -44 104 -132c0 -141.333 -77.667 -304.666 -233 -489.999c-90.667 -108.667 -225.334 -241 -404.001 -397
c-38 -115.333 -84 -220 -138 -314c32.667 2.66699 66.667 4 102 4c36.667 0 91.667 -2.83301 165.001 -8.5c73.333 -5.66699 128.333 -8.5 165 -8.5c106 0 190 44 252 132c54.667 77.333 82 171 82 281c0 14.667 -0.666992 29.334 -2 44.001
c30.667 -24.667 46 -60.334 46 -107.001zM2568 1279c0 30 -7 58.668 -21 86.001c-16.667 32.667 -38.667 49 -66 49c-69.333 0 -155.666 -129 -259 -387c-60.667 -150.667 -118 -320.334 -172 -509.001c105.333 84.667 213.333 201 324 349c129.333 174.667 194 312 194 412
z" />
    <glyph glyph-name="Ugrave" unicode="&#xd9;" horiz-adv-x="2619" 
d="M2673 496c0 -83.333 -42.1641 -176.003 -126.497 -278.003s-166.833 -159.333 -247.5 -172v-17c2 -260 -72.333 -390 -223 -390c-45.333 0 -96 13.333 -152 40s-99 57.334 -129 92.001c57.333 -23.333 118.333 -35 183 -35c178 0 264.667 85 260 255l-1 36
c-34.667 -8 -73 -12 -115 -12c-40.667 0 -101.334 5.16699 -182.001 15.5s-141 15.5 -181 15.5c34 81.333 72.333 181 115 299c-108 -123.333 -173 -195.666 -195 -216.999c-92.667 -88 -172.334 -132 -239.001 -132c-45.333 0 -80.833 14.333 -106.5 43s-38.5 66 -38.5 112
c0 23.333 2.66699 50 8 80c-57.333 -62.667 -125 -117.334 -203 -164.001c-91.333 -54 -172.333 -81 -243 -81c-86.667 0 -130 45 -130 135c0 52 25.667 146.333 77 283l111 278c125.333 318 188 511.333 188 580c0 64.667 -66.333 97 -199 97
c-240.667 0 -443.334 -63.333 -608.001 -190c-180.667 -139.333 -271 -326 -271 -560c0 -49.333 8.33301 -114.666 25 -195.999c-71.333 60 -107 150.333 -107 271c0 236.667 134 427 402 571c199.333 107.333 445 161 737 161c83.333 0 155.333 -2.66699 216 -8
c-44 -202 -131.667 -459.667 -263 -773l-102 -231c-40 -98.667 -60 -178 -60 -238c0 -63.333 25.333 -95 76 -95c44.667 0 112.334 37 203.001 111l182 163c8 24 74.667 182.667 200 476c96 224 144 374.667 144 452c0 65.333 -27.333 99 -82 101l20 42h28
c81.333 0 153 -2.66699 215 -8c-32.667 -150.667 -94.334 -341 -185.001 -571l-220 -559c-23.333 -59.333 -35 -109.333 -35 -150c0 -32.667 11.333 -49 34 -49c37.333 0 113 49 227 147l216 198l118 404c124 424 303.333 636 538 636c69.333 0 104 -44 104 -132
c0 -141.333 -77.667 -304.666 -233 -489.999c-90.667 -108.667 -225.334 -241 -404.001 -397c-38 -115.333 -84 -220 -138 -314l25 1c32.667 0.666992 139.334 -3 320.001 -11c56.667 355.333 152.667 533 288 533c48.667 0 87.334 -14.167 116 -42.5
c28.667 -28.333 43 -66.833 43 -115.5zM2562 1282c0 30 -7.00098 58.668 -21.001 86.001c-16.667 32.667 -38.667 49 -66 49c-69.333 0 -155.666 -129 -258.999 -387c-60.667 -150.667 -118 -320.334 -172 -509.001c105.333 84.667 213.333 201 324 349
c129.333 174.667 194 312 194 412zM2609 538.998c0 43.333 -24 64.998 -72 64.998c-62.667 0 -104.667 -25 -126 -75c-60 -139.333 -96.333 -273.666 -109 -402.999c94.667 16.667 170.334 66.334 227 149.001c53.333 76.667 80 164.667 80 264z" />
    <glyph glyph-name="Uacute" unicode="&#xda;" horiz-adv-x="1220" 
d="M1223 612c0 -25.333 -1.33203 -51.668 -3.99902 -79.001c-12.667 -130.667 -81.334 -256.667 -206.001 -378c-127.333 -124 -256.333 -186 -387 -186c-107.333 0 -194.333 33.833 -261 101.5s-100 155.167 -100 262.5c0 131.333 52.667 306.333 158 525
c-256 -160 -384 -347 -384 -561c0 -61.333 9 -129 27 -203c-71.333 48 -107 128.333 -107 241c0 219.333 166 417 498 593l197 382c-53.333 3.33301 -101.666 5 -144.999 5c-281.333 0 -436 -127 -464 -381c-23.333 16 -35 44.333 -35 85c0 106 126.667 239.333 380 400
c50 5.33301 105 8 165 8c103.333 0 191.666 -4.33301 264.999 -13c-41.333 -61.333 -121 -204.666 -239 -429.999c96.667 39.333 186 59 268 59c124 0 218.667 -42 284 -126c60 -76 90 -177.667 90 -305zM1170 560.998c0 110.667 -39.668 203.667 -119.001 279
s-174.666 113 -285.999 113c-76 0 -154 -19.333 -234 -58c-104.667 -198 -157 -363 -157 -495c0 -103.333 31.667 -184.333 95 -243c61.333 -56.667 144 -85 248 -85c118 0 223.667 52.333 317 157c90.667 101.333 136 212 136 332z" />
    <glyph glyph-name="Ucircumflex" unicode="&#xdb;" horiz-adv-x="2084" 
d="M2098 699c-19.333 -223.333 -105.999 -397.332 -259.999 -521.999c-146.667 -118.667 -334 -178 -562 -178c-89.333 0 -151.666 9 -186.999 27c-53.333 27.333 -80 81 -80 161c0 113.333 58 301.333 174 564c133.333 301.333 209.333 494.666 228 579.999
c-158 -20 -328.333 -77.333 -511 -172c-100.667 -51.333 -255.334 -145.333 -464.001 -282c48.667 38 113 57 193 57c99.333 0 186 -26.667 260 -80c82 -59.333 123 -136.666 123 -231.999c0 -146 -70.667 -287.167 -212 -423.5s-285.333 -204.5 -432 -204.5
c-106 0 -192.667 30.667 -260 92c-70.667 63.333 -106 147.333 -106 252c0 122 54.667 289.667 164 503c1.33301 3.33301 91.333 161.333 270 474l1 9c0.666992 15.333 -5 26.333 -17 33c-9.33301 4.66699 -22.333 6.66699 -39 6l28 51c36 3.33301 71 5 105 5
c33.333 0 65.666 -1.66699 96.999 -5l-288 -465c-137.333 -222 -206 -404 -206 -546c0 -100 33.667 -177.333 101 -232c62 -50.667 144.333 -76 247 -76c113.333 0 212.333 40 297 120c114 108 171 215.333 171 322c0 93.333 -46 170 -138 230
c-80.667 52 -170.667 78 -270 78c-54.667 0 -102.667 -9.33301 -144 -28l-58 35l240 171c92 62.667 175.333 114.667 250 156c153.333 84.667 324.666 153.334 513.999 206.001c42.667 12 65 18 67 18h211c-20 -106.667 -103 -322.334 -249 -647.001
c-134.667 -300.667 -202 -490.334 -202 -569.001c0 -41.333 14.333 -74 43 -98s64.334 -36 107.001 -36c125.333 0 275 80 449 240c136 124.667 251 260 345 406z" />
    <glyph glyph-name="Udieresis" unicode="&#xdc;" horiz-adv-x="1257" 
d="M1262 614c0 -24 -1.33398 -50.001 -4.00098 -78.001c-12.667 -131.333 -81.334 -257.666 -206.001 -378.999c-127.333 -123.333 -256.333 -185 -387 -185c-107.333 0 -194.166 33.833 -260.499 101.5s-99.5 155.167 -99.5 262.5c0 131.333 52.333 306.333 157 525
c-256 -164 -384 -351 -384 -561c0 -62 9.33301 -129.667 28 -203c-72 48 -108 128 -108 240c0 123.333 55.667 242.333 167 357c87.333 90.667 198 169.334 332 236.001l199 390l1 8c0.666992 14.667 -4.66602 25.667 -15.999 33c-10 5.33301 -22.667 7.66602 -38 6.99902
l25 52c34.667 3.33301 68.334 5 101.001 5c32 0 63.333 -1.66699 94 -5l-243 -433c97.333 38.667 186.666 58 267.999 58c124 0 218.667 -42 284 -126c60 -76 90 -177.667 90 -305zM1209 563.999c0 110 -39.999 203.333 -119.999 280
c-78.667 74.667 -173.334 112 -284.001 112c-76.667 0 -155 -19.333 -235 -58c-104 -197.333 -156 -362.333 -156 -495c0 -102.667 31 -183.167 93 -241.5s145 -87.5 249 -87.5c118 0 223.667 52.667 317 158c90.667 102 136 212.667 136 332z" />
    <glyph glyph-name="Yacute" unicode="&#xdd;" horiz-adv-x="1557" 
d="M1635 1045c0 -174 -61.001 -350.335 -183.001 -529.002l40 -56l13 55c13.333 -1.33301 26 0 38 4c-6.66699 -65.333 -21.667 -143 -45 -233l-119 132c-92.667 -121.333 -207.667 -221 -345 -299c-147.333 -83.333 -292.666 -125 -435.999 -125
c-160.667 0 -297 50.667 -409 152c-116 104.667 -174 236.334 -174 395.001c0 138 43.167 249.333 129.5 334s198.5 127 336.5 127c150.667 0 318.334 -47 503.001 -141c168 -86 310.667 -189 428 -309c89.333 132.667 134 255.334 134 368.001
c0 140.667 -42.5 252.834 -127.5 336.501s-197.833 125.5 -338.5 125.5c-72 0 -137.667 -11.333 -197 -34c-80.667 -30.667 -121 -76 -121 -136c0 -71.333 60.333 -133.333 181 -186c78.667 -34 171 -60 277 -78c-56 -28.667 -114.333 -43 -175 -43
c-86.667 0 -167.334 27.333 -242.001 82c-81.333 59.333 -122 130.666 -122 213.999c0 84.667 51 145.667 153 183c70.667 25.333 157.667 38 261 38c164 0 287.667 -21.667 371 -65c112.667 -59.333 169 -163.333 169 -312zM1340 453.998
c-133.333 128 -273.998 237.001 -421.998 327.001c-188.667 114.667 -352.334 172 -491.001 172c-101.333 0 -185 -32.5 -251 -97.5s-99 -148.5 -99 -250.5c0 -162.667 62 -292.334 186 -389.001c113.333 -88 253 -132 419 -132c279.333 0 498.666 123.333 657.999 370z" />
    <glyph glyph-name="Thorn" unicode="&#xde;" horiz-adv-x="2343" 
d="M2403 812c0 -208 -73.667 -395.332 -221 -561.999c-152.667 -173.333 -331.667 -260 -537 -260c-151.333 0 -270.333 47 -357 141c-84 90.667 -126 212.334 -126 365.001c0 53.333 4.33301 106.666 13 159.999c-26.667 21.333 -51.667 44.666 -75 69.999
c-65.333 -188 -151.333 -346.333 -258 -475c-138.667 -167.333 -289.334 -251 -452.001 -251c-128 0 -229.333 41.667 -304 125c-72 79.333 -108 184 -108 314c0 126.667 33.667 236.667 101 330c75.333 103.333 174 155 296 155c79.333 0 153.333 -19.667 222 -59
c32 -18 80.667 -54 146 -108c46.667 -39.333 82.334 -59 107.001 -59c28.667 0 61.667 13.333 99 40l16 -27l-172 -134c-152.667 180 -311 270 -475 270c-93.333 0 -167.333 -33.667 -222 -101c-51.333 -62.667 -77 -141.667 -77 -237c0 -121.333 40 -223.333 120 -306
s180.667 -124 302 -124c274.667 0 479 234.667 613 704c-74 101.333 -122 228 -144 380l30 29c26 -139.333 70.333 -253.333 133 -342c35.333 136.667 61.333 229 78 277c44.667 128 91.334 205 140.001 231c-40.667 -127.333 -97.334 -316.333 -170.001 -567
c22 -23.333 45 -44 69 -62c50.667 205.333 162 370.333 334 495c166 120.667 356.667 181 572 181c65.333 0 125 -6.66699 179 -20l-80 -251c138.667 -56 208 -163.333 208 -322zM2197 1300c-85.333 17.333 -160.331 26 -224.998 26
c-198.667 0 -358.334 -59.333 -479.001 -178c-113.333 -111.333 -186.333 -268 -219 -470c94.667 -60.667 207.667 -91 339 -91c148.667 0 266.667 51.667 354 155c63.333 74.667 121.333 195 173.999 361c-46 14.667 -88.667 22 -128 22c-108 0 -199.333 -39 -274 -117
c-66 -68.667 -112.333 -159 -139 -271c-8 20 -12 41.667 -12 65c0 111.333 46.333 201.333 139 270c84 61.333 184 92 300 92c30 0 73 -5 129 -15zM2306 796.001c0 166 -41.999 263.667 -125.999 293c-136.667 -390.667 -331.334 -586 -584.001 -586
c-93.333 0 -204 31 -332 93c-2 -29.333 -3 -57.333 -3 -84c0 -142.667 37 -256.667 111 -342c78 -89.333 187.333 -134 328 -134c179.333 0 328 84.333 446 253c106.667 151.333 160 320.333 160 507z" />
    <glyph glyph-name="germandbls" unicode="&#xdf;" horiz-adv-x="2018" 
d="M2061 1132c-8 -47.333 -26.0039 -103.33 -54.0039 -167.997c-76.667 60.667 -152 114.667 -226 162c-19.333 -88 -29 -198.667 -29 -332c0 -110.667 8.66699 -238 26 -382c24.667 -200 57.334 -300 98.001 -300c14.667 0 37.334 16 68.001 48l23 -22
c-60.667 -64 -118.667 -129.333 -174 -196c-99.333 201.333 -149 440.666 -149 717.999c0 121.333 9.66699 264.333 29 429l-243 -325c-153.333 -204.667 -240 -319.334 -260 -344.001c-109.333 -132.667 -214.666 -232.667 -315.999 -300c-128 -86 -261.333 -129 -400 -129
c-150 0 -277 41.333 -381 124c-112 89.333 -168 207.333 -168 354c0 135.333 50.667 242 152 320c92 70 207.667 105 347 105c82.667 0 163 -29.667 241 -89c33.333 -24.667 90.333 -79.334 171 -164.001c56 -59.333 98.667 -89 128 -89c31.333 0 67.666 16 108.999 48
c36.667 28.667 65 58.334 85 89.001l-4 -2c-54 10 -133 28 -237 54c-90.667 30 -165 70 -223 120c-73.333 64 -110 137 -110 219c0 117.333 70.333 207 211 269c108 48 229.667 72 365 72c194 0 401 -57.667 621 -173c20.667 22 41.334 42.333 62.001 61l26 -23
c-14 -16.667 -27 -38.334 -39 -65.001c68.667 -40 132.334 -84 191.001 -132l15 40c15.333 -1.33301 30.333 -0.333008 45 3zM1696 1178c-234.667 134 -450.329 200.997 -646.996 200.997c-96.667 0 -184 -18.333 -262 -55c-99.333 -46 -149 -112 -149 -198
c0 -116 76.333 -210 229 -282c122.667 -57.333 250 -86.666 382 -87.999c-33.333 -52 -86.333 -112.667 -159 -182c-74.667 -72 -138.334 -122.333 -191.001 -151c-126 144.667 -205 231.667 -237 261c-110 102 -209.667 153 -299 153c-92.667 0 -178.334 -30 -257.001 -90
c-84 -65.333 -126 -142.666 -126 -231.999c0 -115.333 44.333 -222.666 133 -321.999c92 -103.333 195.667 -155 311 -155c183.333 0 391 110.333 623 331c57.333 54.667 120.666 128.667 189.999 222l173 236c101.333 132.667 196.666 249.667 285.999 351z" />
    <glyph glyph-name="agrave" unicode="&#xe0;" horiz-adv-x="768" 
d="M941 808c0 -14.667 -9.66797 -40.002 -29.001 -76.002c-46 8 -93.333 12 -142 12c-128.667 0 -249.667 -35.667 -363 -107c-110 -69.333 -196.333 -161.666 -259 -276.999c-36.667 -68 -55 -132.667 -55 -194c0 -56 19.667 -84 59 -84c32.667 0 80.334 28.667 143.001 86
c160 146.667 262.667 323 308 529c28.667 -17.333 43 -48.666 43 -93.999c0 -66 -32.667 -140.667 -98 -224c30.667 2 70 11 118 27c-68.667 -153.333 -103 -242 -103 -266c0 -18 9 -27 27 -27c13.333 0 43.333 13.333 90 40l18 -26c-70 -52.667 -165.667 -94 -287 -124v7
c-0.666992 52 38.666 165.667 117.999 341c-64.667 -77.333 -138 -149.666 -220 -216.999c-109.333 -90 -196.333 -135 -261 -135c-46.667 0 -70 29.667 -70 89c0 136.667 72.333 276.667 217 420c164.667 163.333 352.334 265.666 563.001 306.999
c57.333 11.333 107.333 17 150 17c22 0 33 -8 33 -24z" />
    <glyph glyph-name="aacute" unicode="&#xe1;" horiz-adv-x="771" 
d="M1104 1348c0 -8.66699 -4.33496 -17.3301 -13.002 -25.9971c-37.333 -38.667 -89 -65.667 -155 -81c-33.333 -8 -92 -15.333 -176 -22c-53.333 -4 -103.333 -23.667 -150 -59c-44 -34 -77.667 -76.333 -101 -127l-62 -164l-134 -326c62 67.333 131.667 126 209 176
c95.333 60.667 179 91 251 91c60.667 0 91 -29 91 -87c0 -44.667 -17 -103.334 -51 -176.001c-69.333 -148.667 -187.333 -279.334 -354 -392.001c-169.333 -114.667 -334.666 -172.667 -495.999 -174c127.333 295.333 270.666 647.666 429.999 1057
c18.667 48 61.334 96.667 128.001 146c52 38.667 114.667 64.334 188 77.001l178 29c66.667 18.667 124.334 56.667 173.001 114c29.333 -20.667 44 -39.334 44 -56.001zM711.998 656.004c0 47.333 -22.001 71 -66.001 71c-95.333 0 -202.666 -84.667 -321.999 -254
c-90.667 -129.333 -161 -260 -211 -392c16 -2.66699 32.333 -4 49 -4c107.333 0 209.333 45 306 135c80 75.333 145.667 169 197 281c31.333 68.667 47 123 47 163z" />
    <glyph glyph-name="acircumflex" unicode="&#xe2;" horiz-adv-x="800" 
d="M993 1367c0 -118.667 -70.501 -244.502 -211.501 -377.502s-271.5 -199.5 -391.5 -199.5c-18.667 -55.333 -49 -137 -91 -245c63.333 68 132 126 206 174c92.667 59.333 175.334 89 248.001 89c60 0 90 -28.667 90 -86c0 -44 -17 -101.667 -51 -173
c-70 -146 -186.333 -274.667 -349 -386c-167.333 -113.333 -330.333 -170.666 -489 -171.999c126.667 292.667 234.667 552.334 324 779.001c-31.333 -4.66699 -66 -9 -104 -13l4 58c48.667 0.666992 88.334 2 119.001 4c52 130 99.667 225.333 143 286
c57.333 78.667 137.666 147.667 240.999 207c96.667 55.333 178.667 83 246 83c44 0 66 -9.33301 66 -28zM913.999 1248c0 38.667 -29.334 58 -88.001 58c-112 0 -205.333 -54.333 -280 -163c-41.333 -60 -88.666 -164.333 -141.999 -313c208 32 368 143.667 480 335
c20 34 30 61.667 30 83zM692.998 655.998c0 46.667 -22.001 70 -66.001 70c-94 0 -199.667 -83.667 -317 -251c-88.667 -126 -158 -254.667 -208 -386c16 -2.66699 32 -4 48 -4c104.667 0 205.334 44.667 302.001 134c80 74.667 145 166.667 195 276
c30.667 67.333 46 121 46 161z" />
    <glyph glyph-name="atilde" unicode="&#xe3;" horiz-adv-x="677" 
d="M689 450c-0.666992 -38 -4 -69.666 -10 -94.999c-94.667 -111.333 -166.334 -189.666 -215.001 -234.999c-104 -97.333 -191.333 -146 -262 -146c-46.667 0 -70 27 -70 81c0 62 43.667 183.167 131 363.5s131 279.166 131 296.499c0 21.333 -7.66699 32 -23 32
c-43.333 0 -112.333 -47.667 -207 -143c-65.333 -66 -124.666 -134 -177.999 -204c-2 24 -4.66699 43 -8 57c238.667 269.333 415 404 529 404c32 0 48 -16.667 48 -50c0 -36 -49.667 -148.5 -149 -337.5s-149 -308.167 -149 -357.5c0 -29.333 13.333 -44 40 -44
c54 0 126.667 50.667 218 152c61.333 67.333 119.333 142.666 174 225.999z" />
    <glyph glyph-name="adieresis" unicode="&#xe4;" horiz-adv-x="713" 
d="M883 979c0 -170.667 -56.333 -340.003 -169 -508.003c-98 -146.667 -225.333 -275 -382 -385c-94 -66 -169 -99 -225 -99c-31.333 0 -56.333 10.667 -75 32s-28 48 -28 80c0 138 62.333 275 187 411c107.333 116.667 232.666 207.334 375.999 272.001
c77.333 34.667 135 52 173 52c10.667 0 16 -4 16 -12c0 -19.333 -20.667 -39 -62 -59c-31.333 -14.667 -61.666 -25 -90.999 -31c-125.333 -26 -231.333 -94.667 -318 -206c-100.667 -130 -151 -249 -151 -357c0 -52 22.667 -78 68 -78c67.333 0 146 40 236 120
c93.333 83.333 171.333 186 234 308c66 130 99 253.667 99 371c0 100.667 -24.667 187.667 -74 261c-56.667 84 -133 126 -229 126c-55.333 0 -102.333 -15.667 -141 -47c-41.333 -34 -62 -78 -62 -132c0 -23.333 7.66699 -57.666 23 -102.999
c-56.667 -1.33301 -85 24.334 -85 77.001c0 72 42 140.333 126 205c78.667 60.667 155.667 91 231 91c100.667 0 181 -41 241 -123c54.667 -73.333 82 -162 82 -266z" />
    <glyph glyph-name="aring" unicode="&#xe5;" horiz-adv-x="594" 
d="M717 781c0 -63.333 -50.667 -129 -152 -197c-94.667 -64 -175 -96 -241 -96c-32 0 -54 17.333 -66 52c28.667 -4 51.334 -6 68.001 -6c58 0 115 16 171 48c65.333 36.667 98 81.667 98 135c0 31.333 -20.667 47 -62 47c-82 0 -164 -53.667 -246 -161
c-112.667 -147.333 -169 -290 -169 -428c0 -68 28.667 -102 86 -102c74.667 0 149 44.333 223 133c56 67.333 102.667 146 140 236c10 -17.333 15 -33.333 15 -48c0 -76 -58.333 -163 -175 -261c-114 -96 -210.333 -144 -289 -144c-77.333 0 -116 44.333 -116 133
c0 136.667 47 269.667 141 399c89.333 122.667 199 214 329 274c63.333 29.333 119.666 44 168.999 44c50.667 0 76 -19.333 76 -58z" />
    <glyph glyph-name="ae" unicode="&#xe6;" horiz-adv-x="1274" 
d="M1397 793c0 -58 -47.3291 -121.667 -141.996 -191c-7.33301 1.33301 -11 5 -11 11c0 4.66699 5 21 15 49s15 50.333 15 67c0 31.333 -21 47 -63 47c-82 0 -164.667 -54.333 -248 -163c-113.333 -148 -170 -291.667 -170 -431c0 -68.667 28.667 -103 86 -103
c74.667 0 149.667 45 225 135c58 68.667 105.333 147.667 142 237c10 -17.333 15 -33.333 15 -48c0 -76 -59 -163.667 -177 -263c-114.667 -97.333 -211.667 -146 -291 -146c-78 0 -117 44.667 -117 134c0 99.333 32.667 209.333 98 330h-69l-126 -330
c-22 -57.333 -55.333 -103 -100 -137l-34 3c29.333 59.333 57.666 135.666 84.999 228.999l67 235h-65c-57.333 -98.667 -148.333 -199.334 -273 -302.001c-140 -115.333 -257 -173 -351 -173c-40 0 -74.667 11.333 -104 34c-7.33301 12.667 -11 26.667 -11 42
c0 46.667 30 91 90 133c3.33301 -34 16.166 -62.667 38.499 -86s50.166 -35 83.499 -35c98 0 198.667 74 302 222c97.333 138.667 146 260.334 146 365.001c0 64 -23.333 96 -70 96c-66.667 0 -130.334 -66.667 -191.001 -200c-4 14.667 -6 29.334 -6 44.001
c0 53.333 32.333 107.833 97 163.5s124.334 83.5 179.001 83.5c42 0 76.333 -16.667 103 -50c24.667 -30.667 37 -67.667 37 -111c0 -61.333 -17.667 -126.333 -53 -195c41.333 6 76.333 40 105 102c43.333 94 85.333 163.667 126 209l36 40c7.33301 0.666992 15.333 1 24 1
l41 -1c-44.667 -56 -99.334 -173 -164.001 -351h75c53.333 89.333 128.666 170 225.999 242c108.667 80.667 209.334 121 302.001 121c51.333 0 77 -19.667 77 -59z" />
    <glyph glyph-name="ccedilla" unicode="&#xe7;" horiz-adv-x="560" 
d="M557 731c0 -103.333 -37.166 -191.83 -111.499 -265.497s-163.833 -114.5 -268.5 -122.5l-4 -24h15c68 2 123.833 -19 167.5 -63s65.5 -100.333 65.5 -169c0 -90.667 -50.667 -202.334 -152 -335.001c-92 -118.667 -183.167 -205.834 -273.5 -261.501
s-180.833 -83.5 -271.5 -83.5c-74.667 0 -112 32.333 -112 97c0 14.667 3.66699 30.667 11 48c57.333 -48.667 120.333 -73 189 -73c135.333 0 265.333 108 390 324c72.667 125.333 109 226.333 109 303c0 44 -11 81 -33 111c-24.667 34 -58 51 -100 51
c-54.667 0 -105.667 -12.667 -153 -38c10.667 14 31 59.333 61 136c96 2 173.667 23.667 233 65c70 48.667 105 118.667 105 210c0 36.667 -7.33301 69 -22 97c-18 35.333 -43.667 53 -77 53c-34 0 -67.667 -16 -101 -48c-30.667 -30 -50.334 -62.667 -59.001 -98
c-21.333 12 -32 26.333 -32 43c0 41.333 39.333 78.666 118 111.999c66 28 124.333 42 175 42c87.333 0 131 -37 131 -111z" />
    <glyph glyph-name="egrave" unicode="&#xe8;" horiz-adv-x="747" 
d="M835 825c-36 -68.667 -87.9971 -182.332 -155.997 -340.999c-77.333 -181.333 -116 -288 -116 -320c0 -20 11 -30 33 -30c19.333 0 46 6.66699 80 20l13 -27c-40 -22 -129.333 -59.333 -268 -112c15.333 105.333 48.666 221.333 99.999 348
c-184 -232 -329 -348 -435 -348c-44 0 -66 24 -66 72c0 63.333 40.5 175.666 121.5 336.999s121.5 255 121.5 281c0 22 -11.333 33 -34 33c-12 0 -31 -4 -57 -12l-8 30c107.333 31.333 190.333 60 249 86c-2.66699 -72.667 -49.334 -196 -140.001 -370s-136 -282 -136 -324
c0 -27.333 12.667 -41 38 -41c63.333 0 151.666 72 264.999 216c102 130 188.667 285 260 465c38.667 4 83.667 16.333 135 37z" />
    <glyph glyph-name="eacute" unicode="&#xe9;" horiz-adv-x="716" 
d="M821 1083c-62 -89.333 -127.999 -133.999 -197.999 -133.999c-84 0 -149.333 43 -196 129l50 70c36 -78 93 -117 171 -117c25.333 0 54.666 7 87.999 21c36 15.333 59.667 32.666 71 51.999zM804.001 825.001c-36 -68.667 -87.998 -182.332 -155.998 -340.999
c-77.333 -181.333 -116 -288 -116 -320c0 -20 11 -30 33 -30c19.333 0 46 6.66699 80 20l13 -27c-40 -22 -129.333 -59.333 -268 -112c15.333 105.333 48.666 221.333 99.999 348c-184 -232 -329 -348 -435 -348c-44 0 -66 24 -66 72c0 63.333 40.5 175.666 121.5 336.999
s121.5 255 121.5 281c0 22 -11.333 33 -34 33c-12 0 -31 -4 -57 -12l-8 30c107.333 31.333 190.333 60 249 86c-2.66699 -72.667 -49.334 -196 -140.001 -370s-136 -282 -136 -324c0 -27.333 12.667 -41 38 -41c63.333 0 151.666 72 264.999 216
c102.667 130 189.334 285 260.001 465c38.667 4 83.667 16.333 135 37z" />
    <glyph glyph-name="ecircumflex" unicode="&#xea;" horiz-adv-x="783" 
d="M893 778c0 -34 -41.6689 -68.001 -125.002 -102.001l-14 17c1.33301 7.33301 2 14.666 2 21.999c0 36 -19.667 54 -59 54c-56.667 0 -125.667 -31.333 -207 -94c-68 -53.333 -123 -109 -165 -167l12 1c26.667 2 61.334 -6.33301 104.001 -25s73 -38.334 91 -59.001
c14 -16 21 -49.333 21 -100v1c-1.33301 -1.33301 -2.66602 -4.33301 -3.99902 -9l-8 -27c-10.667 -35.333 -22.667 -78.666 -36 -129.999c-4 -15.333 -6 -27.666 -6 -36.999c0 -39.333 17 -59 51 -59c36 0 70.333 27.667 103 83c24 39.333 42.333 83 55 131
c13.333 -20 20 -39.667 20 -59c0 -49.333 -29.667 -100.166 -89 -152.499s-114.333 -78.5 -165 -78.5c-63.333 0 -95 34 -95 102c0 28.667 12.5 72.834 37.5 132.501s37.5 101.5 37.5 125.5c0 74.667 -51.667 112 -155 112c-6.66699 0 -16.334 -0.666992 -29.001 -2
l-165 -422c-30 -6.66699 -75.333 -20.667 -136 -42c42 88 93.333 208.333 154 361c75.333 188 113 301.333 113 340c0 25.333 -12.333 38 -37 38c-9.33301 0 -29 -4.66699 -59 -14l-9 30c73.333 25.333 159 65.666 257 120.999
c-9.33301 -95.333 -38.666 -205.333 -87.999 -330c67.333 80.667 141.333 146.667 222 198c96 61.333 188.333 92 277 92c62.667 0 94 -17.333 94 -52z" />
    <glyph glyph-name="edieresis" unicode="&#xeb;" horiz-adv-x="668" 
d="M740 799c0 -38 -48.6689 -151.001 -146.002 -339.001s-146 -295.333 -146 -322c0 -19.333 9 -29 27 -29c24 0 53.667 12.333 89 37l16 -27c-80.667 -59.333 -177 -100 -289 -122c8.66699 80.667 61 221 157 421c93.333 194.667 140 293.667 140 297
c0 18.667 -7.33301 28 -22 28c-30 0 -86.667 -38.333 -170 -115c-86 -79.333 -155.333 -158 -208 -236c-43.333 -64.667 -93.666 -157.667 -150.999 -279c-34 -82.667 -88.667 -203.667 -164 -363c-50 -92 -117.667 -166.333 -203 -223c-90.667 -60.667 -186 -91 -286 -91
c-80.667 0 -121 32 -121 96c0 14 3.66699 30 11 48c58.667 -48.667 122.667 -73 192 -73c86 0 159 30.667 219 92c40.667 42 84.334 111 131.001 207c38.667 82.667 99 205.334 181 368.001c64 118.667 123.833 213 179.5 283s134.5 148.667 236.5 236
c120.667 103.333 213.667 155 279 155c32 0 48 -16.333 48 -49z" />
    <glyph glyph-name="igrave" unicode="&#xec;" horiz-adv-x="1101" 
d="M1176 805c0 -24 -43.8301 -129.167 -131.497 -315.5s-131.5 -300.833 -131.5 -343.5c0 -18 8.66699 -27 26 -27c14 0 36.333 9.33301 67 28l16 -27c-72.667 -52 -158 -94 -256 -126c2 92.667 44 235.334 126 428.001c80.667 190.667 121 284.667 121 282
c0 12 -7.33301 18 -22 18c-36.667 0 -102.334 -51.667 -197.001 -155c-122 -132.667 -217.667 -304.667 -287 -516c-38.667 -9.33301 -86.334 -28.333 -143.001 -57c166 410 249 643.667 249 701c0 20 -9 30 -27 30c-26 0 -71.667 -32.333 -137 -97
c-160.667 -159.333 -288.667 -352 -384 -578c-62 -34 -100.667 -51 -116 -51l-15 2c66.667 140.667 182.667 308 348 502c193.333 228.667 341.666 343 444.999 343c30.667 0 46 -16.333 46 -49c0 -48.667 -34.333 -157 -103 -325c60 79.333 130.333 155.666 211 228.999
c108 97.333 192.667 146 254 146c27.333 0 41 -14 41 -42z" />
    <glyph glyph-name="iacute" unicode="&#xed;" horiz-adv-x="781" 
d="M894 848c-8.66699 -21.333 -72.6641 -146.667 -191.997 -376c-102 -196.667 -153 -309 -153 -337c0 -19.333 9 -29 27 -29c24 0 53.667 12.333 89 37l16 -27c-80.667 -60 -177 -100.667 -289 -122c10.667 94 71 252.333 181 475l-142 -22
c-6.66699 3.33301 -10 17.333 -10 42c0 13.333 -4.33301 20 -13 20c-18.667 0 -57.667 -9.33301 -117 -28c-56.667 -155.333 -119.667 -302.333 -189 -441c-52 -11.333 -102.333 -27.333 -151 -48c67.333 136.667 131 282 191 436c-29.333 -11.333 -53.333 -21 -72 -29l4 38
c19.333 8.66699 47.666 20 84.999 34c50.667 129.333 76 207.333 76 234c0 23.333 -10 35 -30 35c-9.33301 0 -35 -6 -77 -18l-6 32c97.333 28 187.333 60.667 270 98c3.33301 -4.66699 7.66602 -11.667 12.999 -21c-32 -110 -65.333 -213.667 -100 -311
c76 22.667 129.333 34 160 34c7.33301 0 13.166 -9.16699 17.499 -27.5s10.5 -27.5 18.5 -27.5c18.667 0 51 6.33301 97 19l158 305c18 0 64 8.33301 138 25z" />
    <glyph glyph-name="icircumflex" unicode="&#xee;" horiz-adv-x="679" 
d="M756 787c0 -10.667 -4.33301 -26.998 -13 -48.998c-36 3.33301 -67 5 -93 5c-221.333 0 -381.333 -118.667 -480 -356c-32.667 -78.667 -49 -146.334 -49 -203.001c0 -74.667 33.667 -112 101 -112c77.333 0 157.333 59.333 240 178c77.333 112 116 209.333 116 292
c0 51.333 -18.667 77 -56 77c-53.333 0 -104.333 -53.333 -153 -160c-3.33301 14 -5 25.667 -5 35c0 42.667 26.333 86.667 79 132c50.667 44 98 66 142 66c34 0 61.667 -13.333 83 -40c19.333 -24 29 -53.667 29 -89c0 -112.667 -67.667 -232.334 -203 -359.001
c-143.333 -134 -262.333 -201 -357 -201c-39.333 0 -71.166 14 -95.499 42s-36.5 62 -36.5 102c0 134.667 57.667 265.667 173 393c104 115.333 224.667 198 362 248c69.333 25.333 125.666 38 168.999 38c31.333 0 47 -13 47 -39z" />
    <glyph glyph-name="idieresis" unicode="&#xef;" horiz-adv-x="797" 
d="M859 784c0 -35.333 -48 -145.67 -144 -331.003s-144 -290.666 -144 -315.999c0 -19.333 9 -29 27 -29c23.333 0 52.333 12.333 87 37l16 -27c-79.333 -58.667 -174 -98.667 -284 -120c8.66699 78.667 60 216.334 154 413.001c92 192 138 290 138 294
c0 18 -7.33301 27 -22 27c-29.333 0 -85 -37.667 -167 -113c-172.667 -159.333 -307.334 -351 -404.001 -575c-30 -6.66699 -74.333 -22.667 -133 -48c45.333 92.667 99 213.334 161 362.001c78.667 188 118 301.333 118 340c0 22.667 -9.66699 34 -29 34
c-9.33301 0 -34.666 -6 -75.999 -18l-6 32c96 27.333 184.667 59.333 266 96c1.33301 -8.66699 2 -14.667 2 -18c0 -60 -48.333 -196.333 -145 -409c244.667 280.667 423.667 421 537 421c32 0 48 -17.333 48 -52z" />
    <glyph glyph-name="eth" unicode="&#xf0;" horiz-adv-x="645" 
d="M673 626c0 -153.333 -61.333 -297.998 -184 -433.998c-97.333 -107.333 -183.333 -161 -258 -161c-40.667 0 -61 18 -61 54c0 12.667 4.33301 27 13 43c33.333 -22 62.333 -33 87 -33c82 0 156 57.333 222 172c58.667 102 88 198 88 288c0 108 -67.333 164.667 -202 170
l-478 -1231c-32.667 -14 -71.667 -26.667 -117 -38c32.667 71.333 85 202.666 157 393.999l218 598c50.667 11.333 92.334 48.666 125.001 111.999c5.33301 11.333 25.666 66.333 60.999 165l-26 1c-40.667 1.33301 -89.667 -2 -147 -10l-54 -138l-28 12l86 227
c6 1.33301 75 5.33301 207 12l62 176h33l-60 -177c170.667 0 256 -67.333 256 -202z" />
    <glyph glyph-name="ntilde" unicode="&#xf1;" horiz-adv-x="606" 
d="M736 841l-141.001 -263.001h-35c28.667 60.667 43 101.334 43 122.001c0 24 -23.667 36 -71 36c-88 0 -162 -39 -222 -117c-46.667 -60 -87 -127 -121 -201c-40 -86.667 -60 -160.667 -60 -222c0 -75.333 32.667 -113 98 -113c80 0 154.667 38.333 224 115
c43.333 48 91.333 121.667 144 221c7.33301 -12.667 11 -25.667 11 -39c0 -77.333 -59.333 -163 -178 -257c-114.667 -90 -213 -135 -295 -135c-88.667 0 -133 49.667 -133 149c0 155.333 77 311.833 231 469.5s308.667 236.5 464 236.5
c8.66699 0 22.334 -0.666992 41.001 -2z" />
    <glyph glyph-name="ograve" unicode="&#xf2;" horiz-adv-x="1111" 
d="M1168 798c0 -23.333 -43.166 -126.834 -129.499 -310.501s-129.5 -296.5 -129.5 -338.5c0 -17.333 8.66699 -26 26 -26c13.333 0 35.333 9 66 27l16 -26c-71.333 -51.333 -155.333 -92.666 -252 -123.999c2 90 42.833 229.167 122.5 417.5s119.5 280.166 119.5 275.499
c0 16 -7 24 -21 24c-36 0 -100.667 -51 -194 -153c-120.667 -132 -214.667 -301.333 -282 -508c-38.667 -9.33301 -85.667 -28 -141 -56c163.333 416 245 646 245 690c0 19.333 -9 29 -27 29c-32.667 0 -84.667 -42.667 -156 -128c-118.667 -142 -221.667 -322 -309 -540
l-134 -49c40.667 87.333 91 205 151 353c74.667 184.667 112 293 112 325c0 22 -9.33301 33 -28 33c-14 0 -34.333 -6 -61 -18l-12 32c57.333 22 139.333 66.333 246 133c2 -15.333 3 -28.666 3 -39.999c0 -54.667 -34.667 -167 -104 -337c185.333 236.667 329 355 431 355
c30 0 45 -16 45 -48c0 -48 -33.667 -154.667 -101 -320c59.333 78.667 128.666 153.667 207.999 225c106 96 189.333 144 250 144c26.667 0 40 -13.667 40 -41z" />
    <glyph glyph-name="oacute" unicode="&#xf3;" horiz-adv-x="780" 
d="M894 840c-95.333 -182 -173.664 -360.001 -234.997 -534.001c-71.333 -202 -123.666 -338 -156.999 -408c-75.333 -158.667 -161 -272.667 -257 -342c-104.667 -76 -206 -114 -304 -114c-34.667 0 -64 7.66699 -88 23c-28.667 18 -43 43.333 -43 76
c0 16 3.66699 32.667 11 50c60 -50 126 -75 198 -75c87.333 0 159.666 29.667 216.999 89c37.333 38.667 79.666 107.667 126.999 207c27.333 57.333 59 145 95 263c36 120.667 66.667 208.334 92 263.001c-186 -229.333 -332.333 -344 -439 -344
c-45.333 0 -68 26.333 -68 79c0 64 42.167 180.5 126.5 349.5s126.5 266.5 126.5 292.5c0 22.667 -12 34 -36 34c-12 0 -31.667 -4 -59 -12l-8 31c112 33.333 198.667 63.333 260 90c-2.66699 -74.667 -51.5 -203.5 -146.5 -386.5s-142.5 -295.833 -142.5 -338.5
c0 -28.667 13.333 -43 40 -43c65.333 0 157.666 75.333 276.999 226c107.333 135.333 197.666 297 270.999 485c40.667 4.66699 88 17.667 142 39z" />
    <glyph glyph-name="ocircumflex" unicode="&#xf4;" horiz-adv-x="1066" 
d="M1381 1371c0 -9.33301 -22.667 -79.333 -68 -210h-33c13.333 40.667 20 71 20 91c0 37.333 -30.667 56 -92 56c-134 0 -243.333 -74.667 -328 -224c-36 -63.333 -87 -197 -153 -401c112 96.667 213.333 145 304 145c88.667 0 133 -50 133 -150
c0 -109.333 -41.333 -223 -124 -341c-72.667 -103.333 -160.334 -189.333 -263.001 -258c-84.667 -56.667 -154.334 -85 -209.001 -85c-39.333 0 -64.333 9 -75 27l-10 -30c-22.667 0 -40 -4 -52 -12c-9.33301 -5.33301 -38.666 -58 -87.999 -158
c-55.333 -112 -107.666 -197 -156.999 -255c-76 -89.333 -156.333 -134 -241 -134c-64.667 0 -97 26 -97 78c0 8.66699 1.33301 18 4 28c35.333 -9.33301 70.666 -14 105.999 -14c124 0 230 75 318 225c36.667 62.667 90.334 193 161.001 391
c-115.333 -101.333 -219.333 -152 -312 -152c-88.667 0 -133 50 -133 150s36 204.667 108 314c53.333 81.333 117 155 191 221c88.667 80 171.667 128.667 249 146c8.66699 2 24.334 3 47.001 3c37.333 0 61.666 -7.66699 72.999 -23c46.667 126 96 225.333 148 298
c62.667 88 144.667 162 246 222c91.333 54 177.333 81 258 81c46 0 69 -9.66699 69 -29zM1034 619c0 75.333 -32.668 113.001 -98.001 113.001c-83.333 0 -162.666 -43.333 -237.999 -130l-129 -366h34c-28.667 -60.667 -43 -101.334 -43 -122.001
c0 -32.667 22.333 -49 67 -49c99.333 0 194 68.333 284 205c82 126 123 242.333 123 349zM595.999 702.001c0 32.667 -22.666 48.999 -67.999 48.999c-100.667 0 -195.334 -69.333 -284.001 -208c-81.333 -126.667 -122 -242.667 -122 -348c0 -74 32.333 -111 97 -111
c87.333 0 170 47 248 141l120 355h-34c28.667 60.667 43 101.334 43 122.001z" />
    <glyph glyph-name="otilde" unicode="&#xf5;" horiz-adv-x="970" 
d="M1053 812c-40.667 -83.333 -78.332 -165.669 -112.999 -247.002l-32 6c16.667 44 25 74.667 25 92c0 26.667 -20 40 -60 40c-82 0 -165.333 -61 -250 -183c-78.667 -114.667 -118 -215.667 -118 -303c0 -37.333 11.667 -67.666 35 -90.999s53.666 -35 90.999 -35
c74 0 137.333 35.333 190 106c44.667 59.333 73.334 129.333 86.001 210c15.333 -18.667 23 -40.667 23 -66c0 -70.667 -44.667 -145.167 -134 -223.5s-170 -117.5 -242 -117.5c-100 0 -150 51 -150 153c0 18.667 2.66699 40 8 64l-157 -136
c-71.333 -53.333 -133 -80 -185 -80c-28.667 0 -54.334 7.66699 -77.001 23c-26 17.333 -39 39.333 -39 66c0 20 8.66699 44 26 72c22.667 -60.667 68 -91 136 -91c95.333 0 192.333 78 291 234c90.667 143.333 136 265 136 365c0 56.667 -25 85 -75 85
c-32.667 0 -67.667 -11.667 -105 -35c-101.333 -63.333 -155.666 -162 -162.999 -296c-17.333 20.667 -26 47 -26 79c0 73.333 45.333 148 136 224c87.333 74 168.666 111 243.999 111c70 0 105 -40 105 -120c0 -27.333 -5.66699 -60.666 -17 -99.999l153 134
c63.333 47.333 124.666 71 183.999 71c24.667 0 49.334 -3.66699 74.001 -11z" />
    <glyph glyph-name="odieresis" unicode="&#xf6;" horiz-adv-x="790" 
d="M838 841c-37.333 -70.667 -91.001 -188 -161.001 -352c-80 -187.333 -120 -297.666 -120 -330.999c0 -20.667 11.333 -31 34 -31c24.667 0 64.334 10.667 119.001 32c6 -10 9 -22.333 9 -37c0 -30 -16.333 -79.333 -49 -148l-71 -136h-144l120 194l1 10
c0 10.667 -3.66699 16 -11 16c-2.66699 0 -54.334 -18 -155.001 -54c15.333 108 49.666 228 102.999 360c-189.333 -240 -339 -360 -449 -360c-45.333 0 -68 26 -68 78c0 64 41.833 179.5 125.5 346.5s125.5 263.167 125.5 288.5c0 22.667 -12 34 -36 34
c-11.333 0 -30.666 -4 -57.999 -12l-9 31c111.333 32.667 197.333 62.334 258 89.001c-2.66699 -74.667 -51 -202.334 -145 -383.001s-141 -292.334 -141 -335.001c0 -28 13 -42 39 -42c66.667 0 158.334 74.333 275.001 223c105.333 134 194.666 294.333 267.999 481
c40.667 4 87.334 16.667 140.001 38z" />
    <glyph glyph-name="divide" unicode="&#xf7;" horiz-adv-x="701" 
d="M749 839c-39.333 -76 -93.001 -193.332 -161.001 -351.999c-80.667 -187.333 -121 -298.333 -121 -333c0 -20.667 11.333 -31 34 -31c20.667 0 48.334 7 83.001 21l13 -28c-40.667 -23.333 -133 -62 -277 -116c-2 5.33301 -3 12.666 -3 21.999c0 48.667 29 145 87 289
l126 297l-193 -186c-92 -79.333 -167.333 -119 -226 -119c-45.333 0 -68 24.667 -68 74s18.833 112.166 56.5 188.499s56.5 125.833 56.5 148.5s-11.667 34 -35 34c-11.333 0 -31 -4 -59 -12l-8 31c111.333 32.667 197.333 62.334 258 89.001l1 -13
c2.66699 -40 -21.333 -108 -72 -204c-51.333 -98.667 -77 -165 -77 -199c0 -28 13 -42 39 -42c47.333 0 142 72.333 284 217c54 55.333 94.667 117 122 185c40 4.66699 86.667 17.667 140 39z" />
    <glyph glyph-name="oslash" unicode="&#xf8;" horiz-adv-x="1099" 
d="M1180 843c-40.667 -87.333 -91.002 -204.998 -151.002 -352.998c-74.667 -184.667 -112 -293 -112 -325c0 -22 9.33301 -33 28 -33c14 0 34.333 6 61 18l12 -32c-57.333 -22 -139.333 -66.333 -246 -133c-1.33301 11.333 -2 23 -2 35c0 59.333 34.333 173.333 103 342
c-185.333 -236.667 -329 -355 -431 -355c-30 0 -45 16 -45 48c0 48 33.667 154.667 101 320c-61.333 -80 -130.666 -155 -207.999 -225c-105.333 -96 -188.666 -144 -249.999 -144c-26.667 0 -40 13.667 -40 41c0 23.333 43.167 126.833 129.5 310.5
s129.5 296.5 129.5 338.5c0 17.333 -8.66699 26 -26 26c-13.333 0 -35.333 -9 -66 -27l-16 26c74.667 52.667 158.667 94 252 124c-2 -90.667 -43 -230.334 -123 -419.001s-120 -282 -120 -280c0 -12 7.33301 -18 22 -18c12 0 38.667 16 80 48
c175.333 136 307.333 340.333 396 613c38 9.33301 85 28 141 56c-163.333 -403.333 -245 -633.333 -245 -690c0 -19.333 9 -29 27 -29c34 0 86.333 42.333 157 127c117.333 141.333 220 321.666 308 540.999z" />
    <glyph glyph-name="ugrave" unicode="&#xf9;" horiz-adv-x="1152" 
d="M1166 840c-36 -75.333 -86 -192.33 -150 -350.997c-74.667 -185.333 -112 -294 -112 -326c0 -22 9.33301 -33 28 -33c13.333 0 64 17.667 152 53c5.33301 -9.33301 8 -20.666 8 -33.999c0 -30 -16.667 -79.333 -50 -148l-72 -137h-139c84 134 126 203 126 207
c0 8.66699 -4.33301 13 -13 13c-16 0 -77.667 -33.333 -185 -100c-1.33301 11.333 -2 22.666 -2 33.999c0 62 34.333 176 103 342c-185.333 -236 -329 -354 -431 -354c-30 0 -45 16 -45 48c0 47.333 33.667 153.666 101 318.999
c-61.333 -80.667 -130.333 -155.667 -207 -225c-104.667 -95.333 -188 -143 -250 -143c-26.667 0 -40 13.667 -40 41c0 22.667 43.167 125.667 129.5 309s129.5 296.333 129.5 339c0 17.333 -8.66699 26 -26 26c-13.333 0 -35.333 -9 -66 -27l-16 26
c72 51.333 156 92.333 252 123c-2 -90.667 -43 -230.334 -123 -419.001s-120 -281.334 -120 -278.001c0 -12 7.33301 -18 22 -18c44.667 0 111 53.333 199 160c124 150.667 216 317 276 499c38.667 9.33301 85.667 28 141 56c-163.333 -400 -245 -629.667 -245 -689
c0 -18.667 9 -28 27 -28c33.333 0 85.333 42.333 156 127c117.333 140 220 319.667 308 539z" />
    <glyph glyph-name="uacute" unicode="&#xfa;" horiz-adv-x="747" 
d="M809 590c0 -36 -13.667 -82.668 -41 -140.001c-58 -122 -153.333 -226.667 -286 -314c-134.667 -89.333 -268.667 -134.666 -402 -135.999c48.667 102 102 222 160 360c80 189.333 120 302.333 120 339c0 14 -5.33301 24.667 -16 32c-6 -1.33301 -13 -2 -21 -2
c-24 0 -55.333 8 -94 24c-10.667 -87.333 -35 -158.666 -73 -213.999h-116c34.667 55.333 67 152 97 290c89.333 -30 149.333 -45 180 -45c54.667 0 122 20.333 202 61c-2 -49.333 -50.667 -190.333 -146 -423c46 63.333 98.667 116.666 158 159.999
c72 51.333 140.667 77 206 77c48 0 72 -23 72 -69zM652 501.999c0 32 -15.335 48 -46.002 48c-67.333 0 -142 -59.333 -224 -178c-56 -80.667 -105.667 -171.667 -149 -273c12.667 -2 25.334 -3 38.001 -3c86.667 0 172.334 46.333 257.001 139
c82.667 91.333 124 180.333 124 267z" />
    <glyph glyph-name="ucircumflex" unicode="&#xfb;" horiz-adv-x="967" 
d="M1081 837c-10 -24 -71 -147.667 -183 -371c-96 -193.333 -144 -300.333 -144 -321c0 -19.333 9 -29 27 -29c23.333 0 52.333 12.333 87 37l16 -27c-78.667 -58.667 -173 -98.667 -283 -120c10.667 96.667 59 231.334 145 404.001c128 255.333 193.667 387.333 197 396
c68.667 3.33301 114.667 13.666 138 30.999zM733 592c0 -34 -14 -80.665 -42 -139.998c-58 -122.667 -154 -228.334 -288 -317.001s-268.333 -133.667 -403 -135c44.667 92.667 97 210 157 352c78.667 186 118 296 118 330c0 20 -12 30 -36 30
c-14.667 0 -38.334 -6 -71.001 -18l-11 31c77.333 25.333 172 66.666 284 123.999c-2 -49.333 -50.667 -191.333 -146 -426c44.667 63.333 97.334 117 158.001 161c72.667 52 141.667 78 207 78c48.667 0 73 -23.333 73 -70zM575 502.002c0 33.333 -15.334 50 -46.001 50
c-66.667 0 -141.667 -59.333 -225 -178c-57.333 -82.667 -107.333 -174 -150 -274c12.667 -2.66699 25.334 -4 38.001 -4c73.333 0 144.333 32 213 96c57.333 54 103.333 119.333 138 196c21.333 46.667 32 84.667 32 114z" />
    <glyph glyph-name="udieresis" unicode="&#xfc;" horiz-adv-x="666" 
d="M732 584c0 -74 -35.6689 -155.333 -107.002 -244c-56 -70 -123 -132.667 -201 -188c-140 -100 -281.333 -150.667 -424 -152c44.667 92.667 97.334 210.334 158.001 353.001c78 185.333 117 295 117 329c0 20 -12 30 -36 30c-15.333 0 -39 -6 -71 -18l-11 31
c77.333 25.333 172 66.666 284 123.999c-2 -49.333 -50.667 -191.333 -146 -426c44.667 63.333 97.334 117 158.001 161c72.667 52 141.667 78 207 78c48 0 72 -26 72 -78zM574.998 504c0 32 -15.334 48 -46.001 48c-66.667 0 -141.667 -59.333 -225 -178
c-57.333 -82.667 -107.333 -174 -150 -274c12.667 -2.66699 25.334 -4 38.001 -4c86 0 172 47 258 141c83.333 92 125 181 125 267z" />
    <glyph glyph-name="yacute" unicode="&#xfd;" horiz-adv-x="625" 
d="M695 493c0 -8 -5.00098 -17.332 -15.001 -27.999l-56 -1c-80 -190 -215.667 -330 -407 -420c-62.667 -29.333 -118.667 -44 -168 -44c-52 0 -78 25.333 -78 76c0 56.667 38.667 127 116 211c15.333 -2 22 -14.333 20 -37c-20.667 -34.667 -31 -70.334 -31 -107.001
c0 -48 24.333 -72 73 -72c77.333 0 155 46.333 233 139c61.333 73.333 109.333 155.666 144 246.999c-121.333 -14 -238 -48.667 -350 -104c-15.333 4 -23 9.66699 -23 17c0 25.333 58 54.333 174 87c88.667 24.667 160.334 40.334 215.001 47.001
c18 56.667 27 108.667 27 156c0 75.333 -34 113 -102 113c-124 0 -205.333 -89.333 -244 -268c-16 23.333 -24 43.666 -24 60.999c0 60.667 28.667 118.667 86 174c52 50 109.333 82.333 172 97c23.333 5.33301 55.333 8 96 8c86.667 0 130 -45.333 130 -136
c0 -55.333 -13.333 -120.333 -40 -195l32 1c13.333 -5.33301 20 -12.666 20 -21.999z" />
    <glyph glyph-name="thorn" unicode="&#xfe;" horiz-adv-x="1014" 
d="M1111 802c0 -12.667 -4.00098 -29.999 -12.001 -51.999c-38 3.33301 -70 5 -96 5c-214 0 -371.333 -106 -472 -318l36 9l-14 -46c-13.333 -5.33301 -28 -10 -44 -14c-32.667 -82.667 -49 -151 -49 -205c0 -32.667 9.33301 -60 28 -82s44 -33 76 -33
c78.667 0 160.334 61 245.001 183c80 114.667 120 214.334 120 299.001c0 52.667 -19 79 -57 79c-54.667 0 -107.334 -54.667 -158.001 -164c-3.33301 14 -5 26 -5 36c0 43.333 26.667 88 80 134s102.333 69 147 69c36 0 64.333 -12.833 85 -38.5s31 -56.834 31 -93.501
c0 -116 -69.667 -239 -209 -369c-147.333 -137.333 -269.666 -206 -366.999 -206c-40.667 0 -73.334 14.333 -98.001 43s-37 63.667 -37 105c0 66.667 19 140.667 57 222l-50 -8c-6 3.33301 -9.33301 17 -10 41v14c-58 -153.333 -113.667 -283 -167 -389
c-28 -3.33301 -76.333 -15.333 -145 -36c42 84.667 100 220 174 406c-78 -24 -155 -52.333 -231 -85l4 39c62.667 28 143.667 56.667 243 86c54 138.667 81 221.667 81 249c0 23.333 -10 35 -30 35c-10 0 -36 -6.33301 -78 -19l-6 33c98 28 189 61 273 99
c3.33301 -4.66699 7.66602 -11.667 12.999 -21c-35.333 -120.667 -72.666 -235.667 -111.999 -345c10 0.666992 19.833 -8.5 29.5 -27.5s21.5 -27.5 35.5 -25.5c58.667 105.333 150 201.666 274 288.999c132.667 93.333 255.334 140 368.001 140c31.333 0 47 -12.667 47 -38
z" />
    <glyph glyph-name="ydieresis" unicode="&#xff;" horiz-adv-x="750" 
d="M874 842c-8 -19.333 -69.666 -144.33 -184.999 -374.997c-97.333 -195.333 -146 -304 -146 -326c0 -19.333 9 -29 27 -29c23.333 0 52.666 12.333 87.999 37l16 -27c-80 -59.333 -175.667 -99.666 -287 -120.999c5.33301 45.333 22 105.666 50 180.999
c-52 -46.667 -111 -87.334 -177 -122.001c-77.333 -40 -145 -60 -203 -60c-52.667 0 -79 25.667 -79 77c0 58.667 39.333 130 118 214c15.333 -1.33301 22 -13.666 20 -36.999c-21.333 -36.667 -32 -72.334 -32 -107.001c0 -50 25 -75 75 -75c84.667 0 170 55.667 256 167
c34 43.333 79.333 110.666 136 201.999c32 66.667 48 140 48 220c0 82.667 -38.667 124 -116 124c-66 0 -127 -30.833 -183 -92.5s-84 -125.5 -84 -191.5c0 -71.333 35 -107 105 -107c84 0 160.667 57.667 230 173c0.666992 -64.667 -27.5 -126.334 -84.5 -185.001
s-118.167 -88 -183.5 -88c-84.667 0 -127 46.333 -127 139c0 108.667 39 206.334 117 293.001c80.667 90 174.667 135 282 135c84.667 0 131 -49 139 -147c10.667 22 24 54.333 40 97c66 3.33301 112.667 13.666 140 30.999z" />
    <glyph glyph-name="circumflex" unicode="&#x2c6;" horiz-adv-x="1024" 
d="M946 952c-23.333 -16 -55.332 -42.001 -95.999 -78.001c1.33301 18 2 38.333 2 61c0 81.333 -7.66699 122 -23 122c-8.66699 0 -36.834 -25 -84.501 -75s-83.167 -75 -106.5 -75c-8 0 -16.333 2.33301 -25 7c114 90 222.333 202 325 336
c0 -129.333 2.66699 -228.666 8 -297.999z" />
    <glyph glyph-name="tilde" unicode="&#x2dc;" horiz-adv-x="0" 
d="M986 1117c-118 -40.667 -214.333 -126 -289 -256c30 188.667 113.667 303 251 343z" />
    <glyph glyph-name="afii10023" unicode="&#x401;" horiz-adv-x="1800" 
d="M1579 1536c0 -17.333 -6.83203 -32.833 -20.499 -46.5s-28.834 -20.5 -45.501 -20.5c-32 0 -48 15.667 -48 47c0 18 7 33.667 21 47s30 20 48 20c30 0 45 -15.667 45 -47zM1371 1536c0 -17.333 -6.83203 -32.833 -20.499 -46.5s-28.834 -20.5 -45.501 -20.5
c-32 0 -48 15.667 -48 47c0 18 7 33.667 21 47s30 20 48 20c30 0 45 -15.667 45 -47zM1909 1432c-18 -52.667 -45.6699 -139.335 -83.0029 -260.002h-37c11.333 42 17 72.333 17 91c0 32.667 -34 49 -102 49c-65.333 0 -163.333 -0.333008 -294 -1s-228.667 -1 -294 -1
c-22 -88.667 -61.667 -229 -119 -421h718l-44 -118h-709c-54.667 -178.667 -97 -293 -127 -343c-55.333 -92.667 -147.666 -170.667 -276.999 -234c-51.333 -24.667 -93.666 -42.667 -126.999 -54c114 -38.667 267.667 -58 461 -58c64 0 160 3.16699 288 9.5
s224 9.5 288 9.5c94 0 170.667 37.333 230 112c52.667 66.667 82.334 149.334 89.001 248.001c26 -19.333 39 -49 39 -89c0 -46 -24 -98 -72 -156c-38 -46.667 -81.667 -86.667 -131 -120c-119.333 -80.667 -186.333 -121 -201 -121c-46.667 0 -116.167 -1 -208.5 -3
s-161.833 -3 -208.5 -3c-302 0 -526.333 24.667 -673 74c-97.333 32.667 -181.333 49 -252 49c-35.333 0 -74 -5.33301 -116 -16c31.333 37.333 56.666 77 75.999 119c18 5.33301 38 8 60 8c27.333 0 67.666 -4.16699 120.999 -12.5s93.333 -12.5 120 -12.5
c86 0 165.833 26.833 239.5 80.5s133.167 131.167 178.5 232.5c16 36 48 129.333 96 280h-187c1.33301 -11.333 2 -22.666 2 -33.999c0 -80.667 -27.333 -134.334 -82 -161.001c-70.667 -34.667 -144.667 -52 -222 -52c-78 0 -150.5 35.333 -217.5 106
s-100.5 145 -100.5 223c0 57.333 12.833 115.5 38.5 174.5s59.334 106.333 101.001 142s74.834 62.5 99.501 80.5c114 84.667 297.667 138.334 551 161.001c100 9.33301 296.333 14 589 14c160.667 0 304 1.66699 430 5zM1013 1309
c-63.333 -0.666992 -127.001 -1.66699 -191.001 -3c-74 -2 -137 -7.66699 -189 -17c-361.333 -64.667 -542 -208.667 -542 -432c0 -82 26.667 -147.333 80 -196c51.333 -47.333 118.333 -71 201 -71c56.667 0 109.334 12 158.001 36c60 29.333 90 69.333 90 120
c0 40 -25 87 -75 141l4 -1l-2 3h346c56 180.667 96 320.667 120 420z" />
    <glyph glyph-name="afii10053" unicode="&#x404;" horiz-adv-x="1557" 
d="M15 371c0 174 61.001 350.335 183.001 529.002l-40 56l-13 -55c-13.333 1.33301 -26 0 -38 -4c6.66699 65.333 21.667 143 45 233l119 -132c92.667 121.333 207.667 221 345 299c147.333 83.333 292.666 125 435.999 125c160.667 0 297 -50.667 409 -152
c116 -104.667 174 -236.334 174 -395.001c0 -138 -43.167 -249.333 -129.5 -334s-198.5 -127 -336.5 -127c-150.667 0 -318.334 47 -503.001 141c-168 86 -310.667 189 -428 309c-89.333 -132.667 -134 -255.334 -134 -368.001c0 -140.667 42.5 -252.834 127.5 -336.501
s197.833 -125.5 338.5 -125.5c72 0 137.667 11.333 197 34c80.667 30.667 121 76 121 136c0 71.333 -60.333 133.333 -181 186c-78.667 34 -171 60 -277 78c56 28.667 114.333 43 175 43c86.667 0 167.334 -27.333 242.001 -82c81.333 -59.333 122 -130.666 122 -213.999
c0 -84.667 -51 -145.667 -153 -183c-70.667 -25.333 -157.667 -38 -261 -38c-164 0 -287.667 21.667 -371 65c-112.667 59.333 -169 163.333 -169 312zM310.001 962.002c133.333 -128 273.998 -237.001 421.998 -327.001c188.667 -114.667 352.334 -172 491.001 -172
c101.333 0 185 32.5 251 97.5s99 148.5 99 250.5c0 162.667 -62 292.334 -186 389.001c-113.333 88 -253 132 -419 132c-279.333 0 -498.666 -123.333 -657.999 -370z" />
    <glyph glyph-name="afii10055" unicode="&#x406;" horiz-adv-x="1898" 
d="M1979 1536c0 -17.333 -6.83203 -32.833 -20.499 -46.5s-28.834 -20.5 -45.501 -20.5c-32 0 -48 15.667 -48 47c0 18 7 33.667 21 47s30 20 48 20c30 0 45 -15.667 45 -47zM2186 1365c-127.333 -398 -276.333 -704.333 -447 -919c-236 -296 -527 -444 -873 -444
c-190 0 -349.333 51.667 -478 155c-138.667 112 -208 261 -208 447c0 138.667 45.667 250 137 334c89.333 82 203.666 123 342.999 123c133.333 0 262 -42 386 -126c65.333 34.667 133 52 203 52c94.667 0 170.334 -33 227.001 -99c54 -62 81 -141.333 81 -238
c0 -90 -32.667 -195 -98 -315c-141.333 199.333 -304.666 368.333 -489.999 507c-92 -86 -138 -197.333 -138 -334c0 -56.667 8.66699 -117.667 26 -183c-60.667 44.667 -91 107 -91 187c0 124 57.333 241.333 172 352c-122.667 92 -238.667 138 -348 138
c-104.667 0 -190.334 -34 -257.001 -102s-100 -154.333 -100 -259c0 -176 81.333 -314 244 -414c138 -85.333 300.333 -128 487 -128c514 0 884 381 1110 1143h-703c-10 0 -24.833 0.333008 -44.5 1s-34.167 1 -43.5 1c-94 0 -155.667 -35.667 -185 -107l-37 8l87 220h1038z
M1515 627c0 84.667 -27.668 158.001 -83.001 220.001c-57.333 64 -127.666 96 -210.999 96c-42.667 0 -89 -10.333 -139 -31c134 -94.667 269.667 -235.334 407 -422.001c17.333 50 26 95.667 26 137z" />
    <glyph glyph-name="afii10056" unicode="&#x407;" horiz-adv-x="1898" 
d="M1979 1536c0 -17.333 -6.83203 -32.833 -20.499 -46.5s-28.834 -20.5 -45.501 -20.5c-32 0 -48 15.667 -48 47c0 18 7 33.667 21 47s30 20 48 20c30 0 45 -15.667 45 -47zM1771 1536c0 -17.333 -6.83203 -32.833 -20.499 -46.5s-28.834 -20.5 -45.501 -20.5
c-32 0 -48 15.667 -48 47c0 18 7 33.667 21 47s30 20 48 20c30 0 45 -15.667 45 -47zM2186 1365c-127.333 -398 -276.333 -704.333 -447 -919c-236 -296 -527 -444 -873 -444c-190 0 -349.333 51.667 -478 155c-138.667 112 -208 261 -208 447c0 138.667 45.667 250 137 334
c89.333 82 203.666 123 342.999 123c133.333 0 262 -42 386 -126c65.333 34.667 133 52 203 52c94.667 0 170.334 -33 227.001 -99c54 -62 81 -141.333 81 -238c0 -90 -32.667 -195 -98 -315c-141.333 199.333 -304.666 368.333 -489.999 507
c-92 -86 -138 -197.333 -138 -334c0 -56.667 8.66699 -117.667 26 -183c-60.667 44.667 -91 107 -91 187c0 124 57.333 241.333 172 352c-122.667 92 -238.667 138 -348 138c-104.667 0 -190.334 -34 -257.001 -102s-100 -154.333 -100 -259c0 -176 81.333 -314 244 -414
c138 -85.333 300.333 -128 487 -128c514 0 884 381 1110 1143h-703c-10 0 -24.833 0.333008 -44.5 1s-34.167 1 -43.5 1c-94 0 -155.667 -35.667 -185 -107l-37 8l87 220h1038zM1515 627c0 84.667 -27.668 158.001 -83.001 220.001c-57.333 64 -127.666 96 -210.999 96
c-42.667 0 -89 -10.333 -139 -31c134 -94.667 269.667 -235.334 407 -422.001c17.333 50 26 95.667 26 137z" />
    <glyph glyph-name="afii10062" unicode="&#x40e;" horiz-adv-x="1501" 
d="M1601 1699c-82.667 -104 -171.666 -156 -266.999 -156c-110.667 0 -197 50 -259 150l67 75c56 -86.667 131 -130 225 -130c63.333 0 135.666 26.333 216.999 79zM1838 1448c-17.333 -167.333 -59.335 -339.666 -126.002 -516.999c-70 -188 -154.333 -343.333 -253 -466
c-259.333 -324 -544.333 -486 -855 -486c-167.333 0 -309.666 51 -426.999 153c-122.667 107.333 -184 243.333 -184 408c0 144 48.667 261.667 146 353c95.333 89.333 215.666 134 360.999 134c136 0 278 -51 426 -153c124 -86 234.333 -193 331 -321l13 57l10 -1
c8.66699 0 18.667 1.66699 30 5c-7.33301 -66.667 -23.333 -146.334 -48 -239.001c-306.667 394.667 -587.667 592 -843 592c-103.333 0 -189.333 -34.333 -258 -103s-103 -154.667 -103 -258c0 -166 65.667 -299 197 -399c120 -90.667 265.333 -136 436 -136
c478.667 0 806 357.667 982 1073c-150 -212.667 -289.667 -319 -419 -319c-86 0 -157.667 45.667 -215 137c-35.333 56 -69.333 139.667 -102 251c-29.333 100.667 -102.666 151 -219.999 151c-83.333 0 -166.666 -18.667 -249.999 -56l-230 -103l-48 31l278 131
c123.333 51.333 222.333 77 297 77c104.667 0 182 -44.333 232 -133c137.333 -244 247.333 -366 330 -366c57.333 0 137 68 239 204c98.667 132 149.667 230 153 294z" />
    <glyph glyph-name="afii10017" unicode="&#x410;" horiz-adv-x="1683" 
d="M1670 198c-65.333 -70 -128.331 -142.002 -188.998 -216.002c-78 160.667 -145 336.334 -201 527.001c-64.667 218.667 -97 402.334 -97 551.001c0 55.333 5 127 15 215c-60.667 -61.333 -137.334 -150.333 -230.001 -267c-107.333 -134 -182 -224.667 -224 -272
c36.667 2.66699 77.667 4 123 4c110.667 0 221.334 -2.33301 332.001 -7c-22 -58 -45.333 -140.667 -70 -248h-38c9.33301 35.333 14 63.666 14 84.999c0 30 -18 49 -54 57c-12 2.66699 -89 4 -231 4c-43.333 0 -102 -1.33301 -176 -4
c-220.667 -215.333 -409.667 -375.333 -567 -480c47.333 4 98.666 6 153.999 6c118.667 0 277.334 -11 476.001 -33c54 -6 100.333 -9 139 -9c209.333 0 328.666 104.667 357.999 314c24.667 -14 37 -33.667 37 -59c0 -63.333 -46.667 -136 -140 -218
c-113.333 -99.333 -234.666 -149 -363.999 -149c-70.667 0 -178.334 7.33301 -323.001 22s-253.667 22 -327 22c-12 0 -91 -1.66699 -237 -5l63 101c199.333 70.667 406.666 213.334 621.999 428.001c108 108.667 275.333 303.667 502 585l139 172
c54 64.667 104 118.334 150 161.001l28 -26c-45.333 -50 -68 -118.333 -68 -205c0 -230.667 50.667 -504.334 152 -821.001c56 -176 100.333 -264 133 -264c16 0 40.667 17.667 74 53z" />
    <glyph glyph-name="afii10018" unicode="&#x411;" horiz-adv-x="1570" 
d="M1875 1325c-35.333 -36 -64.667 -74.332 -88 -114.999l-61 -8c-20 -9.33301 -71.667 -14 -155 -14c-126 0 -207 9.66699 -243 29c-28 4 -52.333 6 -73 6c-91.333 0 -176.666 -26.667 -255.999 -80c-74 -50 -135 -117 -183 -201c92.667 34 178 51 256 51
c120.667 0 213.334 -38.667 278.001 -116c60.667 -72 91 -169.333 91 -292c0 -29.333 -1.33301 -57 -4 -83c-13.333 -128 -84.333 -250.667 -213 -368s-257.334 -176 -386.001 -176c-104 0 -189 31.667 -255 95c-68 64 -102 147.667 -102 251
c0 127.333 54.333 297.666 163 510.999c-260 -151.333 -390 -333.333 -390 -546c0 -58 8.66699 -121.667 26 -191c-70 46 -105 122.333 -105 229c0 120 56.667 235.667 170 347c85.333 84.667 195.333 160 330 226c53.333 99.333 121.666 179.333 204.999 240
c72.667 52.667 168.667 99 288 139c-102 32.667 -204 49 -306 49c-53.333 0 -127 -3.66699 -221 -11c-104.667 -8.66699 -178 -13.667 -220 -15c-94.667 -2.66699 -174.667 -38.667 -240 -108c-60 -62.667 -99 -143 -117 -241c-20 16 -30 39 -30 69
c0 95.333 112 211 336 347c28 17.333 64.667 35.333 110 54c117.333 7.33301 243 11 377 11c178.667 0 318.667 -20.667 420 -62c90 -36.667 209.333 -55 358 -55c85.333 0 165.333 9.33301 240 28zM1388 533.001c0 107.333 -40.333 196.999 -121 268.999
c-78 70 -171.333 105 -280 105c-76 0 -154.333 -18.667 -235 -56c-107.333 -193.333 -161 -354.333 -161 -483c0 -99.333 32 -176.666 96 -231.999c60.667 -52.667 141.667 -79 243 -79c117.333 0 223 49.833 317 149.5s141 208.5 141 326.5z" />
    <glyph glyph-name="afii10019" unicode="&#x412;" horiz-adv-x="2537" 
d="M2497 1104c0 -154.667 -72.665 -265.666 -217.998 -332.999c-54.667 -25.333 -91.334 -38 -110 -38c-42 0 -106 64.333 -192 193c-73.333 -100.667 -151.666 -198 -234.999 -292c37.333 4.66699 109.333 20 216 46c90 22.667 162.667 34 218 34
c88 0 161.667 -24.667 221 -74c63.333 -52.667 95 -122.334 95 -209.001c0 -124.667 -52.667 -230.667 -158 -318c-100 -82.667 -213.667 -124 -341 -124c-106 0 -208.667 36.333 -308 109c-63.333 46 -142.666 123.667 -237.999 233
c-122 -107.333 -229.333 -186.666 -322 -237.999c-128.667 -70.667 -256 -106 -382 -106c-166 0 -304.333 52.5 -415 157.5s-166 240.167 -166 405.5c0 153.333 54 282.333 162 387s239.333 157 394 157c125.333 0 247.666 -53.333 366.999 -160
c44.667 -40.667 135.667 -144 273 -310l154 -181c20 18 48.333 46 85 84c-96.667 61.333 -145 150 -145 266c0 69.333 35.333 103.666 106 102.999c-43.333 -48.667 -65 -94.667 -65 -138c0 -41.333 18 -74 54 -98c31.333 -21.333 68.666 -32 111.999 -32
c4.66699 0 15 0.666992 31 2c120 139.333 244.667 299.666 374 480.999l35 -11c-12.667 -22 -19 -48.333 -19 -79c0 -45.333 19 -89.166 57 -131.499s79.333 -63.5 124 -63.5c50 0 90.333 22.333 121 67c27.333 39.333 41 85.333 41 138c0 167.333 -115 251 -345 251
c-116.667 0 -292.834 -16.333 -528.501 -49s-410.834 -49 -525.501 -49c-66 0 -114.667 11 -146 33c26.667 88 48 166.667 64 236l37 -8c-6.66699 -29.333 -10 -53.333 -10 -72c0 -44 45.333 -66 136 -66c54.667 0 165.667 11 333 33c324 42.667 544.667 64 662 64
c112 0 202.667 -21.333 272 -64c83.333 -52 125 -130.667 125 -236zM2429 385.001c0 66 -22 118.999 -66 158.999c-42.667 38 -97.334 57 -164.001 57c-57.333 0 -142 -14.667 -254 -44s-196.667 -44 -254 -44c-17.333 0 -34.666 1.66699 -51.999 5l-101 -105
c213.333 -240 389.333 -360 528 -360c96.667 0 180.334 31 251 93c74.667 64.667 112 144.334 112 239.001zM1422 358l-221.999 272.001c-100.667 121.333 -190.334 212.666 -269.001 273.999c-106.667 83.333 -208 125 -304 125c-118 0 -215 -44.667 -291 -134
c-72 -84 -108 -186 -108 -306c0 -152.667 62 -280.667 186 -384c116.667 -97.333 252.667 -146 408 -146c185.333 0 385.333 99.667 600 299z" />
    <glyph glyph-name="afii10020" unicode="&#x413;" horiz-adv-x="2160" 
d="M2207 1362c0 -16.667 -6.66211 -35.3311 -19.9951 -55.998c-62.667 -98.667 -184.667 -148 -366 -148c-0.666992 0 -37.334 5.33301 -110.001 16l-272 41c-69.333 -277.333 -114.333 -447.333 -135 -510c-59.333 -178.667 -134 -320.667 -224 -426
c-110 -128.667 -256.333 -221.667 -439 -279c-68 -21.333 -137.667 -32 -209 -32c-140.667 0 -255.334 38.667 -344.001 116c-94 82 -141 192 -141 330c0 120 38.667 215.333 116 286c74.667 68.667 172.667 103 294 103c116.667 0 232.667 -42.667 348 -128
c66 -48 157.333 -135 274 -261c45.333 71.333 77.666 186.666 96.999 345.999c20.667 172 46.667 290.667 78 356c-17.333 8.66699 -39 13 -65 13c-73.333 0 -188.333 -35 -345 -105s-264.334 -105 -323.001 -105c-78 0 -143.333 24 -196 72
c-54.667 49.333 -82 112.666 -82 189.999c0 61.333 22 120 66 176c39.333 50 120.666 75 243.999 75c124.667 0 279.334 -17.333 464.001 -52l459 -96c52.667 58.667 111 106.667 175 144l14 -33c-34.667 -19.333 -71.334 -62.333 -110.001 -129
c190 -39.333 323.333 -59 400 -59c172 0 286 66.667 342 200c6.66699 -16 10 -31 10 -45zM1341 1230c-372 54 -646.668 81.002 -824.001 81.002c-127.333 0 -204.666 -14 -231.999 -42c-46 -47.333 -69 -94.333 -69 -141c0 -48.667 22.333 -88.334 67 -119.001
c40 -28 85.333 -42 136 -42c32 0 169.667 45 413 135c146 54 265.333 81 358 81c24.667 0 49 -1.33301 73 -4c-35.333 -78 -77.333 -228 -126 -450c-42 -193.333 -94.667 -339.333 -158 -438c-236 293.333 -450.667 440 -644 440c-84.667 0 -161.667 -27 -231 -81
c-75.333 -58.667 -113 -129 -113 -211c0 -84.667 43 -168 129 -250c96 -92 221 -138 375 -138c222 0 391 73.333 507 220c86 108 157.333 283.333 214 526l52 222c26 97.333 50.333 167.666 73 210.999z" />
    </font>
</defs>
</svg>
